SplineFontDB: 3.2
FontName: SpaceMono-Italic
FullName: Space Mono Italic
FamilyName: Space Mono
Weight: Book
Copyright: Copyright 2016 Google Inc. All Rights Reserved.
Version: 1.000;PS 1.000;hotconv 1.0.81;makeotf.lib2.5.63406
ItalicAngle: -12
UnderlinePosition: -100
UnderlineWidth: 50
Ascent: 800
Descent: 200
InvalidEm: 0
sfntRevision: 0x00010000
LayerCount: 2
Layer: 0 1 "Back" 1
Layer: 1 1 "Fore" 0
XUID: [1021 226 -1497385041 9622631]
StyleMap: 0x0001
FSType: 0
OS2Version: 3
OS2_WeightWidthSlopeOnly: 0
OS2_UseTypoMetrics: 0
CreationTime: 1464282497
ModificationTime: 1620304338
PfmFamily: 17
TTFWeight: 400
TTFWidth: 5
LineGap: 0
VLineGap: 0
Panose: 2 0 5 9 9 0 0 9 0 4
OS2TypoAscent: 1120
OS2TypoAOffset: 0
OS2TypoDescent: -361
OS2TypoDOffset: 0
OS2TypoLinegap: 0
OS2WinAscent: 1120
OS2WinAOffset: 0
OS2WinDescent: 361
OS2WinDOffset: 0
HheadAscent: 1120
HheadAOffset: 0
HheadDescent: -361
HheadDOffset: 0
OS2SubXSize: 650
OS2SubYSize: 600
OS2SubXOff: -16
OS2SubYOff: 75
OS2SupXSize: 650
OS2SupYSize: 600
OS2SupXOff: 74
OS2SupYOff: 350
OS2StrikeYSize: 50
OS2StrikeYPos: 297
OS2CapHeight: 700
OS2XHeight: 496
OS2Vendor: 'CF  '
OS2CodePages: 20000193.00000000
OS2UnicodeRanges: 20000007.00000001.00000000.00000000
Lookup: 1 0 0 "'aalt' Access All Alternates in Latin lookup 0" { "'aalt' Access All Alternates in Latin lookup 0 subtable"  } ['aalt' ('DFLT' <'dflt' > 'latn' <'CAT ' 'MOL ' 'NLD ' 'ROM ' 'dflt' > ) ]
Lookup: 3 0 0 "'aalt' Access All Alternates in Latin lookup 1" { "'aalt' Access All Alternates in Latin lookup 1 subtable"  } ['aalt' ('DFLT' <'dflt' > 'latn' <'CAT ' 'MOL ' 'NLD ' 'ROM ' 'dflt' > ) ]
Lookup: 1 0 0 "'ss01' Style Set 1 in Latin lookup 2" { "'ss01' Style Set 1 in Latin lookup 2 subtable"  } ['ss01' ('DFLT' <'dflt' > 'latn' <'CAT ' 'MOL ' 'NLD ' 'ROM ' 'dflt' > ) ]
Lookup: 1 0 0 "'ss02' Style Set 2 in Latin lookup 3" { "'ss02' Style Set 2 in Latin lookup 3 subtable"  } ['ss02' ('DFLT' <'dflt' > 'latn' <'CAT ' 'MOL ' 'NLD ' 'ROM ' 'dflt' > ) ]

StartChar: A
Encoding: 65 65 4
Width: 612
Flags: W
LayerCount: 2
Fore
SplineSet
419 174 m 1,0,-1
 138 174 l 1,1,-1
 53 0 l 1,2,-1
 -42 0 l 1,3,-1
 305 700 l 1,4,-1
 465 700 l 1,5,-1
 515 0 l 1,6,-1
 430 0 l 1,7,-1
 419 174 l 1,0,-1
176 252 m 1,8,-1
 414 252 l 1,9,-1
 388 663 l 1,10,-1
 376 663 l 1,11,-1
 176 252 l 1,8,-1
EndSplineSet
EndChar

StartChar: B
Encoding: 66 66 5
Width: 612
Flags: W
LayerCount: 2
Fore
SplineSet
2 78 m 1,0,-1
 68 78 l 1,1,-1
 183 622 l 1,2,-1
 117 622 l 1,3,-1
 117 700 l 1,4,-1
 393 700 l 2,5,6
 484 700 484 700 529.5 653.5 c 128,-1,7
 575 607 575 607 575 535 c 0,8,9
 575 505 575 505 564 476 c 128,-1,10
 553 447 553 447 533 423.5 c 128,-1,11
 513 400 513 400 483.5 382.5 c 128,-1,12
 454 365 454 365 418 357 c 1,13,-1
 418 345 l 1,14,15
 460 333 460 333 483 298.5 c 128,-1,16
 506 264 506 264 506 219 c 0,17,18
 506 171 506 171 487 130.5 c 128,-1,19
 468 90 468 90 435 61 c 128,-1,20
 402 32 402 32 356 16 c 128,-1,21
 310 0 310 0 256 0 c 2,22,-1
 2 0 l 1,23,-1
 2 78 l 1,0,-1
152 78 m 1,24,-1
 267 78 l 2,25,26
 300 78 300 78 329.5 88 c 128,-1,27
 359 98 359 98 381 116.5 c 128,-1,28
 403 135 403 135 415.5 160.5 c 128,-1,29
 428 186 428 186 428 216 c 0,30,31
 428 262 428 262 399 287 c 128,-1,32
 370 312 370 312 319 312 c 2,33,-1
 201 312 l 1,34,-1
 152 78 l 1,24,-1
218 390 m 1,35,-1
 336 390 l 2,36,37
 366 390 366 390 394.5 399.5 c 128,-1,38
 423 409 423 409 445 427 c 128,-1,39
 467 445 467 445 480 471.5 c 128,-1,40
 493 498 493 498 493 532 c 0,41,42
 493 574 493 574 464 598 c 128,-1,43
 435 622 435 622 382 622 c 2,44,-1
 267 622 l 1,45,-1
 218 390 l 1,35,-1
EndSplineSet
Substitution2: "'ss01' Style Set 1 in Latin lookup 2 subtable" B.alt
Substitution2: "'aalt' Access All Alternates in Latin lookup 0 subtable" B.alt
EndChar

StartChar: C
Encoding: 67 67 6
Width: 612
Flags: W
LayerCount: 2
Fore
SplineSet
248 64 m 0,0,1
 291 64 291 64 323.5 77 c 128,-1,2
 356 90 356 90 379 113 c 128,-1,3
 402 136 402 136 417.5 168.5 c 128,-1,4
 433 201 433 201 443 240 c 2,5,-1
 446 252 l 1,6,-1
 530 252 l 1,7,-1
 527 240 l 2,8,9
 512 180 512 180 489.5 132.5 c 128,-1,10
 467 85 467 85 433.5 52.5 c 128,-1,11
 400 20 400 20 352 3 c 128,-1,12
 304 -14 304 -14 238 -14 c 0,13,14
 189 -14 189 -14 152 0 c 128,-1,15
 115 14 115 14 89.5 39.5 c 128,-1,16
 64 65 64 65 51 100 c 128,-1,17
 38 135 38 135 38 178 c 0,18,19
 38 199 38 199 40.5 222.5 c 128,-1,20
 43 246 43 246 48 272 c 2,21,-1
 81 428 l 2,22,23
 111 570 111 570 185.5 642 c 128,-1,24
 260 714 260 714 382 714 c 0,25,26
 430 714 430 714 467.5 700 c 128,-1,27
 505 686 505 686 530.5 661.5 c 128,-1,28
 556 637 556 637 569.5 602.5 c 128,-1,29
 583 568 583 568 583 528 c 0,30,31
 583 496 583 496 574 460 c 2,32,-1
 571 448 l 1,33,-1
 487 448 l 1,34,-1
 490 460 l 2,35,36
 495 479 495 479 496.5 493.5 c 128,-1,37
 498 508 498 508 498 522 c 0,38,39
 498 575 498 575 467.5 606.5 c 128,-1,40
 437 638 437 638 369 638 c 0,41,42
 329 638 329 638 296 622 c 128,-1,43
 263 606 263 606 237 577.5 c 128,-1,44
 211 549 211 549 192.5 509.5 c 128,-1,45
 174 470 174 470 164 422 c 2,46,-1
 133 278 l 2,47,48
 128 255 128 255 125.5 235 c 128,-1,49
 123 215 123 215 123 197 c 0,50,51
 123 130 123 130 153 97 c 128,-1,52
 183 64 183 64 248 64 c 0,0,1
EndSplineSet
EndChar

StartChar: D
Encoding: 68 68 7
Width: 612
Flags: W
LayerCount: 2
Fore
SplineSet
115 700 m 1,0,-1
 358 700 l 2,1,2
 464 700 464 700 518 652.5 c 128,-1,3
 572 605 572 605 572 515 c 0,4,5
 572 496 572 496 569.5 476 c 128,-1,6
 567 456 567 456 562 434 c 2,7,-1
 524 260 l 2,8,9
 509 189 509 189 487 139.5 c 128,-1,10
 465 90 465 90 431 59 c 128,-1,11
 397 28 397 28 347.5 14 c 128,-1,12
 298 0 298 0 227 0 c 2,13,-1
 0 0 l 1,14,-1
 0 78 l 1,15,-1
 66 78 l 1,16,-1
 181 622 l 1,17,-1
 115 622 l 1,18,-1
 115 700 l 1,0,-1
226 78 m 2,19,20
 272 78 272 78 307.5 87 c 128,-1,21
 343 96 343 96 369 117.5 c 128,-1,22
 395 139 395 139 413 175 c 128,-1,23
 431 211 431 211 442 266 c 2,24,-1
 477 434 l 2,25,26
 482 460 482 460 484 477 c 128,-1,27
 486 494 486 494 486 510 c 0,28,29
 486 574 486 574 450 598 c 128,-1,30
 414 622 414 622 341 622 c 2,31,-1
 265 622 l 1,32,-1
 150 78 l 1,33,-1
 226 78 l 2,19,20
EndSplineSet
Substitution2: "'ss01' Style Set 1 in Latin lookup 2 subtable" D.alt
Substitution2: "'aalt' Access All Alternates in Latin lookup 0 subtable" D.alt
EndChar

StartChar: E
Encoding: 69 69 8
Width: 612
Flags: W
LayerCount: 2
Fore
SplineSet
177 700 m 1,0,-1
 572 700 l 1,1,-1
 572 622 l 1,2,-1
 244 622 l 1,3,-1
 195 390 l 1,4,-1
 500 390 l 1,5,-1
 500 312 l 1,6,-1
 178 312 l 1,7,-1
 129 78 l 1,8,-1
 446 78 l 1,9,-1
 446 0 l 1,10,-1
 28 0 l 1,11,-1
 177 700 l 1,0,-1
EndSplineSet
EndChar

StartChar: F
Encoding: 70 70 9
Width: 612
Flags: W
LayerCount: 2
Fore
SplineSet
174 700 m 1,0,-1
 575 700 l 1,1,-1
 575 622 l 1,2,-1
 241 622 l 1,3,-1
 192 390 l 1,4,-1
 503 390 l 1,5,-1
 503 312 l 1,6,-1
 175 312 l 1,7,-1
 109 0 l 1,8,-1
 25 0 l 1,9,-1
 174 700 l 1,0,-1
EndSplineSet
EndChar

StartChar: G
Encoding: 71 71 10
Width: 612
Flags: W
LayerCount: 2
Fore
SplineSet
242 336 m 1,0,-1
 548 336 l 1,1,-1
 476 0 l 1,2,-1
 396 0 l 1,3,-1
 416 84 l 1,4,-1
 404 84 l 1,5,6
 378 40 378 40 331 13 c 128,-1,7
 284 -14 284 -14 223 -14 c 0,8,9
 181 -14 181 -14 146 -1.5 c 128,-1,10
 111 11 111 11 85.5 36 c 128,-1,11
 60 61 60 61 46 98 c 128,-1,12
 32 135 32 135 32 183 c 0,13,14
 32 203 32 203 34 224 c 128,-1,15
 36 245 36 245 42 272 c 2,16,-1
 75 428 l 2,17,18
 104 568 104 568 181 641 c 128,-1,19
 258 714 258 714 380 714 c 0,20,21
 428 714 428 714 465.5 699.5 c 128,-1,22
 503 685 503 685 528.5 659 c 128,-1,23
 554 633 554 633 567.5 597.5 c 128,-1,24
 581 562 581 562 581 520 c 0,25,26
 581 488 581 488 574 460 c 2,27,-1
 571 448 l 1,28,-1
 487 448 l 1,29,-1
 490 460 l 2,30,31
 497 488 497 488 497 516 c 0,32,33
 497 569 497 569 465.5 603.5 c 128,-1,34
 434 638 434 638 366 638 c 0,35,36
 325 638 325 638 291.5 622 c 128,-1,37
 258 606 258 606 231.5 577.5 c 128,-1,38
 205 549 205 549 186.5 509.5 c 128,-1,39
 168 470 168 470 158 422 c 2,40,-1
 127 278 l 2,41,42
 118 233 118 233 118 198 c 0,43,44
 118 132 118 132 149 97 c 128,-1,45
 180 62 180 62 245 62 c 0,46,47
 321 62 321 62 372 109 c 128,-1,48
 423 156 423 156 443 234 c 2,49,-1
 449 258 l 1,50,-1
 242 258 l 1,51,-1
 242 336 l 1,0,-1
EndSplineSet
EndChar

StartChar: H
Encoding: 72 72 11
Width: 612
Flags: W
LayerCount: 2
Fore
SplineSet
156 700 m 1,0,-1
 242 700 l 1,1,-1
 176 390 l 1,2,-1
 452 390 l 1,3,-1
 518 700 l 1,4,-1
 604 700 l 1,5,-1
 455 0 l 1,6,-1
 369 0 l 1,7,-1
 435 312 l 1,8,-1
 159 312 l 1,9,-1
 93 0 l 1,10,-1
 8 0 l 1,11,-1
 156 700 l 1,0,-1
EndSplineSet
EndChar

StartChar: I
Encoding: 73 73 12
Width: 612
Flags: W
LayerCount: 2
Fore
SplineSet
147 700 m 1,0,-1
 579 700 l 1,1,-1
 579 622 l 1,2,-1
 405 622 l 1,3,-1
 290 78 l 1,4,-1
 464 78 l 1,5,-1
 464 0 l 1,6,-1
 32 0 l 1,7,-1
 32 78 l 1,8,-1
 206 78 l 1,9,-1
 321 622 l 1,10,-1
 147 622 l 1,11,-1
 147 700 l 1,0,-1
EndSplineSet
EndChar

StartChar: J
Encoding: 74 74 13
Width: 612
Flags: W
LayerCount: 2
Fore
SplineSet
622 622 m 1,0,-1
 556 622 l 1,1,-1
 467 206 l 2,2,3
 456 154 456 154 436.5 113.5 c 128,-1,4
 417 73 417 73 386.5 44.5 c 128,-1,5
 356 16 356 16 314 1 c 128,-1,6
 272 -14 272 -14 216 -14 c 0,7,8
 128 -14 128 -14 79 32 c 128,-1,9
 30 78 30 78 30 155 c 0,10,11
 30 181 30 181 36 210 c 2,12,-1
 48 264 l 1,13,-1
 132 264 l 1,14,-1
 120 210 l 2,15,16
 114 183 114 183 114 160 c 0,17,18
 114 64 114 64 227 64 c 0,19,20
 297 64 297 64 333.5 104.5 c 128,-1,21
 370 145 370 145 384 210 c 2,22,-1
 472 622 l 1,23,-1
 394 622 l 1,24,-1
 394 700 l 1,25,-1
 622 700 l 1,26,-1
 622 622 l 1,0,-1
EndSplineSet
Substitution2: "'ss01' Style Set 1 in Latin lookup 2 subtable" J.alt
Substitution2: "'aalt' Access All Alternates in Latin lookup 0 subtable" J.alt
EndChar

StartChar: K
Encoding: 75 75 14
Width: 612
Flags: W
LayerCount: 2
Fore
SplineSet
91 0 m 1,0,-1
 5 0 l 1,1,-1
 154 700 l 1,2,-1
 240 700 l 1,3,-1
 174 390 l 1,4,-1
 200 390 l 1,5,-1
 515 700 l 1,6,-1
 612 700 l 1,7,-1
 612 688 l 1,8,-1
 275 356 l 1,9,-1
 275 344 l 1,10,-1
 493 6 l 1,11,-1
 493 0 l 1,12,-1
 398 0 l 1,13,-1
 197 312 l 1,14,-1
 157 312 l 1,15,-1
 91 0 l 1,0,-1
EndSplineSet
EndChar

StartChar: L
Encoding: 76 76 15
Width: 612
Flags: W
LayerCount: 2
Fore
SplineSet
173 700 m 1,0,-1
 257 700 l 1,1,-1
 125 78 l 1,2,-1
 485 78 l 1,3,-1
 485 0 l 1,4,-1
 24 0 l 1,5,-1
 173 700 l 1,0,-1
EndSplineSet
EndChar

StartChar: M
Encoding: 77 77 16
Width: 612
Flags: W
LayerCount: 2
Fore
SplineSet
132 700 m 1,0,-1
 291 700 l 1,1,-1
 233 36 l 1,2,-1
 245 36 l 1,3,-1
 464 700 l 1,4,-1
 628 700 l 1,5,-1
 479 0 l 1,6,-1
 401 0 l 1,7,-1
 542 664 l 1,8,-1
 530 664 l 1,9,-1
 311 0 l 1,10,-1
 157 0 l 1,11,-1
 214 664 l 1,12,-1
 202 664 l 1,13,-1
 61 0 l 1,14,-1
 -16 0 l 1,15,-1
 132 700 l 1,0,-1
EndSplineSet
EndChar

StartChar: N
Encoding: 78 78 17
Width: 612
Flags: W
LayerCount: 2
Fore
SplineSet
364 36 m 1,0,-1
 376 36 l 1,1,-1
 517 700 l 1,2,-1
 601 700 l 1,3,-1
 452 0 l 1,4,-1
 287 0 l 1,5,-1
 247 664 l 1,6,-1
 235 664 l 1,7,-1
 94 0 l 1,8,-1
 10 0 l 1,9,-1
 159 700 l 1,10,-1
 324 700 l 1,11,-1
 364 36 l 1,0,-1
EndSplineSet
EndChar

StartChar: O
Encoding: 79 79 18
Width: 612
Flags: W
LayerCount: 2
Fore
SplineSet
77 428 m 2,0,1
 106 568 106 568 179.5 641 c 128,-1,2
 253 714 253 714 377 714 c 0,3,4
 474 714 474 714 525.5 658.5 c 128,-1,5
 577 603 577 603 577 505 c 0,6,7
 577 485 577 485 574.5 462.5 c 128,-1,8
 572 440 572 440 567 417 c 2,9,-1
 536 272 l 2,10,11
 507 132 507 132 433.5 59 c 128,-1,12
 360 -14 360 -14 236 -14 c 0,13,14
 139 -14 139 -14 87.5 41.5 c 128,-1,15
 36 97 36 97 36 195 c 0,16,17
 36 215 36 215 38.5 237.5 c 128,-1,18
 41 260 41 260 46 283 c 2,19,-1
 77 428 l 2,0,1
248 62 m 0,20,21
 289 62 289 62 322.5 77.5 c 128,-1,22
 356 93 356 93 381.5 121.5 c 128,-1,23
 407 150 407 150 424.5 189.5 c 128,-1,24
 442 229 442 229 453 278 c 2,25,-1
 485 428 l 2,26,27
 493 468 493 468 493 498 c 0,28,29
 493 563 493 563 461 600.5 c 128,-1,30
 429 638 429 638 365 638 c 0,31,32
 282 638 282 638 231.5 579 c 128,-1,33
 181 520 181 520 160 422 c 2,34,-1
 128 272 l 2,35,36
 120 232 120 232 120 202 c 0,37,38
 120 137 120 137 152 99.5 c 128,-1,39
 184 62 184 62 248 62 c 0,20,21
EndSplineSet
EndChar

StartChar: P
Encoding: 80 80 19
Width: 612
Flags: W
LayerCount: 2
Fore
SplineSet
157 288 m 1,0,-1
 96 0 l 1,1,-1
 12 0 l 1,2,-1
 161 700 l 1,3,-1
 389 700 l 2,4,5
 434 700 434 700 469.5 687.5 c 128,-1,6
 505 675 505 675 529.5 653 c 128,-1,7
 554 631 554 631 567.5 600 c 128,-1,8
 581 569 581 569 581 533 c 0,9,10
 581 481 581 481 563 436 c 128,-1,11
 545 391 545 391 510.5 358 c 128,-1,12
 476 325 476 325 427 306.5 c 128,-1,13
 378 288 378 288 317 288 c 2,14,-1
 157 288 l 1,0,-1
174 366 m 1,15,-1
 324 366 l 2,16,17
 361 366 361 366 392.5 376.5 c 128,-1,18
 424 387 424 387 446.5 406.5 c 128,-1,19
 469 426 469 426 482 454.5 c 128,-1,20
 495 483 495 483 495 518 c 0,21,22
 495 571 495 571 464.5 596.5 c 128,-1,23
 434 622 434 622 377 622 c 2,24,-1
 228 622 l 1,25,-1
 174 366 l 1,15,-1
EndSplineSet
EndChar

StartChar: Q
Encoding: 81 81 20
Width: 612
Flags: W
LayerCount: 2
Fore
SplineSet
77 428 m 2,0,1
 106 568 106 568 179.5 641 c 128,-1,2
 253 714 253 714 377 714 c 0,3,4
 474 714 474 714 525.5 658.5 c 128,-1,5
 577 603 577 603 577 505 c 0,6,7
 577 485 577 485 574.5 462.5 c 128,-1,8
 572 440 572 440 567 417 c 2,9,-1
 536 272 l 2,10,11
 508 139 508 139 441 67 c 128,-1,12
 374 -5 374 -5 262 -13 c 1,13,-1
 253 -54 l 2,14,15
 252 -59 252 -59 252 -60.5 c 128,-1,16
 252 -62 252 -62 252 -64 c 0,17,18
 252 -84 252 -84 274 -84 c 2,19,-1
 358 -84 l 1,20,-1
 358 -156 l 1,21,-1
 244 -156 l 2,22,23
 212 -156 212 -156 191 -136 c 128,-1,24
 170 -116 170 -116 170 -85 c 0,25,26
 170 -80 170 -80 170 -77 c 128,-1,27
 170 -74 170 -74 172 -66 c 2,28,-1
 184 -9 l 1,29,30
 112 5 112 5 74 57.5 c 128,-1,31
 36 110 36 110 36 195 c 0,32,33
 36 215 36 215 38.5 237.5 c 128,-1,34
 41 260 41 260 46 283 c 2,35,-1
 77 428 l 2,0,1
248 62 m 0,36,37
 289 62 289 62 322.5 77.5 c 128,-1,38
 356 93 356 93 381.5 121.5 c 128,-1,39
 407 150 407 150 424.5 189.5 c 128,-1,40
 442 229 442 229 453 278 c 2,41,-1
 485 428 l 2,42,43
 493 468 493 468 493 498 c 0,44,45
 493 563 493 563 461 600.5 c 128,-1,46
 429 638 429 638 365 638 c 0,47,48
 282 638 282 638 231.5 579 c 128,-1,49
 181 520 181 520 160 422 c 2,50,-1
 128 272 l 2,51,52
 120 232 120 232 120 202 c 0,53,54
 120 137 120 137 152 99.5 c 128,-1,55
 184 62 184 62 248 62 c 0,36,37
EndSplineSet
EndChar

StartChar: R
Encoding: 82 82 21
Width: 612
Flags: W
LayerCount: 2
Fore
SplineSet
448 0 m 1,0,-1
 364 0 l 1,1,-1
 414 234 l 2,2,3
 416 242 416 242 416 253 c 0,4,5
 416 270 416 270 406.5 279 c 128,-1,6
 397 288 397 288 374 288 c 2,7,-1
 153 288 l 1,8,-1
 92 0 l 1,9,-1
 8 0 l 1,10,-1
 157 700 l 1,11,-1
 394 700 l 2,12,13
 483 700 483 700 532.5 655 c 128,-1,14
 582 610 582 610 582 529 c 0,15,16
 582 463 582 463 547 415 c 128,-1,17
 512 367 512 367 452 342 c 1,18,-1
 452 330 l 1,19,20
 477 328 477 328 491 313.5 c 128,-1,21
 505 299 505 299 505 274 c 0,22,23
 505 265 505 265 502 252 c 2,24,-1
 448 0 l 1,0,-1
170 366 m 1,25,-1
 324 366 l 2,26,27
 361 366 361 366 393 377.5 c 128,-1,28
 425 389 425 389 448 410 c 128,-1,29
 471 431 471 431 484 459 c 128,-1,30
 497 487 497 487 497 520 c 0,31,32
 497 570 497 570 467 596 c 128,-1,33
 437 622 437 622 378 622 c 2,34,-1
 224 622 l 1,35,-1
 170 366 l 1,25,-1
EndSplineSet
EndChar

StartChar: S
Encoding: 83 83 22
Width: 612
Flags: W
LayerCount: 2
Fore
SplineSet
497 488 m 2,0,1
 501 508 501 508 501 522 c 0,2,3
 501 551 501 551 490 572.5 c 128,-1,4
 479 594 479 594 459.5 608 c 128,-1,5
 440 622 440 622 414.5 629 c 128,-1,6
 389 636 389 636 360 636 c 0,7,8
 327 636 327 636 295 628 c 128,-1,9
 263 620 263 620 238 604 c 128,-1,10
 213 588 213 588 197.5 565.5 c 128,-1,11
 182 543 182 543 182 513 c 0,12,13
 182 484 182 484 193.5 464.5 c 128,-1,14
 205 445 205 445 227 431.5 c 128,-1,15
 249 418 249 418 280.5 409.5 c 128,-1,16
 312 401 312 401 353 394 c 0,17,18
 445 379 445 379 488 334.5 c 128,-1,19
 531 290 531 290 531 217 c 0,20,21
 531 161 531 161 509.5 118 c 128,-1,22
 488 75 488 75 450 45.5 c 128,-1,23
 412 16 412 16 360.5 1 c 128,-1,24
 309 -14 309 -14 249 -14 c 0,25,26
 192 -14 192 -14 148.5 0.5 c 128,-1,27
 105 15 105 15 76.5 41 c 128,-1,28
 48 67 48 67 33.5 102.5 c 128,-1,29
 19 138 19 138 19 181 c 0,30,31
 19 210 19 210 25 242 c 2,32,-1
 31 272 l 1,33,-1
 115 272 l 1,34,-1
 110 248 l 2,35,36
 104 218 104 218 104 193 c 0,37,38
 104 127 104 127 144 95.5 c 128,-1,39
 184 64 184 64 259 64 c 0,40,41
 295 64 295 64 328.5 74 c 128,-1,42
 362 84 362 84 387.5 102.5 c 128,-1,43
 413 121 413 121 428.5 147.5 c 128,-1,44
 444 174 444 174 444 207 c 0,45,46
 444 235 444 235 435.5 254.5 c 128,-1,47
 427 274 427 274 408 287.5 c 128,-1,48
 389 301 389 301 358.5 310 c 128,-1,49
 328 319 328 319 285 326 c 0,50,51
 243 333 243 333 208.5 346 c 128,-1,52
 174 359 174 359 149 380 c 128,-1,53
 124 401 124 401 110 430.5 c 128,-1,54
 96 460 96 460 96 500 c 0,55,56
 96 551 96 551 117 591 c 128,-1,57
 138 631 138 631 174.5 658 c 128,-1,58
 211 685 211 685 260.5 699.5 c 128,-1,59
 310 714 310 714 367 714 c 0,60,61
 419 714 419 714 460 700 c 128,-1,62
 501 686 501 686 529 662 c 128,-1,63
 557 638 557 638 572 606 c 128,-1,64
 587 574 587 574 587 538 c 0,65,66
 587 528 587 528 586 518 c 128,-1,67
 585 508 585 508 583 498 c 2,68,-1
 575 462 l 1,69,-1
 491 462 l 1,70,-1
 497 488 l 2,0,1
EndSplineSet
EndChar

StartChar: T
Encoding: 84 84 23
Width: 612
Flags: W
LayerCount: 2
Fore
SplineSet
103 700 m 1,0,-1
 606 700 l 1,1,-1
 606 622 l 1,2,-1
 403 622 l 1,3,-1
 271 0 l 1,4,-1
 187 0 l 1,5,-1
 319 622 l 1,6,-1
 103 622 l 1,7,-1
 103 700 l 1,0,-1
EndSplineSet
EndChar

StartChar: U
Encoding: 85 85 24
Width: 612
Flags: W
LayerCount: 2
Fore
SplineSet
226 700 m 1,0,-1
 128 236 l 2,1,2
 125 220 125 220 123 205.5 c 128,-1,3
 121 191 121 191 121 178 c 0,4,5
 121 62 121 62 244 62 c 0,6,7
 319 62 319 62 367.5 106 c 128,-1,8
 416 150 416 150 434 236 c 2,9,-1
 532 700 l 1,10,-1
 616 700 l 1,11,-1
 518 236 l 2,12,13
 492 111 492 111 423.5 48.5 c 128,-1,14
 355 -14 355 -14 232 -14 c 0,15,16
 189 -14 189 -14 153 -2 c 128,-1,17
 117 10 117 10 91.5 33.5 c 128,-1,18
 66 57 66 57 51.5 91 c 128,-1,19
 37 125 37 125 37 170 c 0,20,21
 37 187 37 187 38.5 204.5 c 128,-1,22
 40 222 40 222 45 242 c 2,23,-1
 142 700 l 1,24,-1
 226 700 l 1,0,-1
EndSplineSet
EndChar

StartChar: V
Encoding: 86 86 25
Width: 612
Flags: W
LayerCount: 2
Fore
SplineSet
102 700 m 1,0,-1
 186 700 l 1,1,-1
 216 36 l 1,2,-1
 228 36 l 1,3,-1
 540 700 l 1,4,-1
 635 700 l 1,5,-1
 300 0 l 1,6,-1
 139 0 l 1,7,-1
 102 700 l 1,0,-1
EndSplineSet
EndChar

StartChar: W
Encoding: 87 87 26
Width: 612
Flags: W
LayerCount: 2
Fore
SplineSet
450 0 m 1,0,-1
 296 0 l 1,1,-1
 377 664 l 1,2,-1
 365 664 l 1,3,-1
 166 0 l 1,4,-1
 12 0 l 1,5,-1
 95 700 l 1,6,-1
 171 700 l 1,7,-1
 92 36 l 1,8,-1
 104 36 l 1,9,-1
 300 700 l 1,10,-1
 456 700 l 1,11,-1
 372 36 l 1,12,-1
 384 36 l 1,13,-1
 586 700 l 1,14,-1
 664 700 l 1,15,-1
 450 0 l 1,0,-1
EndSplineSet
EndChar

StartChar: X
Encoding: 88 88 27
Width: 612
Flags: W
LayerCount: 2
Fore
SplineSet
211 700 m 1,0,-1
 302 390 l 1,1,-1
 320 390 l 1,2,-1
 539 700 l 1,3,-1
 634 700 l 1,4,-1
 634 694 l 1,5,-1
 387 350 l 1,6,-1
 387 338 l 1,7,-1
 489 0 l 1,8,-1
 403 0 l 1,9,-1
 312 312 l 1,10,-1
 294 312 l 1,11,-1
 75 0 l 1,12,-1
 -19 0 l 1,13,-1
 -19 6 l 1,14,-1
 227 350 l 1,15,-1
 227 362 l 1,16,-1
 125 700 l 1,17,-1
 211 700 l 1,0,-1
EndSplineSet
EndChar

StartChar: Y
Encoding: 89 89 28
Width: 612
Flags: W
LayerCount: 2
Fore
SplineSet
236 246 m 1,0,-1
 218 246 l 1,1,-1
 96 700 l 1,2,-1
 183 700 l 1,3,-1
 281 318 l 1,4,-1
 293 318 l 1,5,-1
 553 700 l 1,6,-1
 650 700 l 1,7,-1
 650 694 l 1,8,-1
 338 246 l 1,9,-1
 320 246 l 1,10,-1
 268 0 l 1,11,-1
 184 0 l 1,12,-1
 236 246 l 1,0,-1
EndSplineSet
EndChar

StartChar: Z
Encoding: 90 90 29
Width: 612
Flags: W
LayerCount: 2
Fore
SplineSet
134 700 m 1,0,-1
 592 700 l 1,1,-1
 592 574 l 1,2,-1
 77 90 l 1,3,-1
 77 78 l 1,4,-1
 499 78 l 1,5,-1
 499 0 l 1,6,-1
 5 0 l 1,7,-1
 5 126 l 1,8,-1
 520 610 l 1,9,-1
 520 622 l 1,10,-1
 134 622 l 1,11,-1
 134 700 l 1,0,-1
EndSplineSet
EndChar

StartChar: a
Encoding: 97 97 30
Width: 612
Flags: W
LayerCount: 2
Fore
SplineSet
347 78 m 1,0,1
 316 25 316 25 273.5 5.5 c 128,-1,2
 231 -14 231 -14 184 -14 c 0,3,4
 144 -14 144 -14 112 0.5 c 128,-1,5
 80 15 80 15 58 41 c 128,-1,6
 36 67 36 67 24 103.5 c 128,-1,7
 12 140 12 140 12 184 c 0,8,9
 12 247 12 247 30 306 c 128,-1,10
 48 365 48 365 82.5 410 c 128,-1,11
 117 455 117 455 168 482.5 c 128,-1,12
 219 510 219 510 286 510 c 0,13,14
 337 510 337 510 373 486.5 c 128,-1,15
 409 463 409 463 420 418 c 1,16,-1
 432 418 l 1,17,-1
 448 496 l 1,18,-1
 526 496 l 1,19,-1
 438 84 l 2,20,21
 436 75 436 75 440 70.5 c 128,-1,22
 444 66 444 66 451 66 c 256,23,24
 458 66 458 66 465 71 c 2,25,-1
 501 97 l 1,26,-1
 543 38 l 1,27,-1
 498 4 l 2,28,29
 487 -4 487 -4 470.5 -9 c 128,-1,30
 454 -14 454 -14 437 -14 c 0,31,32
 422 -14 422 -14 408 -10 c 128,-1,33
 394 -6 394 -6 382.5 2.5 c 128,-1,34
 371 11 371 11 364 24.5 c 128,-1,35
 357 38 357 38 357 58 c 0,36,37
 357 63 357 63 357.5 68 c 128,-1,38
 358 73 358 73 359 78 c 1,39,-1
 347 78 l 1,0,1
208 60 m 0,40,41
 248 60 248 60 283.5 78.5 c 128,-1,42
 319 97 319 97 345.5 129 c 128,-1,43
 372 161 372 161 387 204.5 c 128,-1,44
 402 248 402 248 402 299 c 0,45,46
 402 361 402 361 374 398.5 c 128,-1,47
 346 436 346 436 287 436 c 0,48,49
 240 436 240 436 204.5 416 c 128,-1,50
 169 396 169 396 144 362.5 c 128,-1,51
 119 329 119 329 106.5 285 c 128,-1,52
 94 241 94 241 94 194 c 0,53,54
 94 128 94 128 123 94 c 128,-1,55
 152 60 152 60 208 60 c 0,40,41
EndSplineSet
Substitution2: "'ordn' Ordinals in Latin lookup 29 subtable" ordfeminine
Substitution2: "'ordn' Ordinals in Latin lookup 28 subtable" ordfeminine
Substitution2: "'ss02' Style Set 2 in Latin lookup 3 subtable" a.alt
AlternateSubs2: "'aalt' Access All Alternates in Latin lookup 1 subtable" a.alt ordfeminine
EndChar

StartChar: b
Encoding: 98 98 31
Width: 612
Flags: W
LayerCount: 2
Fore
SplineSet
264 714 m 1,0,-1
 201 418 l 1,1,-1
 213 418 l 1,2,3
 241 459 241 459 285 484.5 c 128,-1,4
 329 510 329 510 388 510 c 0,5,6
 427 510 427 510 460.5 496.5 c 128,-1,7
 494 483 494 483 518 457.5 c 128,-1,8
 542 432 542 432 556 396.5 c 128,-1,9
 570 361 570 361 570 318 c 0,10,11
 570 241 570 241 548 180 c 128,-1,12
 526 119 526 119 488 75.5 c 128,-1,13
 450 32 450 32 398.5 9 c 128,-1,14
 347 -14 347 -14 288 -14 c 0,15,16
 241 -14 241 -14 199 8.5 c 128,-1,17
 157 31 157 31 141 76 c 1,18,-1
 129 76 l 1,19,-1
 113 0 l 1,20,-1
 36 0 l 1,21,-1
 187 714 l 1,22,-1
 264 714 l 1,0,-1
286 60 m 0,23,24
 327 60 327 60 364 77.5 c 128,-1,25
 401 95 401 95 428.5 127 c 128,-1,26
 456 159 456 159 472 204 c 128,-1,27
 488 249 488 249 488 303 c 0,28,29
 488 364 488 364 455.5 400 c 128,-1,30
 423 436 423 436 363 436 c 0,31,32
 319 436 319 436 282 417 c 128,-1,33
 245 398 245 398 218 365 c 128,-1,34
 191 332 191 332 176 289 c 128,-1,35
 161 246 161 246 161 198 c 0,36,37
 161 132 161 132 194 96 c 128,-1,38
 227 60 227 60 286 60 c 0,23,24
EndSplineSet
EndChar

StartChar: c
Encoding: 99 99 32
Width: 612
Flags: W
LayerCount: 2
Fore
SplineSet
510 170 m 1,0,1
 497 132 497 132 474 98.5 c 128,-1,2
 451 65 451 65 416.5 40 c 128,-1,3
 382 15 382 15 336.5 0.5 c 128,-1,4
 291 -14 291 -14 234 -14 c 0,5,6
 187 -14 187 -14 148.5 0.5 c 128,-1,7
 110 15 110 15 83 42 c 128,-1,8
 56 69 56 69 41 107 c 128,-1,9
 26 145 26 145 26 192 c 0,10,11
 26 257 26 257 48.5 315 c 128,-1,12
 71 373 71 373 112 416.5 c 128,-1,13
 153 460 153 460 211 485 c 128,-1,14
 269 510 269 510 340 510 c 0,15,16
 386 510 386 510 423 497 c 128,-1,17
 460 484 460 484 486 460.5 c 128,-1,18
 512 437 512 437 526 404.5 c 128,-1,19
 540 372 540 372 540 333 c 0,20,21
 540 331 540 331 540 328.5 c 128,-1,22
 540 326 540 326 539 318 c 1,23,-1
 459 306 l 1,24,25
 460 312 460 312 460 315 c 128,-1,26
 460 318 460 318 460 322 c 0,27,28
 460 346 460 346 452.5 366.5 c 128,-1,29
 445 387 445 387 428.5 402.5 c 128,-1,30
 412 418 412 418 386.5 427 c 128,-1,31
 361 436 361 436 326 436 c 0,32,33
 279 436 279 436 239.5 417 c 128,-1,34
 200 398 200 398 170.5 365.5 c 128,-1,35
 141 333 141 333 124.5 290 c 128,-1,36
 108 247 108 247 108 200 c 0,37,38
 108 129 108 129 146 94.5 c 128,-1,39
 184 60 184 60 250 60 c 0,40,41
 290 60 290 60 321 71.5 c 128,-1,42
 352 83 352 83 375 101.5 c 128,-1,43
 398 120 398 120 413 144 c 128,-1,44
 428 168 428 168 436 194 c 1,45,-1
 510 170 l 1,0,1
EndSplineSet
EndChar

StartChar: d
Encoding: 100 100 33
Width: 612
Flags: W
LayerCount: 2
Fore
SplineSet
351 78 m 1,0,1
 319 25 319 25 275 5.5 c 128,-1,2
 231 -14 231 -14 182 -14 c 0,3,4
 142 -14 142 -14 109 0 c 128,-1,5
 76 14 76 14 53 39.5 c 128,-1,6
 30 65 30 65 17 101.5 c 128,-1,7
 4 138 4 138 4 182 c 0,8,9
 4 244 4 244 23 303 c 128,-1,10
 42 362 42 362 78 408 c 128,-1,11
 114 454 114 454 166.5 482 c 128,-1,12
 219 510 219 510 287 510 c 0,13,14
 340 510 340 510 375.5 488 c 128,-1,15
 411 466 411 466 424 418 c 1,16,-1
 436 418 l 1,17,-1
 498 714 l 1,18,-1
 576 714 l 1,19,-1
 442 84 l 2,20,21
 439 66 439 66 455 66 c 0,22,23
 461 66 461 66 468 71 c 2,24,-1
 504 97 l 1,25,-1
 547 38 l 1,26,-1
 502 4 l 2,27,28
 491 -4 491 -4 475.5 -9 c 128,-1,29
 460 -14 460 -14 441 -14 c 0,30,31
 426 -14 426 -14 412 -10 c 128,-1,32
 398 -6 398 -6 386.5 2.5 c 128,-1,33
 375 11 375 11 368 24.5 c 128,-1,34
 361 38 361 38 361 58 c 0,35,36
 361 63 361 63 361.5 68 c 128,-1,37
 362 73 362 73 363 78 c 1,38,-1
 351 78 l 1,0,1
206 60 m 0,39,40
 246 60 246 60 282.5 78.5 c 128,-1,41
 319 97 319 97 346.5 129 c 128,-1,42
 374 161 374 161 390 204.5 c 128,-1,43
 406 248 406 248 406 299 c 0,44,45
 406 361 406 361 375 398.5 c 128,-1,46
 344 436 344 436 285 436 c 0,47,48
 238 436 238 436 201.5 415.5 c 128,-1,49
 165 395 165 395 139 361.5 c 128,-1,50
 113 328 113 328 99.5 284 c 128,-1,51
 86 240 86 240 86 193 c 0,52,53
 86 60 86 60 206 60 c 0,39,40
EndSplineSet
EndChar

StartChar: e
Encoding: 101 101 34
Width: 612
Flags: W
LayerCount: 2
Fore
SplineSet
112 224 m 1,0,1
 110 216 110 216 109 206 c 128,-1,2
 108 196 108 196 108 185 c 0,3,4
 108 130 108 130 140 94.5 c 128,-1,5
 172 59 172 59 242 59 c 0,6,7
 277 59 277 59 304.5 67 c 128,-1,8
 332 75 332 75 352 89.5 c 128,-1,9
 372 104 372 104 386.5 122.5 c 128,-1,10
 401 141 401 141 411 162 c 1,11,-1
 475 126 l 1,12,13
 461 97 461 97 440 71.5 c 128,-1,14
 419 46 419 46 390 27 c 128,-1,15
 361 8 361 8 323 -3 c 128,-1,16
 285 -14 285 -14 236 -14 c 0,17,18
 191 -14 191 -14 153.5 -0.5 c 128,-1,19
 116 13 116 13 89 38.5 c 128,-1,20
 62 64 62 64 47 101 c 128,-1,21
 32 138 32 138 32 185 c 0,22,23
 32 248 32 248 52 306.5 c 128,-1,24
 72 365 72 365 110 410 c 128,-1,25
 148 455 148 455 204 482.5 c 128,-1,26
 260 510 260 510 331 510 c 0,27,28
 381 510 381 510 418 494.5 c 128,-1,29
 455 479 455 479 479 452.5 c 128,-1,30
 503 426 503 426 515 392.5 c 128,-1,31
 527 359 527 359 527 323 c 0,32,33
 527 296 527 296 521 271 c 2,34,-1
 510 224 l 1,35,-1
 112 224 l 1,0,1
321 436 m 0,36,37
 286 436 286 436 255.5 425.5 c 128,-1,38
 225 415 225 415 200 396 c 128,-1,39
 175 377 175 377 157 351.5 c 128,-1,40
 139 326 139 326 129 296 c 1,41,-1
 447 296 l 1,42,43
 450 312 450 312 450 326 c 0,44,45
 450 380 450 380 413 408 c 128,-1,46
 376 436 376 436 321 436 c 0,36,37
EndSplineSet
EndChar

StartChar: f
Encoding: 102 102 35
Width: 612
Flags: W
LayerCount: 2
Fore
SplineSet
526 496 m 1,0,-1
 526 424 l 1,1,-1
 337 424 l 1,2,-1
 217 -138 l 2,3,4
 209 -176 209 -176 185.5 -194 c 128,-1,5
 162 -212 162 -212 134 -212 c 0,6,7
 102 -212 102 -212 82.5 -199 c 128,-1,8
 63 -186 63 -186 49 -164 c 2,9,-1
 5 -93 l 1,10,-1
 66 -54 l 1,11,-1
 108 -121 l 2,12,13
 115 -133 115 -133 126 -133 c 0,14,15
 134 -133 134 -133 137.5 -128.5 c 128,-1,16
 141 -124 141 -124 143 -118 c 2,17,-1
 259 424 l 1,18,-1
 106 424 l 1,19,-1
 106 496 l 1,20,-1
 275 496 l 1,21,-1
 301 622 l 2,22,23
 309 656 309 656 335 678 c 128,-1,24
 361 700 361 700 395 700 c 2,25,-1
 574 700 l 1,26,-1
 574 628 l 1,27,-1
 408 628 l 2,28,29
 380 628 380 628 374 598 c 2,30,-1
 353 496 l 1,31,-1
 526 496 l 1,0,-1
EndSplineSet
EndChar

StartChar: g
Encoding: 103 103 36
Width: 612
Flags: W
LayerCount: 2
Fore
SplineSet
395 70 m 1,0,-1
 383 70 l 1,1,2
 354 28 354 28 310.5 7 c 128,-1,3
 267 -14 267 -14 215 -14 c 0,4,5
 172 -14 172 -14 136.5 0.5 c 128,-1,6
 101 15 101 15 76 41 c 128,-1,7
 51 67 51 67 37.5 104 c 128,-1,8
 24 141 24 141 24 186 c 0,9,10
 24 255 24 255 44.5 314 c 128,-1,11
 65 373 65 373 102.5 416.5 c 128,-1,12
 140 460 140 460 192.5 485 c 128,-1,13
 245 510 245 510 308 510 c 0,14,15
 367 510 367 510 405.5 484.5 c 128,-1,16
 444 459 444 459 456 418 c 1,17,-1
 468 418 l 1,18,-1
 485 496 l 1,19,-1
 563 496 l 1,20,-1
 432 -122 l 2,21,22
 424 -156 424 -156 398 -178 c 128,-1,23
 372 -200 372 -200 338 -200 c 2,24,-1
 36 -200 l 1,25,-1
 36 -128 l 1,26,-1
 325 -128 l 2,27,28
 353 -128 353 -128 359 -98 c 2,29,-1
 395 70 l 1,0,-1
232 60 m 0,30,31
 278 60 278 60 316 80.5 c 128,-1,32
 354 101 354 101 381.5 134.5 c 128,-1,33
 409 168 409 168 424 211 c 128,-1,34
 439 254 439 254 439 298 c 0,35,36
 439 360 439 360 404 398 c 128,-1,37
 369 436 369 436 310 436 c 0,38,39
 263 436 263 436 225 416 c 128,-1,40
 187 396 187 396 160.5 362.5 c 128,-1,41
 134 329 134 329 119.5 285 c 128,-1,42
 105 241 105 241 105 194 c 0,43,44
 105 132 105 132 137.5 96 c 128,-1,45
 170 60 170 60 232 60 c 0,30,31
EndSplineSet
Substitution2: "'ss02' Style Set 2 in Latin lookup 3 subtable" g.alt
Substitution2: "'aalt' Access All Alternates in Latin lookup 0 subtable" g.alt
EndChar

StartChar: h
Encoding: 104 104 37
Width: 612
Flags: W
LayerCount: 2
Fore
SplineSet
428 294 m 2,0,1
 431 308 431 308 432.5 318.5 c 128,-1,2
 434 329 434 329 434 340 c 0,3,4
 434 392 434 392 403.5 414 c 128,-1,5
 373 436 373 436 328 436 c 0,6,7
 260 436 260 436 215.5 387.5 c 128,-1,8
 171 339 171 339 154 258 c 2,9,-1
 99 0 l 1,10,-1
 22 0 l 1,11,-1
 174 714 l 1,12,-1
 249 714 l 1,13,-1
 189 422 l 1,14,-1
 201 422 l 1,15,16
 226 469 226 469 266 489.5 c 128,-1,17
 306 510 306 510 356 510 c 0,18,19
 422 510 422 510 465.5 468.5 c 128,-1,20
 509 427 509 427 509 352 c 0,21,22
 509 320 509 320 502 288 c 2,23,-1
 458 79 l 2,24,25
 455 64 455 64 471 64 c 0,26,27
 477 64 477 64 483 69 c 2,28,-1
 522 97 l 1,29,-1
 564 38 l 1,30,-1
 518 5 l 2,31,32
 491 -14 491 -14 457 -14 c 0,33,34
 426 -14 426 -14 402.5 4 c 128,-1,35
 379 22 379 22 379 60 c 0,36,37
 379 71 379 71 382 86 c 2,38,-1
 428 294 l 2,0,1
EndSplineSet
EndChar

StartChar: i
Encoding: 105 105 38
Width: 612
Flags: W
LayerCount: 2
Fore
SplineSet
303 644 m 256,0,1
 303 673 303 673 323.5 693.5 c 128,-1,2
 344 714 344 714 373 714 c 256,3,4
 402 714 402 714 422.5 693.5 c 128,-1,5
 443 673 443 673 443 644 c 256,6,7
 443 615 443 615 422.5 594.5 c 128,-1,8
 402 574 402 574 373 574 c 256,9,10
 344 574 344 574 323.5 594.5 c 128,-1,11
 303 615 303 615 303 644 c 256,0,1
287 409 m 2,12,13
 289 419 289 419 284.5 426.5 c 128,-1,14
 280 434 280 434 269 434 c 0,15,16
 261 434 261 434 254 430 c 2,17,-1
 137 350 l 1,18,-1
 97 409 l 1,19,-1
 215 489 l 2,20,21
 246 510 246 510 282 510 c 0,22,23
 316 510 316 510 341 490 c 128,-1,24
 366 470 366 470 366 428 c 0,25,26
 366 412 366 412 362 396 c 2,27,-1
 288 87 l 2,28,29
 285 75 285 75 290.5 68 c 128,-1,30
 296 61 296 61 305 61 c 0,31,32
 312 61 312 61 320 66 c 2,33,-1
 435 144 l 1,34,-1
 475 85 l 1,35,-1
 360 7 l 2,36,37
 328 -14 328 -14 293 -14 c 0,38,39
 259 -14 259 -14 234 6 c 128,-1,40
 209 26 209 26 209 68 c 0,41,42
 209 84 209 84 213 100 c 2,43,-1
 287 409 l 2,12,13
EndSplineSet
Substitution2: "'ss02' Style Set 2 in Latin lookup 3 subtable" i.alt
Substitution2: "'aalt' Access All Alternates in Latin lookup 0 subtable" i.alt
EndChar

StartChar: j
Encoding: 106 106 39
Width: 612
Flags: W
LayerCount: 2
Fore
SplineSet
361 644 m 256,0,1
 361 673 361 673 381.5 693.5 c 128,-1,2
 402 714 402 714 431 714 c 256,3,4
 460 714 460 714 480.5 693.5 c 128,-1,5
 501 673 501 673 501 644 c 256,6,7
 501 615 501 615 480.5 594.5 c 128,-1,8
 460 574 460 574 431 574 c 256,9,10
 402 574 402 574 381.5 594.5 c 128,-1,11
 361 615 361 615 361 644 c 256,0,1
316 -122 m 2,12,13
 309 -156 309 -156 283 -178 c 128,-1,14
 257 -200 257 -200 223 -200 c 2,15,-1
 0 -200 l 1,16,-1
 0 -128 l 1,17,-1
 210 -128 l 2,18,19
 237 -128 237 -128 243 -98 c 2,20,-1
 352 412 l 2,21,22
 354 423 354 423 349 428.5 c 128,-1,23
 344 434 344 434 337 434 c 0,24,25
 331 434 331 434 325 430 c 2,26,-1
 208 350 l 1,27,-1
 168 409 l 1,28,-1
 286 489 l 2,29,30
 317 510 317 510 349 510 c 0,31,32
 382 510 382 510 406 487.5 c 128,-1,33
 430 465 430 465 430 427 c 0,34,35
 430 416 430 416 427 401 c 2,36,-1
 316 -122 l 2,12,13
EndSplineSet
Substitution2: "'ss02' Style Set 2 in Latin lookup 3 subtable" j.alt
Substitution2: "'aalt' Access All Alternates in Latin lookup 0 subtable" j.alt
EndChar

StartChar: k
Encoding: 107 107 40
Width: 612
Flags: W
LayerCount: 2
Fore
SplineSet
279 713 m 1,0,-1
 190 290 l 1,1,-1
 202 290 l 1,2,-1
 450 508 l 1,3,-1
 498 457 l 1,4,-1
 277 263 l 1,5,-1
 277 245 l 1,6,-1
 406 69 l 2,7,8
 412 62 412 62 419 62 c 0,9,10
 425 62 425 62 432 67 c 2,11,-1
 480 102 l 1,12,-1
 522 43 l 1,13,-1
 477 9 l 2,14,15
 463 -2 463 -2 448 -8 c 128,-1,16
 433 -14 433 -14 416 -14 c 0,17,18
 396 -14 396 -14 377.5 -4 c 128,-1,19
 359 6 359 6 342 29 c 2,20,-1
 204 218 l 1,21,-1
 174 218 l 1,22,-1
 128 0 l 1,23,-1
 50 0 l 1,24,-1
 201 713 l 1,25,-1
 279 713 l 1,0,-1
EndSplineSet
EndChar

StartChar: l
Encoding: 108 108 41
Width: 612
Flags: W
LayerCount: 2
Fore
SplineSet
304 614 m 2,0,1
 307 626 307 626 301.5 632.5 c 128,-1,2
 296 639 296 639 286 639 c 0,3,4
 279 639 279 639 271 634 c 2,5,-1
 154 554 l 1,6,-1
 114 613 l 1,7,-1
 232 693 l 2,8,9
 248 704 248 704 265 709 c 128,-1,10
 282 714 282 714 299 714 c 0,11,12
 332 714 332 714 357.5 694 c 128,-1,13
 383 674 383 674 383 632 c 0,14,15
 383 615 383 615 379 600 c 2,16,-1
 258 87 l 2,17,18
 255 75 255 75 260.5 68 c 128,-1,19
 266 61 266 61 275 61 c 0,20,21
 282 61 282 61 290 66 c 2,22,-1
 405 144 l 1,23,-1
 445 85 l 1,24,-1
 330 7 l 2,25,26
 298 -14 298 -14 263 -14 c 0,27,28
 230 -14 230 -14 204.5 6 c 128,-1,29
 179 26 179 26 179 68 c 0,30,31
 179 85 179 85 183 100 c 2,32,-1
 304 614 l 2,0,1
EndSplineSet
Substitution2: "'ss02' Style Set 2 in Latin lookup 3 subtable" l.alt
Substitution2: "'aalt' Access All Alternates in Latin lookup 0 subtable" l.alt
EndChar

StartChar: m
Encoding: 109 109 42
Width: 612
Flags: W
LayerCount: 2
Fore
SplineSet
476 372 m 2,0,1
 477 377 477 377 477.5 381 c 128,-1,2
 478 385 478 385 478 390 c 0,3,4
 478 410 478 410 467 423 c 128,-1,5
 456 436 456 436 433 436 c 0,6,7
 404 436 404 436 387.5 416 c 128,-1,8
 371 396 371 396 363 360 c 2,9,-1
 286 0 l 1,10,-1
 208 0 l 1,11,-1
 287 372 l 2,12,13
 289 382 289 382 289 393 c 0,14,15
 289 411 289 411 279.5 423.5 c 128,-1,16
 270 436 270 436 245 436 c 0,17,18
 213 436 213 436 197 413 c 128,-1,19
 181 390 181 390 174 360 c 2,20,-1
 97 0 l 1,21,-1
 20 0 l 1,22,-1
 125 496 l 1,23,-1
 203 496 l 1,24,-1
 194 454 l 1,25,-1
 206 454 l 1,26,27
 217 483 217 483 240 496.5 c 128,-1,28
 263 510 263 510 291 510 c 0,29,30
 322 510 322 510 341.5 495 c 128,-1,31
 361 480 361 480 366 454 c 1,32,-1
 378 454 l 1,33,34
 392 481 392 481 414 495.5 c 128,-1,35
 436 510 436 510 468 510 c 0,36,37
 513 510 513 510 536 483.5 c 128,-1,38
 559 457 559 457 559 414 c 0,39,40
 559 405 559 405 558 394.5 c 128,-1,41
 557 384 557 384 555 376 c 2,42,-1
 491 78 l 2,43,44
 489 70 489 70 493 66 c 128,-1,45
 497 62 497 62 503 62 c 256,46,47
 509 62 509 62 514 66 c 2,48,-1
 556 97 l 1,49,-1
 598 38 l 1,50,-1
 553 4 l 2,51,52
 542 -4 542 -4 525.5 -9 c 128,-1,53
 509 -14 509 -14 492 -14 c 0,54,55
 477 -14 477 -14 463 -10 c 128,-1,56
 449 -6 449 -6 437.5 2.5 c 128,-1,57
 426 11 426 11 419 24.5 c 128,-1,58
 412 38 412 38 412 58 c 0,59,60
 412 63 412 63 412.5 68 c 128,-1,61
 413 73 413 73 414 78 c 2,62,-1
 476 372 l 2,0,1
EndSplineSet
EndChar

StartChar: n
Encoding: 110 110 43
Width: 612
Flags: W
LayerCount: 2
Fore
SplineSet
413 298 m 2,0,1
 416 312 416 312 417 321.5 c 128,-1,2
 418 331 418 331 418 341 c 0,3,4
 418 389 418 389 389.5 412.5 c 128,-1,5
 361 436 361 436 310 436 c 0,6,7
 242 436 242 436 199 387.5 c 128,-1,8
 156 339 156 339 140 264 c 2,9,-1
 84 0 l 1,10,-1
 6 0 l 1,11,-1
 112 496 l 1,12,-1
 190 496 l 1,13,-1
 175 424 l 1,14,-1
 187 424 l 1,15,16
 212 469 212 469 252.5 489.5 c 128,-1,17
 293 510 293 510 338 510 c 0,18,19
 370 510 370 510 399 499.5 c 128,-1,20
 428 489 428 489 449.5 469 c 128,-1,21
 471 449 471 449 483.5 420 c 128,-1,22
 496 391 496 391 496 353 c 0,23,24
 496 328 496 328 490 300 c 2,25,-1
 442 78 l 2,26,27
 440 70 440 70 444 66 c 128,-1,28
 448 62 448 62 454 62 c 256,29,30
 460 62 460 62 465 66 c 2,31,-1
 507 97 l 1,32,-1
 549 38 l 1,33,-1
 510 9 l 2,34,35
 480 -14 480 -14 443 -14 c 0,36,37
 428 -14 428 -14 414 -10.5 c 128,-1,38
 400 -7 400 -7 389 1.5 c 128,-1,39
 378 10 378 10 371 24 c 128,-1,40
 364 38 364 38 364 59 c 0,41,42
 364 72 364 72 368 91 c 2,43,-1
 413 298 l 2,0,1
EndSplineSet
EndChar

StartChar: o
Encoding: 111 111 44
Width: 612
Flags: W
LayerCount: 2
Fore
SplineSet
329 510 m 0,0,1
 372 510 372 510 409 495 c 128,-1,2
 446 480 446 480 473 453 c 128,-1,3
 500 426 500 426 515.5 388.5 c 128,-1,4
 531 351 531 351 531 306 c 0,5,6
 531 244 531 244 510.5 186.5 c 128,-1,7
 490 129 490 129 450.5 84.5 c 128,-1,8
 411 40 411 40 353.5 13 c 128,-1,9
 296 -14 296 -14 223 -14 c 0,10,11
 181 -14 181 -14 144 0.5 c 128,-1,12
 107 15 107 15 79.5 41 c 128,-1,13
 52 67 52 67 36 104.5 c 128,-1,14
 20 142 20 142 20 188 c 0,15,16
 20 260 20 260 44.5 319.5 c 128,-1,17
 69 379 69 379 111.5 421 c 128,-1,18
 154 463 154 463 210 486.5 c 128,-1,19
 266 510 266 510 329 510 c 0,0,1
240 60 m 0,20,21
 286 60 286 60 325 80.5 c 128,-1,22
 364 101 364 101 392 134.5 c 128,-1,23
 420 168 420 168 435.5 211 c 128,-1,24
 451 254 451 254 451 300 c 0,25,26
 451 359 451 359 414.5 397.5 c 128,-1,27
 378 436 378 436 312 436 c 0,28,29
 269 436 269 436 231 417 c 128,-1,30
 193 398 193 398 164.5 365 c 128,-1,31
 136 332 136 332 119 288.5 c 128,-1,32
 102 245 102 245 102 196 c 0,33,34
 102 136 102 136 138 98 c 128,-1,35
 174 60 174 60 240 60 c 0,20,21
EndSplineSet
Substitution2: "'ordn' Ordinals in Latin lookup 29 subtable" ordmasculine
Substitution2: "'ordn' Ordinals in Latin lookup 28 subtable" ordmasculine
Substitution2: "'aalt' Access All Alternates in Latin lookup 0 subtable" ordmasculine
EndChar

StartChar: p
Encoding: 112 112 45
Width: 612
Flags: W
LayerCount: 2
Fore
SplineSet
77 -200 m 1,0,-1
 0 -200 l 1,1,-1
 131 421 l 2,2,3
 133 432 133 432 129 436.5 c 128,-1,4
 125 441 125 441 117 441 c 0,5,6
 112 441 112 441 108 438 c 2,7,-1
 53 400 l 1,8,-1
 13 459 l 1,9,-1
 60 491 l 2,10,11
 88 510 88 510 121 510 c 0,12,13
 161 510 161 510 184.5 488 c 128,-1,14
 208 466 208 466 208 424 c 2,15,-1
 208 418 l 1,16,-1
 220 418 l 1,17,18
 250 463 250 463 292.5 486.5 c 128,-1,19
 335 510 335 510 394 510 c 0,20,21
 435 510 435 510 469.5 495.5 c 128,-1,22
 504 481 504 481 528.5 455.5 c 128,-1,23
 553 430 553 430 567 394.5 c 128,-1,24
 581 359 581 359 581 318 c 0,25,26
 581 252 581 252 563.5 192 c 128,-1,27
 546 132 546 132 511 86 c 128,-1,28
 476 40 476 40 424 13 c 128,-1,29
 372 -14 372 -14 302 -14 c 0,30,31
 246 -14 246 -14 205.5 11.5 c 128,-1,32
 165 37 165 37 148 76 c 1,33,-1
 136 76 l 1,34,-1
 77 -200 l 1,0,-1
292 60 m 0,35,36
 341 60 341 60 379.5 80 c 128,-1,37
 418 100 418 100 444.5 133.5 c 128,-1,38
 471 167 471 167 484.5 211 c 128,-1,39
 498 255 498 255 498 302 c 0,40,41
 498 368 498 368 463.5 402 c 128,-1,42
 429 436 429 436 372 436 c 0,43,44
 326 436 326 436 288.5 415 c 128,-1,45
 251 394 251 394 224 360 c 128,-1,46
 197 326 197 326 182 283 c 128,-1,47
 167 240 167 240 167 195 c 0,48,49
 167 131 167 131 200 95.5 c 128,-1,50
 233 60 233 60 292 60 c 0,35,36
EndSplineSet
EndChar

StartChar: q
Encoding: 113 113 46
Width: 612
Flags: W
LayerCount: 2
Fore
SplineSet
391 70 m 1,0,-1
 379 70 l 1,1,2
 350 28 350 28 306.5 7 c 128,-1,3
 263 -14 263 -14 211 -14 c 0,4,5
 168 -14 168 -14 132.5 0.5 c 128,-1,6
 97 15 97 15 72 41 c 128,-1,7
 47 67 47 67 33.5 104 c 128,-1,8
 20 141 20 141 20 186 c 0,9,10
 20 255 20 255 40.5 314 c 128,-1,11
 61 373 61 373 98.5 416.5 c 128,-1,12
 136 460 136 460 188.5 485 c 128,-1,13
 241 510 241 510 304 510 c 0,14,15
 363 510 363 510 401.5 484.5 c 128,-1,16
 440 459 440 459 452 418 c 1,17,-1
 464 418 l 1,18,-1
 481 496 l 1,19,-1
 559 496 l 1,20,-1
 430 -111 l 2,21,22
 427 -123 427 -123 432.5 -130 c 128,-1,23
 438 -137 438 -137 447 -137 c 0,24,25
 454 -137 454 -137 462 -132 c 2,26,-1
 514 -97 l 1,27,-1
 554 -156 l 1,28,-1
 502 -191 l 2,29,30
 470 -212 470 -212 436 -212 c 256,31,32
 402 -212 402 -212 377 -191 c 128,-1,33
 352 -170 352 -170 352 -128 c 0,34,35
 352 -115 352 -115 355 -98 c 2,36,-1
 391 70 l 1,0,-1
228 60 m 0,37,38
 274 60 274 60 312 80.5 c 128,-1,39
 350 101 350 101 377.5 134.5 c 128,-1,40
 405 168 405 168 420 211 c 128,-1,41
 435 254 435 254 435 298 c 0,42,43
 435 360 435 360 400 398 c 128,-1,44
 365 436 365 436 306 436 c 0,45,46
 259 436 259 436 221 416 c 128,-1,47
 183 396 183 396 156.5 362.5 c 128,-1,48
 130 329 130 329 115.5 285 c 128,-1,49
 101 241 101 241 101 194 c 0,50,51
 101 132 101 132 133.5 96 c 128,-1,52
 166 60 166 60 228 60 c 0,37,38
EndSplineSet
EndChar

StartChar: r
Encoding: 114 114 47
Width: 612
Flags: W
LayerCount: 2
Fore
SplineSet
194 410 m 2,0,1
 197 422 197 422 191 428.5 c 128,-1,2
 185 435 185 435 176 435 c 0,3,4
 168 435 168 435 161 430 c 2,5,-1
 70 368 l 1,6,-1
 30 427 l 1,7,-1
 119 487 l 2,8,9
 153 510 153 510 188 510 c 0,10,11
 219 510 219 510 242 492.5 c 128,-1,12
 265 475 265 475 268 436 c 1,13,-1
 280 436 l 1,14,15
 309 477 309 477 345 493.5 c 128,-1,16
 381 510 381 510 420 510 c 0,17,18
 492 510 492 510 533 468.5 c 128,-1,19
 574 427 574 427 574 359 c 0,20,21
 574 333 574 333 568 306 c 1,22,-1
 483 300 l 1,23,24
 488 325 488 325 488 342 c 0,25,26
 488 390 488 390 461.5 413 c 128,-1,27
 435 436 435 436 393 436 c 0,28,29
 363 436 363 436 338.5 424.5 c 128,-1,30
 314 413 314 413 296 393.5 c 128,-1,31
 278 374 278 374 265.5 348 c 128,-1,32
 253 322 253 322 247 294 c 2,33,-1
 200 72 l 1,34,-1
 318 72 l 1,35,-1
 318 0 l 1,36,-1
 0 0 l 1,37,-1
 0 72 l 1,38,-1
 122 72 l 1,39,-1
 194 410 l 2,0,1
EndSplineSet
Substitution2: "'ss02' Style Set 2 in Latin lookup 3 subtable" r.alt
Substitution2: "'aalt' Access All Alternates in Latin lookup 0 subtable" r.alt
EndChar

StartChar: s
Encoding: 115 115 48
Width: 612
Flags: W
LayerCount: 2
Fore
SplineSet
336 440 m 0,0,1
 316 440 316 440 294.5 435 c 128,-1,2
 273 430 273 430 255.5 420 c 128,-1,3
 238 410 238 410 227 394.5 c 128,-1,4
 216 379 216 379 216 358 c 0,5,6
 216 326 216 326 244.5 310 c 128,-1,7
 273 294 273 294 343 289 c 0,8,9
 415 284 415 284 454.5 253 c 128,-1,10
 494 222 494 222 494 162 c 0,11,12
 494 120 494 120 476.5 87 c 128,-1,13
 459 54 459 54 428 31.5 c 128,-1,14
 397 9 397 9 354.5 -2.5 c 128,-1,15
 312 -14 312 -14 261 -14 c 256,16,17
 210 -14 210 -14 174.5 -0.5 c 128,-1,18
 139 13 139 13 116 35.5 c 128,-1,19
 93 58 93 58 82.5 86.5 c 128,-1,20
 72 115 72 115 72 145 c 0,21,22
 72 150 72 150 72 155.5 c 128,-1,23
 72 161 72 161 73 166 c 1,24,-1
 151 176 l 1,25,26
 150 168 150 168 150 166 c 128,-1,27
 150 164 150 164 150 160 c 0,28,29
 150 138 150 138 156.5 119.5 c 128,-1,30
 163 101 163 101 178 87.5 c 128,-1,31
 193 74 193 74 217 66 c 128,-1,32
 241 58 241 58 276 58 c 0,33,34
 299 58 299 58 323.5 63.5 c 128,-1,35
 348 69 348 69 368 80.5 c 128,-1,36
 388 92 388 92 401 109.5 c 128,-1,37
 414 127 414 127 414 152 c 0,38,39
 414 191 414 191 382.5 204.5 c 128,-1,40
 351 218 351 218 289 223 c 0,41,42
 218 228 218 228 177.5 257 c 128,-1,43
 137 286 137 286 137 348 c 0,44,45
 137 383 137 383 152 413 c 128,-1,46
 167 443 167 443 194.5 464.5 c 128,-1,47
 222 486 222 486 260.5 498 c 128,-1,48
 299 510 299 510 346 510 c 0,49,50
 392 510 392 510 425.5 497.5 c 128,-1,51
 459 485 459 485 480.5 465 c 128,-1,52
 502 445 502 445 512.5 419.5 c 128,-1,53
 523 394 523 394 523 367 c 2,54,-1
 523 356 l 1,55,-1
 446 345 l 1,56,-1
 446 349 l 2,57,58
 446 351 446 351 446.5 352.5 c 128,-1,59
 447 354 447 354 447 356 c 0,60,61
 447 394 447 394 418.5 417 c 128,-1,62
 390 440 390 440 336 440 c 0,0,1
EndSplineSet
EndChar

StartChar: t
Encoding: 116 116 49
Width: 612
Flags: W
LayerCount: 2
Fore
SplineSet
85 496 m 1,0,-1
 257 496 l 1,1,-1
 303 714 l 1,2,-1
 381 714 l 1,3,-1
 335 496 l 1,4,-1
 511 496 l 1,5,-1
 511 424 l 1,6,-1
 319 424 l 1,7,-1
 248 87 l 2,8,9
 245 75 245 75 250.5 68 c 128,-1,10
 256 61 256 61 265 61 c 0,11,12
 272 61 272 61 280 66 c 2,13,-1
 413 156 l 1,14,-1
 453 97 l 1,15,-1
 320 7 l 2,16,17
 288 -14 288 -14 254 -14 c 0,18,19
 219 -14 219 -14 194 7 c 128,-1,20
 169 28 169 28 169 70 c 0,21,22
 169 77 169 77 170 84.5 c 128,-1,23
 171 92 171 92 173 100 c 2,24,-1
 241 424 l 1,25,-1
 85 424 l 1,26,-1
 85 496 l 1,0,-1
EndSplineSet
EndChar

StartChar: u
Encoding: 117 117 50
Width: 612
Flags: W
LayerCount: 2
Fore
SplineSet
365 84 m 1,0,-1
 353 84 l 1,1,2
 326 36 326 36 284 11 c 128,-1,3
 242 -14 242 -14 182 -14 c 0,4,5
 116 -14 116 -14 75 23.5 c 128,-1,6
 34 61 34 61 34 135 c 0,7,8
 34 150 34 150 35.5 165.5 c 128,-1,9
 37 181 37 181 42 200 c 2,10,-1
 108 496 l 1,11,-1
 186 496 l 1,12,-1
 122 210 l 2,13,14
 115 179 115 179 115 152 c 0,15,16
 115 60 115 60 214 60 c 0,17,18
 283 60 283 60 331.5 108.5 c 128,-1,19
 380 157 380 157 398 238 c 2,20,-1
 456 496 l 1,21,-1
 534 496 l 1,22,-1
 443 84 l 2,23,24
 441 76 441 76 445 71 c 128,-1,25
 449 66 449 66 456 66 c 256,26,27
 463 66 463 66 470 71 c 2,28,-1
 513 102 l 1,29,-1
 555 44 l 1,30,-1
 505 6 l 2,31,32
 493 -4 493 -4 475.5 -9 c 128,-1,33
 458 -14 458 -14 440 -14 c 0,34,35
 425 -14 425 -14 411 -10 c 128,-1,36
 397 -6 397 -6 386 3 c 128,-1,37
 375 12 375 12 368.5 25.5 c 128,-1,38
 362 39 362 39 362 58 c 0,39,40
 362 63 362 63 362.5 68 c 128,-1,41
 363 73 363 73 364 78 c 2,42,-1
 365 84 l 1,0,-1
EndSplineSet
EndChar

StartChar: v
Encoding: 118 118 51
Width: 612
Flags: W
LayerCount: 2
Fore
SplineSet
253 36 m 1,0,-1
 265 36 l 1,1,-1
 497 496 l 1,2,-1
 570 459 l 1,3,-1
 330 0 l 1,4,-1
 178 0 l 1,5,-1
 140 418 l 2,6,7
 138 434 138 434 123 434 c 0,8,9
 112 434 112 434 105 425 c 2,10,-1
 56 363 l 1,11,-1
 0 408 l 1,12,-1
 48 470 l 2,13,14
 64 490 64 490 85 500 c 128,-1,15
 106 510 106 510 128 510 c 0,16,17
 161 510 161 510 187.5 489 c 128,-1,18
 214 468 214 468 218 426 c 2,19,-1
 253 36 l 1,0,-1
EndSplineSet
EndChar

StartChar: w
Encoding: 119 119 52
Width: 612
Flags: W
LayerCount: 2
Fore
SplineSet
87 36 m 1,0,-1
 99 36 l 1,1,-1
 253 496 l 1,2,-1
 398 496 l 1,3,-1
 359 36 l 1,4,-1
 371 36 l 1,5,-1
 520 506 l 1,6,-1
 588 485 l 1,7,-1
 429 0 l 1,8,-1
 289 0 l 1,9,-1
 326 460 l 1,10,-1
 314 460 l 1,11,-1
 158 0 l 1,12,-1
 18 0 l 1,13,-1
 63 496 l 1,14,-1
 134 496 l 1,15,-1
 87 36 l 1,0,-1
EndSplineSet
EndChar

StartChar: x
Encoding: 120 120 53
Width: 612
Flags: W
LayerCount: 2
Fore
SplineSet
238 252 m 1,0,-1
 171 414 l 2,1,2
 165 427 165 427 153 427 c 256,3,4
 141 427 141 427 135 415 c 2,5,-1
 91 340 l 1,6,-1
 29 376 l 1,7,-1
 74 454 l 2,8,9
 90 481 90 481 109.5 495.5 c 128,-1,10
 129 510 129 510 158 510 c 0,11,12
 212 510 212 510 237 451 c 2,13,-1
 296 308 l 1,14,-1
 498 506 l 1,15,-1
 551 453 l 1,16,-1
 327 234 l 1,17,-1
 392 80 l 2,18,19
 398 67 398 67 410 67 c 0,20,21
 421 67 421 67 427 78 c 2,22,-1
 470 155 l 1,23,-1
 533 121 l 1,24,-1
 490 42 l 2,25,26
 474 13 474 13 453 -0.5 c 128,-1,27
 432 -14 432 -14 405 -14 c 0,28,29
 381 -14 381 -14 359.5 -0.5 c 128,-1,30
 338 13 338 13 325 43 c 2,31,-1
 269 177 l 1,32,-1
 76 -12 l 1,33,-1
 23 41 l 1,34,-1
 238 252 l 1,0,-1
EndSplineSet
EndChar

StartChar: y
Encoding: 121 121 54
Width: 612
Flags: W
LayerCount: 2
Fore
SplineSet
190 210 m 2,0,1
 183 179 183 179 183 152 c 0,2,3
 183 60 183 60 282 60 c 0,4,5
 351 60 351 60 400 108.5 c 128,-1,6
 449 157 449 157 466 238 c 2,7,-1
 520 496 l 1,8,-1
 598 496 l 1,9,-1
 467 -122 l 2,10,11
 460 -156 460 -156 434 -178 c 128,-1,12
 408 -200 408 -200 374 -200 c 2,13,-1
 103 -200 l 1,14,-1
 103 -128 l 1,15,-1
 361 -128 l 2,16,17
 388 -128 388 -128 394 -98 c 2,18,-1
 432 78 l 1,19,-1
 420 78 l 1,20,21
 390 33 390 33 348.5 9.5 c 128,-1,22
 307 -14 307 -14 250 -14 c 0,23,24
 183 -14 183 -14 143 26 c 128,-1,25
 103 66 103 66 103 139 c 0,26,27
 103 169 103 169 110 200 c 2,28,-1
 155 414 l 2,29,30
 157 424 157 424 152.5 429.5 c 128,-1,31
 148 435 148 435 141 435 c 0,32,33
 135 435 135 435 128 430 c 2,34,-1
 77 395 l 1,35,-1
 37 454 l 1,36,-1
 89 489 l 2,37,38
 120 510 120 510 152 510 c 0,39,40
 185 510 185 510 209 488 c 128,-1,41
 233 466 233 466 233 427 c 0,42,43
 233 421 233 421 232.5 415.5 c 128,-1,44
 232 410 232 410 230 401 c 2,45,-1
 190 210 l 2,0,1
EndSplineSet
Substitution2: "'ss02' Style Set 2 in Latin lookup 3 subtable" y.alt
Substitution2: "'aalt' Access All Alternates in Latin lookup 0 subtable" y.alt
EndChar

StartChar: z
Encoding: 122 122 55
Width: 612
Flags: W
LayerCount: 2
Fore
SplineSet
485 72 m 1,0,-1
 485 0 l 1,1,-1
 64 0 l 1,2,-1
 64 130 l 1,3,-1
 472 412 l 1,4,-1
 472 424 l 1,5,-1
 134 424 l 1,6,-1
 134 496 l 1,7,-1
 538 496 l 1,8,-1
 538 370 l 1,9,-1
 130 84 l 1,10,-1
 130 72 l 1,11,-1
 485 72 l 1,0,-1
EndSplineSet
EndChar

StartChar: zero
Encoding: 48 48 56
Width: 612
Flags: W
LayerCount: 2
Fore
SplineSet
240 350 m 256,0,1
 240 376 240 376 259 395 c 128,-1,2
 278 414 278 414 304 414 c 256,3,4
 330 414 330 414 349 395 c 128,-1,5
 368 376 368 376 368 350 c 256,6,7
 368 324 368 324 349 305 c 128,-1,8
 330 286 330 286 304 286 c 256,9,10
 278 286 278 286 259 305 c 128,-1,11
 240 324 240 324 240 350 c 256,0,1
75 428 m 2,12,13
 104 568 104 568 177.5 641 c 128,-1,14
 251 714 251 714 375 714 c 0,15,16
 472 714 472 714 523.5 658.5 c 128,-1,17
 575 603 575 603 575 505 c 0,18,19
 575 485 575 485 572.5 462.5 c 128,-1,20
 570 440 570 440 565 417 c 2,21,-1
 534 272 l 2,22,23
 505 132 505 132 431.5 59 c 128,-1,24
 358 -14 358 -14 234 -14 c 0,25,26
 137 -14 137 -14 85.5 41.5 c 128,-1,27
 34 97 34 97 34 195 c 0,28,29
 34 215 34 215 36.5 237.5 c 128,-1,30
 39 260 39 260 44 283 c 2,31,-1
 75 428 l 2,12,13
246 62 m 0,32,33
 287 62 287 62 320.5 77.5 c 128,-1,34
 354 93 354 93 379.5 121.5 c 128,-1,35
 405 150 405 150 422.5 189.5 c 128,-1,36
 440 229 440 229 451 278 c 2,37,-1
 483 428 l 2,38,39
 491 468 491 468 491 498 c 0,40,41
 491 563 491 563 459 600.5 c 128,-1,42
 427 638 427 638 363 638 c 0,43,44
 280 638 280 638 229.5 579 c 128,-1,45
 179 520 179 520 158 422 c 2,46,-1
 126 272 l 2,47,48
 118 232 118 232 118 202 c 0,49,50
 118 137 118 137 150 99.5 c 128,-1,51
 182 62 182 62 246 62 c 0,32,33
EndSplineSet
Substitution2: "Single Substitution lookup 35 subtable" uni2080
Substitution2: "'onum' Oldstyle Figures in Latin lookup 25 subtable" zero.tosn
Substitution2: "'onum' Oldstyle Figures in Latin lookup 24 subtable" zero.tosn
Substitution2: "'dnom' Denominators in Latin lookup 23 subtable" uni2080
Substitution2: "'dnom' Denominators in Latin lookup 22 subtable" uni2080
Substitution2: "'numr' Numerators in Latin lookup 21 subtable" uni2070
Substitution2: "'numr' Numerators in Latin lookup 20 subtable" uni2070
Substitution2: "'sinf' Scientific Inferiors in Latin lookup 19 subtable" uni2080
Substitution2: "'sinf' Scientific Inferiors in Latin lookup 18 subtable" uni2080
Substitution2: "'sups' Superscript in Latin lookup 17 subtable" uni2070
Substitution2: "'sups' Superscript in Latin lookup 16 subtable" uni2070
Substitution2: "'subs' Subscript in Latin lookup 15 subtable" uni2080
Substitution2: "'subs' Subscript in Latin lookup 14 subtable" uni2080
AlternateSubs2: "'aalt' Access All Alternates in Latin lookup 1 subtable" uni2070 uni2080 zero.tosn
EndChar

StartChar: one
Encoding: 49 49 57
Width: 612
Flags: W
LayerCount: 2
Fore
SplineSet
222 78 m 1,0,-1
 346 663 l 1,1,-1
 334 663 l 1,2,-1
 158 400 l 1,3,-1
 67 400 l 1,4,-1
 67 406 l 1,5,-1
 268 700 l 1,6,-1
 438 700 l 1,7,-1
 306 78 l 1,8,-1
 504 78 l 1,9,-1
 504 0 l 1,10,-1
 24 0 l 1,11,-1
 24 78 l 1,12,-1
 222 78 l 1,0,-1
EndSplineSet
Substitution2: "Single Substitution lookup 35 subtable" uni2081
Substitution2: "'onum' Oldstyle Figures in Latin lookup 25 subtable" one.tosn
Substitution2: "'onum' Oldstyle Figures in Latin lookup 24 subtable" one.tosn
Substitution2: "'dnom' Denominators in Latin lookup 23 subtable" uni2081
Substitution2: "'dnom' Denominators in Latin lookup 22 subtable" uni2081
Substitution2: "'numr' Numerators in Latin lookup 21 subtable" onesuperior
Substitution2: "'numr' Numerators in Latin lookup 20 subtable" onesuperior
Substitution2: "'sinf' Scientific Inferiors in Latin lookup 19 subtable" uni2081
Substitution2: "'sinf' Scientific Inferiors in Latin lookup 18 subtable" uni2081
Substitution2: "'sups' Superscript in Latin lookup 17 subtable" onesuperior
Substitution2: "'sups' Superscript in Latin lookup 16 subtable" onesuperior
Substitution2: "'subs' Subscript in Latin lookup 15 subtable" uni2081
Substitution2: "'subs' Subscript in Latin lookup 14 subtable" uni2081
AlternateSubs2: "'aalt' Access All Alternates in Latin lookup 1 subtable" one.tosn onesuperior uni2081
EndChar

StartChar: two
Encoding: 50 50 58
Width: 612
Flags: W
LayerCount: 2
Fore
SplineSet
489 78 m 1,0,-1
 489 0 l 1,1,-1
 0 0 l 1,2,-1
 24 120 l 2,3,4
 34 169 34 169 57 204.5 c 128,-1,5
 80 240 80 240 115 265.5 c 128,-1,6
 150 291 150 291 196 308 c 128,-1,7
 242 325 242 325 298 336 c 0,8,9
 337 343 337 343 373.5 357 c 128,-1,10
 410 371 410 371 438.5 393.5 c 128,-1,11
 467 416 467 416 484.5 448 c 128,-1,12
 502 480 502 480 502 524 c 0,13,14
 502 547 502 547 494.5 567.5 c 128,-1,15
 487 588 487 588 471.5 603 c 128,-1,16
 456 618 456 618 431 627 c 128,-1,17
 406 636 406 636 372 636 c 0,18,19
 295 636 295 636 243.5 589 c 128,-1,20
 192 542 192 542 175 464 c 2,21,-1
 166 420 l 1,22,-1
 81 420 l 1,23,-1
 91 470 l 2,24,25
 101 521 101 521 124 565.5 c 128,-1,26
 147 610 147 610 183 643 c 128,-1,27
 219 676 219 676 268.5 695 c 128,-1,28
 318 714 318 714 382 714 c 0,29,30
 431 714 431 714 470 699.5 c 128,-1,31
 509 685 509 685 535 660.5 c 128,-1,32
 561 636 561 636 575 604 c 128,-1,33
 589 572 589 572 589 538 c 0,34,35
 589 421 589 421 519 354.5 c 128,-1,36
 449 288 449 288 325 264 c 0,37,38
 275 254 275 254 238 241 c 128,-1,39
 201 228 201 228 174.5 210 c 128,-1,40
 148 192 148 192 131.5 167 c 128,-1,41
 115 142 115 142 107 108 c 2,42,-1
 100 78 l 1,43,-1
 489 78 l 1,0,-1
EndSplineSet
Substitution2: "Single Substitution lookup 35 subtable" uni2082
Substitution2: "'onum' Oldstyle Figures in Latin lookup 25 subtable" two.tosn
Substitution2: "'onum' Oldstyle Figures in Latin lookup 24 subtable" two.tosn
Substitution2: "'dnom' Denominators in Latin lookup 23 subtable" uni2082
Substitution2: "'dnom' Denominators in Latin lookup 22 subtable" uni2082
Substitution2: "'numr' Numerators in Latin lookup 21 subtable" twosuperior
Substitution2: "'numr' Numerators in Latin lookup 20 subtable" twosuperior
Substitution2: "'sinf' Scientific Inferiors in Latin lookup 19 subtable" uni2082
Substitution2: "'sinf' Scientific Inferiors in Latin lookup 18 subtable" uni2082
Substitution2: "'sups' Superscript in Latin lookup 17 subtable" twosuperior
Substitution2: "'sups' Superscript in Latin lookup 16 subtable" twosuperior
Substitution2: "'subs' Subscript in Latin lookup 15 subtable" uni2082
Substitution2: "'subs' Subscript in Latin lookup 14 subtable" uni2082
AlternateSubs2: "'aalt' Access All Alternates in Latin lookup 1 subtable" two.tosn twosuperior uni2082
EndChar

StartChar: three
Encoding: 51 51 59
Width: 612
Flags: W
LayerCount: 2
Fore
SplineSet
239 348 m 1,0,-1
 239 466 l 1,1,-1
 520 610 l 1,2,-1
 520 622 l 1,3,-1
 145 622 l 1,4,-1
 145 700 l 1,5,-1
 586 700 l 1,6,-1
 586 564 l 1,7,-1
 319 426 l 1,8,-1
 319 414 l 1,9,-1
 361 414 l 2,10,11
 399 414 399 414 430.5 402.5 c 128,-1,12
 462 391 462 391 485 370 c 128,-1,13
 508 349 508 349 521 319 c 128,-1,14
 534 289 534 289 534 252 c 0,15,16
 534 192 534 192 510 143 c 128,-1,17
 486 94 486 94 446 59 c 128,-1,18
 406 24 406 24 353 5 c 128,-1,19
 300 -14 300 -14 242 -14 c 0,20,21
 191 -14 191 -14 151.5 0.5 c 128,-1,22
 112 15 112 15 85.5 40 c 128,-1,23
 59 65 59 65 45.5 99 c 128,-1,24
 32 133 32 133 32 171 c 0,25,26
 32 182 32 182 33.5 194 c 128,-1,27
 35 206 35 206 37 218 c 2,28,-1
 48 272 l 1,29,-1
 132 272 l 1,30,-1
 122 224 l 2,31,32
 120 212 120 212 118.5 201 c 128,-1,33
 117 190 117 190 117 179 c 0,34,35
 117 119 117 119 154 91.5 c 128,-1,36
 191 64 191 64 253 64 c 0,37,38
 298 64 298 64 334 77.5 c 128,-1,39
 370 91 370 91 395.5 115 c 128,-1,40
 421 139 421 139 434.5 171 c 128,-1,41
 448 203 448 203 448 240 c 0,42,43
 448 293 448 293 415.5 320.5 c 128,-1,44
 383 348 383 348 331 348 c 2,45,-1
 239 348 l 1,0,-1
EndSplineSet
Substitution2: "Single Substitution lookup 35 subtable" uni2083
Substitution2: "'onum' Oldstyle Figures in Latin lookup 25 subtable" three.tosn
Substitution2: "'onum' Oldstyle Figures in Latin lookup 24 subtable" three.tosn
Substitution2: "'dnom' Denominators in Latin lookup 23 subtable" uni2083
Substitution2: "'dnom' Denominators in Latin lookup 22 subtable" uni2083
Substitution2: "'numr' Numerators in Latin lookup 21 subtable" threesuperior
Substitution2: "'numr' Numerators in Latin lookup 20 subtable" threesuperior
Substitution2: "'sinf' Scientific Inferiors in Latin lookup 19 subtable" uni2083
Substitution2: "'sinf' Scientific Inferiors in Latin lookup 18 subtable" uni2083
Substitution2: "'sups' Superscript in Latin lookup 17 subtable" threesuperior
Substitution2: "'sups' Superscript in Latin lookup 16 subtable" threesuperior
Substitution2: "'subs' Subscript in Latin lookup 15 subtable" uni2083
Substitution2: "'subs' Subscript in Latin lookup 14 subtable" uni2083
AlternateSubs2: "'aalt' Access All Alternates in Latin lookup 1 subtable" three.tosn threesuperior uni2083
EndChar

StartChar: four
Encoding: 52 52 60
Width: 612
Flags: W
LayerCount: 2
Fore
SplineSet
375 700 m 1,0,-1
 548 700 l 1,1,-1
 444 210 l 1,2,-1
 535 210 l 1,3,-1
 535 132 l 1,4,-1
 427 132 l 1,5,-1
 399 0 l 1,6,-1
 315 0 l 1,7,-1
 343 132 l 1,8,-1
 19 132 l 1,9,-1
 19 264 l 1,10,-1
 375 700 l 1,0,-1
83 222 m 1,11,-1
 83 210 l 1,12,-1
 360 210 l 1,13,-1
 456 664 l 1,14,-1
 444 664 l 1,15,-1
 83 222 l 1,11,-1
EndSplineSet
Substitution2: "Single Substitution lookup 35 subtable" uni2084
Substitution2: "'onum' Oldstyle Figures in Latin lookup 25 subtable" four.tosn
Substitution2: "'onum' Oldstyle Figures in Latin lookup 24 subtable" four.tosn
Substitution2: "'dnom' Denominators in Latin lookup 23 subtable" uni2084
Substitution2: "'dnom' Denominators in Latin lookup 22 subtable" uni2084
Substitution2: "'numr' Numerators in Latin lookup 21 subtable" uni2074
Substitution2: "'numr' Numerators in Latin lookup 20 subtable" uni2074
Substitution2: "'sinf' Scientific Inferiors in Latin lookup 19 subtable" uni2084
Substitution2: "'sinf' Scientific Inferiors in Latin lookup 18 subtable" uni2084
Substitution2: "'sups' Superscript in Latin lookup 17 subtable" uni2074
Substitution2: "'sups' Superscript in Latin lookup 16 subtable" uni2074
Substitution2: "'subs' Subscript in Latin lookup 15 subtable" uni2084
Substitution2: "'subs' Subscript in Latin lookup 14 subtable" uni2084
AlternateSubs2: "'aalt' Access All Alternates in Latin lookup 1 subtable" four.tosn uni2074 uni2084
EndChar

StartChar: five
Encoding: 53 53 61
Width: 612
Flags: W
LayerCount: 2
Fore
SplineSet
73 330 m 1,0,-1
 151 700 l 1,1,-1
 573 700 l 1,2,-1
 573 622 l 1,3,-1
 217 622 l 1,4,-1
 164 372 l 1,5,-1
 176 372 l 1,6,7
 188 392 188 392 205 410.5 c 128,-1,8
 222 429 222 429 244.5 443 c 128,-1,9
 267 457 267 457 296.5 465.5 c 128,-1,10
 326 474 326 474 364 474 c 0,11,12
 403 474 403 474 436.5 461 c 128,-1,13
 470 448 470 448 495 424.5 c 128,-1,14
 520 401 520 401 534 369 c 128,-1,15
 548 337 548 337 548 300 c 0,16,17
 548 233 548 233 526.5 175.5 c 128,-1,18
 505 118 505 118 465 76 c 128,-1,19
 425 34 425 34 369 10 c 128,-1,20
 313 -14 313 -14 244 -14 c 0,21,22
 192 -14 192 -14 152.5 0 c 128,-1,23
 113 14 113 14 86 38.5 c 128,-1,24
 59 63 59 63 45.5 96.5 c 128,-1,25
 32 130 32 130 32 170 c 0,26,27
 32 195 32 195 38 224 c 2,28,-1
 44 252 l 1,29,-1
 128 252 l 1,30,-1
 123 230 l 2,31,32
 120 215 120 215 118 202 c 128,-1,33
 116 189 116 189 116 177 c 0,34,35
 116 117 116 117 154 90.5 c 128,-1,36
 192 64 192 64 256 64 c 0,37,38
 301 64 301 64 338.5 83 c 128,-1,39
 376 102 376 102 403.5 133 c 128,-1,40
 431 164 431 164 446 203.5 c 128,-1,41
 461 243 461 243 461 283 c 0,42,43
 461 332 461 332 430.5 364 c 128,-1,44
 400 396 400 396 344 396 c 0,45,46
 322 396 322 396 304 390 c 128,-1,47
 286 384 286 384 272 374.5 c 128,-1,48
 258 365 258 365 248 353 c 128,-1,49
 238 341 238 341 232 330 c 1,50,-1
 73 330 l 1,0,-1
EndSplineSet
Substitution2: "Single Substitution lookup 35 subtable" uni2085
Substitution2: "'onum' Oldstyle Figures in Latin lookup 25 subtable" five.tosn
Substitution2: "'onum' Oldstyle Figures in Latin lookup 24 subtable" five.tosn
Substitution2: "'dnom' Denominators in Latin lookup 23 subtable" uni2085
Substitution2: "'dnom' Denominators in Latin lookup 22 subtable" uni2085
Substitution2: "'numr' Numerators in Latin lookup 21 subtable" uni2075
Substitution2: "'numr' Numerators in Latin lookup 20 subtable" uni2075
Substitution2: "'sinf' Scientific Inferiors in Latin lookup 19 subtable" uni2085
Substitution2: "'sinf' Scientific Inferiors in Latin lookup 18 subtable" uni2085
Substitution2: "'sups' Superscript in Latin lookup 17 subtable" uni2075
Substitution2: "'sups' Superscript in Latin lookup 16 subtable" uni2075
Substitution2: "'subs' Subscript in Latin lookup 15 subtable" uni2085
Substitution2: "'subs' Subscript in Latin lookup 14 subtable" uni2085
AlternateSubs2: "'aalt' Access All Alternates in Latin lookup 1 subtable" five.tosn uni2075 uni2085
EndChar

StartChar: six
Encoding: 54 54 62
Width: 612
Flags: W
LayerCount: 2
Fore
SplineSet
486 496 m 1,0,1
 490 515 490 515 490 535 c 0,2,3
 490 586 490 586 457.5 613 c 128,-1,4
 425 640 425 640 365 640 c 0,5,6
 331 640 331 640 300 628 c 128,-1,7
 269 616 269 616 244 593.5 c 128,-1,8
 219 571 219 571 200.5 540 c 128,-1,9
 182 509 182 509 174 472 c 2,10,-1
 153 374 l 1,11,-1
 165 374 l 1,12,13
 194 415 194 415 240.5 438.5 c 128,-1,14
 287 462 287 462 344 462 c 0,15,16
 383 462 383 462 417 450 c 128,-1,17
 451 438 451 438 476.5 415.5 c 128,-1,18
 502 393 502 393 516.5 360.5 c 128,-1,19
 531 328 531 328 531 288 c 0,20,21
 531 224 531 224 511.5 169 c 128,-1,22
 492 114 492 114 454.5 73.5 c 128,-1,23
 417 33 417 33 361.5 9.5 c 128,-1,24
 306 -14 306 -14 234 -14 c 0,25,26
 189 -14 189 -14 152 0 c 128,-1,27
 115 14 115 14 88.5 39 c 128,-1,28
 62 64 62 64 47 98.5 c 128,-1,29
 32 133 32 133 32 174 c 0,30,31
 32 186 32 186 33.5 197.5 c 128,-1,32
 35 209 35 209 37 222 c 2,33,-1
 90 472 l 2,34,35
 103 533 103 533 130 578.5 c 128,-1,36
 157 624 157 624 194.5 654 c 128,-1,37
 232 684 232 684 278.5 699 c 128,-1,38
 325 714 325 714 378 714 c 0,39,40
 422 714 422 714 458.5 701.5 c 128,-1,41
 495 689 495 689 521 666 c 128,-1,42
 547 643 547 643 561 611.5 c 128,-1,43
 575 580 575 580 575 543 c 0,44,45
 575 532 575 532 574 520 c 128,-1,46
 573 508 573 508 570 496 c 1,47,-1
 486 496 l 1,0,1
246 60 m 0,48,49
 288 60 288 60 324.5 76 c 128,-1,50
 361 92 361 92 387.5 120.5 c 128,-1,51
 414 149 414 149 429.5 186.5 c 128,-1,52
 445 224 445 224 445 268 c 0,53,54
 445 325 445 325 412 356.5 c 128,-1,55
 379 388 379 388 316 388 c 0,56,57
 275 388 275 388 239 371.5 c 128,-1,58
 203 355 203 355 175.5 327 c 128,-1,59
 148 299 148 299 132 261.5 c 128,-1,60
 116 224 116 224 116 182 c 0,61,62
 116 123 116 123 150.5 91.5 c 128,-1,63
 185 60 185 60 246 60 c 0,48,49
EndSplineSet
Substitution2: "Single Substitution lookup 35 subtable" uni2086
Substitution2: "'onum' Oldstyle Figures in Latin lookup 25 subtable" six.tosn
Substitution2: "'onum' Oldstyle Figures in Latin lookup 24 subtable" six.tosn
Substitution2: "'dnom' Denominators in Latin lookup 23 subtable" uni2086
Substitution2: "'dnom' Denominators in Latin lookup 22 subtable" uni2086
Substitution2: "'numr' Numerators in Latin lookup 21 subtable" uni2076
Substitution2: "'numr' Numerators in Latin lookup 20 subtable" uni2076
Substitution2: "'sinf' Scientific Inferiors in Latin lookup 19 subtable" uni2086
Substitution2: "'sinf' Scientific Inferiors in Latin lookup 18 subtable" uni2086
Substitution2: "'sups' Superscript in Latin lookup 17 subtable" uni2076
Substitution2: "'sups' Superscript in Latin lookup 16 subtable" uni2076
Substitution2: "'subs' Subscript in Latin lookup 15 subtable" uni2086
Substitution2: "'subs' Subscript in Latin lookup 14 subtable" uni2086
AlternateSubs2: "'aalt' Access All Alternates in Latin lookup 1 subtable" six.tosn uni2076 uni2086
EndChar

StartChar: seven
Encoding: 55 55 63
Width: 612
Flags: W
LayerCount: 2
Fore
SplineSet
119 700 m 1,0,-1
 604 700 l 1,1,-1
 604 562 l 1,2,-1
 199 132 l 2,3,4
 170 101 170 101 154 78 c 128,-1,5
 138 55 138 55 133 26 c 2,6,-1
 128 0 l 1,7,-1
 37 0 l 1,8,-1
 43 36 l 2,9,10
 49 72 49 72 70.5 103.5 c 128,-1,11
 92 135 92 135 134 180 c 2,12,-1
 538 610 l 1,13,-1
 538 622 l 1,14,-1
 119 622 l 1,15,-1
 119 700 l 1,0,-1
EndSplineSet
Substitution2: "Single Substitution lookup 35 subtable" uni2087
Substitution2: "'onum' Oldstyle Figures in Latin lookup 25 subtable" seven.tosn
Substitution2: "'onum' Oldstyle Figures in Latin lookup 24 subtable" seven.tosn
Substitution2: "'dnom' Denominators in Latin lookup 23 subtable" uni2087
Substitution2: "'dnom' Denominators in Latin lookup 22 subtable" uni2087
Substitution2: "'numr' Numerators in Latin lookup 21 subtable" uni2077
Substitution2: "'numr' Numerators in Latin lookup 20 subtable" uni2077
Substitution2: "'sinf' Scientific Inferiors in Latin lookup 19 subtable" uni2087
Substitution2: "'sinf' Scientific Inferiors in Latin lookup 18 subtable" uni2087
Substitution2: "'sups' Superscript in Latin lookup 17 subtable" uni2077
Substitution2: "'sups' Superscript in Latin lookup 16 subtable" uni2077
Substitution2: "'subs' Subscript in Latin lookup 15 subtable" uni2087
Substitution2: "'subs' Subscript in Latin lookup 14 subtable" uni2087
AlternateSubs2: "'aalt' Access All Alternates in Latin lookup 1 subtable" seven.tosn uni2077 uni2087
EndChar

StartChar: eight
Encoding: 56 56 64
Width: 612
Flags: W
LayerCount: 2
Fore
SplineSet
226 -14 m 0,0,1
 177 -14 177 -14 138.5 -2.5 c 128,-1,2
 100 9 100 9 73 30 c 128,-1,3
 46 51 46 51 32 80 c 128,-1,4
 18 109 18 109 18 144 c 0,5,6
 18 186 18 186 31.5 221.5 c 128,-1,7
 45 257 45 257 68 284 c 128,-1,8
 91 311 91 311 123 329.5 c 128,-1,9
 155 348 155 348 193 357 c 1,10,-1
 193 369 l 1,11,12
 160 382 160 382 134.5 412.5 c 128,-1,13
 109 443 109 443 109 488 c 0,14,15
 109 540 109 540 130 581.5 c 128,-1,16
 151 623 151 623 187 652.5 c 128,-1,17
 223 682 223 682 271.5 698 c 128,-1,18
 320 714 320 714 376 714 c 0,19,20
 420 714 420 714 456 703 c 128,-1,21
 492 692 492 692 517 672.5 c 128,-1,22
 542 653 542 653 555.5 625.5 c 128,-1,23
 569 598 569 598 569 566 c 0,24,25
 569 531 569 531 558.5 500 c 128,-1,26
 548 469 548 469 528.5 443 c 128,-1,27
 509 417 509 417 480.5 398 c 128,-1,28
 452 379 452 379 416 369 c 1,29,-1
 416 357 l 1,30,31
 435 351 435 351 452.5 340 c 128,-1,32
 470 329 470 329 483.5 313 c 128,-1,33
 497 297 497 297 505.5 275.5 c 128,-1,34
 514 254 514 254 514 228 c 0,35,36
 514 170 514 170 492.5 125 c 128,-1,37
 471 80 471 80 432.5 49 c 128,-1,38
 394 18 394 18 341 2 c 128,-1,39
 288 -14 288 -14 226 -14 c 0,0,1
240 62 m 0,40,41
 276 62 276 62 310 72 c 128,-1,42
 344 82 344 82 371 102.5 c 128,-1,43
 398 123 398 123 414 153 c 128,-1,44
 430 183 430 183 430 223 c 0,45,46
 430 274 430 274 394.5 299 c 128,-1,47
 359 324 359 324 296 324 c 0,48,49
 259 324 259 324 225 313.5 c 128,-1,50
 191 303 191 303 164.5 282.5 c 128,-1,51
 138 262 138 262 122 231.5 c 128,-1,52
 106 201 106 201 106 161 c 0,53,54
 106 113 106 113 141.5 87.5 c 128,-1,55
 177 62 177 62 240 62 c 0,40,41
313 402 m 0,56,57
 345 402 345 402 375.5 412 c 128,-1,58
 406 422 406 422 429.5 440.5 c 128,-1,59
 453 459 453 459 467.5 486 c 128,-1,60
 482 513 482 513 482 547 c 0,61,62
 482 590 482 590 450.5 614 c 128,-1,63
 419 638 419 638 363 638 c 0,64,65
 332 638 332 638 301.5 628.5 c 128,-1,66
 271 619 271 619 247 601 c 128,-1,67
 223 583 223 583 208.5 556.5 c 128,-1,68
 194 530 194 530 194 496 c 0,69,70
 194 453 194 453 226 427.5 c 128,-1,71
 258 402 258 402 313 402 c 0,56,57
EndSplineSet
Substitution2: "Single Substitution lookup 35 subtable" uni2088
Substitution2: "'onum' Oldstyle Figures in Latin lookup 25 subtable" eight.tosn
Substitution2: "'onum' Oldstyle Figures in Latin lookup 24 subtable" eight.tosn
Substitution2: "'dnom' Denominators in Latin lookup 23 subtable" uni2088
Substitution2: "'dnom' Denominators in Latin lookup 22 subtable" uni2088
Substitution2: "'numr' Numerators in Latin lookup 21 subtable" uni2078
Substitution2: "'numr' Numerators in Latin lookup 20 subtable" uni2078
Substitution2: "'sinf' Scientific Inferiors in Latin lookup 19 subtable" uni2088
Substitution2: "'sinf' Scientific Inferiors in Latin lookup 18 subtable" uni2088
Substitution2: "'sups' Superscript in Latin lookup 17 subtable" uni2078
Substitution2: "'sups' Superscript in Latin lookup 16 subtable" uni2078
Substitution2: "'subs' Subscript in Latin lookup 15 subtable" uni2088
Substitution2: "'subs' Subscript in Latin lookup 14 subtable" uni2088
AlternateSubs2: "'aalt' Access All Alternates in Latin lookup 1 subtable" eight.tosn uni2078 uni2088
EndChar

StartChar: nine
Encoding: 57 57 65
Width: 612
Flags: W
LayerCount: 2
Fore
SplineSet
123 204 m 1,0,1
 118 181 118 181 118 164 c 0,2,3
 118 114 118 114 150.5 87 c 128,-1,4
 183 60 183 60 244 60 c 0,5,6
 278 60 278 60 309 72 c 128,-1,7
 340 84 340 84 365 106.5 c 128,-1,8
 390 129 390 129 408.5 159.5 c 128,-1,9
 427 190 427 190 435 228 c 2,10,-1
 456 326 l 1,11,-1
 444 326 l 1,12,13
 417 285 417 285 371.5 261.5 c 128,-1,14
 326 238 326 238 266 238 c 0,15,16
 226 238 226 238 192 250.5 c 128,-1,17
 158 263 158 263 132.5 286 c 128,-1,18
 107 309 107 309 92.5 341.5 c 128,-1,19
 78 374 78 374 78 414 c 0,20,21
 78 477 78 477 98.5 531.5 c 128,-1,22
 119 586 119 586 157 626.5 c 128,-1,23
 195 667 195 667 249.5 690.5 c 128,-1,24
 304 714 304 714 372 714 c 0,25,26
 417 714 417 714 455 700 c 128,-1,27
 493 686 493 686 520 661 c 128,-1,28
 547 636 547 636 562 601.5 c 128,-1,29
 577 567 577 567 577 526 c 0,30,31
 577 506 577 506 572 478 c 2,32,-1
 519 228 l 2,33,34
 506 166 506 166 479.5 120.5 c 128,-1,35
 453 75 453 75 416 45 c 128,-1,36
 379 15 379 15 332.5 0.5 c 128,-1,37
 286 -14 286 -14 232 -14 c 0,38,39
 187 -14 187 -14 150 -1.5 c 128,-1,40
 113 11 113 11 87 33.5 c 128,-1,41
 61 56 61 56 47 87.5 c 128,-1,42
 33 119 33 119 33 156 c 0,43,44
 33 178 33 178 39 204 c 1,45,-1
 123 204 l 1,0,1
363 640 m 0,46,47
 321 640 321 640 284.5 624 c 128,-1,48
 248 608 248 608 221.5 579.5 c 128,-1,49
 195 551 195 551 179.5 513 c 128,-1,50
 164 475 164 475 164 432 c 0,51,52
 164 375 164 375 197 343.5 c 128,-1,53
 230 312 230 312 293 312 c 0,54,55
 333 312 333 312 369.5 328.5 c 128,-1,56
 406 345 406 345 433.5 373 c 128,-1,57
 461 401 461 401 477 438.5 c 128,-1,58
 493 476 493 476 493 518 c 0,59,60
 493 577 493 577 458.5 608.5 c 128,-1,61
 424 640 424 640 363 640 c 0,46,47
EndSplineSet
Substitution2: "Single Substitution lookup 35 subtable" uni2089
Substitution2: "'onum' Oldstyle Figures in Latin lookup 25 subtable" nine.tosn
Substitution2: "'onum' Oldstyle Figures in Latin lookup 24 subtable" nine.tosn
Substitution2: "'dnom' Denominators in Latin lookup 23 subtable" uni2089
Substitution2: "'dnom' Denominators in Latin lookup 22 subtable" uni2089
Substitution2: "'numr' Numerators in Latin lookup 21 subtable" uni2079
Substitution2: "'numr' Numerators in Latin lookup 20 subtable" uni2079
Substitution2: "'sinf' Scientific Inferiors in Latin lookup 19 subtable" uni2089
Substitution2: "'sinf' Scientific Inferiors in Latin lookup 18 subtable" uni2089
Substitution2: "'sups' Superscript in Latin lookup 17 subtable" uni2079
Substitution2: "'sups' Superscript in Latin lookup 16 subtable" uni2079
Substitution2: "'subs' Subscript in Latin lookup 15 subtable" uni2089
Substitution2: "'subs' Subscript in Latin lookup 14 subtable" uni2089
AlternateSubs2: "'aalt' Access All Alternates in Latin lookup 1 subtable" nine.tosn uni2079 uni2089
EndChar

StartChar: bracketleft
Encoding: 91 91 66
Width: 612
Flags: W
LayerCount: 2
Fore
SplineSet
358 778 m 2,0,1
 366 814 366 814 390 835 c 128,-1,2
 414 856 414 856 452 856 c 2,3,-1
 534 856 l 1,4,-1
 534 784 l 1,5,-1
 465 784 l 2,6,7
 437 784 437 784 431 754 c 2,8,-1
 254 -54 l 2,9,10
 253 -57 253 -57 253 -61 c 2,11,-1
 253 -64 l 2,12,13
 253 -84 253 -84 276 -84 c 2,14,-1
 343 -84 l 1,15,-1
 343 -156 l 1,16,-1
 254 -156 l 2,17,18
 218 -156 218 -156 195 -138.5 c 128,-1,19
 172 -121 172 -121 172 -86 c 0,20,21
 172 -74 172 -74 175 -60 c 2,22,-1
 358 778 l 2,0,1
EndSplineSet
EndChar

StartChar: bracketright
Encoding: 93 93 67
Width: 612
Flags: W
LayerCount: 2
Fore
SplineSet
257 -78 m 2,0,1
 249 -114 249 -114 225 -135 c 128,-1,2
 201 -156 201 -156 163 -156 c 2,3,-1
 81 -156 l 1,4,-1
 81 -84 l 1,5,-1
 150 -84 l 2,6,7
 178 -84 178 -84 184 -54 c 2,8,-1
 361 754 l 2,9,10
 361 756 361 756 361.5 757.5 c 128,-1,11
 362 759 362 759 362 761 c 2,12,-1
 362 764 l 2,13,14
 362 784 362 784 339 784 c 2,15,-1
 272 784 l 1,16,-1
 272 856 l 1,17,-1
 361 856 l 2,18,19
 397 856 397 856 420 838.5 c 128,-1,20
 443 821 443 821 443 786 c 0,21,22
 443 773 443 773 440 760 c 2,23,-1
 257 -78 l 2,0,1
EndSplineSet
EndChar

StartChar: braceleft
Encoding: 123 123 68
Width: 612
Flags: W
LayerCount: 2
Fore
SplineSet
373 778 m 2,0,1
 381 816 381 816 404 836 c 128,-1,2
 427 856 427 856 467 856 c 2,3,-1
 549 856 l 1,4,-1
 549 784 l 1,5,-1
 480 784 l 2,6,7
 452 784 452 784 446 754 c 2,8,-1
 376 434 l 2,9,10
 368 398 368 398 344 377 c 128,-1,11
 320 356 320 356 282 356 c 2,12,-1
 267 356 l 1,13,-1
 267 344 l 1,14,-1
 279 344 l 2,15,16
 306 344 306 344 323 328 c 128,-1,17
 340 312 340 312 340 283 c 0,18,19
 340 278 340 278 340 274 c 128,-1,20
 340 270 340 270 338 262 c 2,21,-1
 269 -55 l 2,22,23
 268 -60 268 -60 268 -64 c 0,24,25
 268 -84 268 -84 293 -84 c 2,26,-1
 358 -84 l 1,27,-1
 358 -156 l 1,28,-1
 272 -156 l 2,29,30
 236 -156 236 -156 212 -138.5 c 128,-1,31
 188 -121 188 -121 188 -83 c 0,32,33
 188 -75 188 -75 188.5 -68.5 c 128,-1,34
 189 -62 189 -62 191 -54 c 2,35,-1
 261 267 l 2,36,37
 262 272 262 272 262 277 c 0,38,39
 262 296 262 296 240 296 c 2,40,-1
 201 296 l 1,41,-1
 201 404 l 1,42,-1
 265 404 l 2,43,44
 292 404 292 404 298 433 c 2,45,-1
 373 778 l 2,0,1
EndSplineSet
EndChar

StartChar: braceright
Encoding: 125 125 69
Width: 612
Flags: W
LayerCount: 2
Fore
SplineSet
239 -78 m 2,0,1
 231 -116 231 -116 208 -136 c 128,-1,2
 185 -156 185 -156 145 -156 c 2,3,-1
 63 -156 l 1,4,-1
 63 -84 l 1,5,-1
 132 -84 l 2,6,7
 160 -84 160 -84 166 -54 c 2,8,-1
 236 266 l 2,9,10
 244 302 244 302 268 323 c 128,-1,11
 292 344 292 344 330 344 c 2,12,-1
 345 344 l 1,13,-1
 345 356 l 1,14,-1
 333 356 l 2,15,16
 306 356 306 356 289 372 c 128,-1,17
 272 388 272 388 272 417 c 0,18,19
 272 422 272 422 272 426 c 128,-1,20
 272 430 272 430 274 438 c 2,21,-1
 343 755 l 2,22,23
 344 760 344 760 344 764 c 0,24,25
 344 784 344 784 319 784 c 2,26,-1
 254 784 l 1,27,-1
 254 856 l 1,28,-1
 340 856 l 2,29,30
 376 856 376 856 400 838.5 c 128,-1,31
 424 821 424 821 424 783 c 0,32,33
 424 775 424 775 423.5 768.5 c 128,-1,34
 423 762 423 762 421 754 c 2,35,-1
 351 433 l 2,36,37
 350 428 350 428 350 423 c 0,38,39
 350 404 350 404 372 404 c 2,40,-1
 411 404 l 1,41,-1
 411 296 l 1,42,-1
 347 296 l 2,43,44
 320 296 320 296 314 267 c 2,45,-1
 239 -78 l 2,0,1
EndSplineSet
EndChar

StartChar: parenleft
Encoding: 40 40 70
Width: 612
Flags: W
LayerCount: 2
Fore
SplineSet
413 -82 m 1,0,-1
 413 -156 l 1,1,-1
 361 -156 l 2,2,3
 301 -156 301 -156 249.5 -136.5 c 128,-1,4
 198 -117 198 -117 159.5 -80.5 c 128,-1,5
 121 -44 121 -44 99.5 10 c 128,-1,6
 78 64 78 64 78 133 c 0,7,8
 78 180 78 180 90 236 c 2,9,-1
 145 494 l 2,10,11
 166 592 166 592 204.5 661 c 128,-1,12
 243 730 243 730 297.5 773.5 c 128,-1,13
 352 817 352 817 421.5 836.5 c 128,-1,14
 491 856 491 856 574 856 c 2,15,-1
 612 856 l 1,16,-1
 612 782 l 1,17,-1
 566 782 l 2,18,19
 504 782 504 782 448.5 767 c 128,-1,20
 393 752 393 752 348 716 c 128,-1,21
 303 680 303 680 270 620.5 c 128,-1,22
 237 561 237 561 218 472 c 2,23,-1
 167 228 l 2,24,25
 157 182 157 182 157 139 c 0,26,27
 157 83 157 83 173.5 42 c 128,-1,28
 190 1 190 1 219.5 -27 c 128,-1,29
 249 -55 249 -55 289 -68.5 c 128,-1,30
 329 -82 329 -82 377 -82 c 2,31,-1
 413 -82 l 1,0,-1
EndSplineSet
EndChar

StartChar: parenright
Encoding: 41 41 71
Width: 612
Flags: W
LayerCount: 2
Fore
SplineSet
199 782 m 1,0,-1
 199 856 l 1,1,-1
 251 856 l 2,2,3
 311 856 311 856 362.5 836.5 c 128,-1,4
 414 817 414 817 452.5 780.5 c 128,-1,5
 491 744 491 744 512.5 690 c 128,-1,6
 534 636 534 636 534 567 c 0,7,8
 534 519 534 519 522 464 c 2,9,-1
 467 206 l 2,10,11
 446 108 446 108 407.5 39 c 128,-1,12
 369 -30 369 -30 314.5 -73.5 c 128,-1,13
 260 -117 260 -117 190.5 -136.5 c 128,-1,14
 121 -156 121 -156 38 -156 c 2,15,-1
 0 -156 l 1,16,-1
 0 -82 l 1,17,-1
 46 -82 l 2,18,19
 108 -82 108 -82 163 -67 c 128,-1,20
 218 -52 218 -52 263 -16 c 128,-1,21
 308 20 308 20 341.5 79.5 c 128,-1,22
 375 139 375 139 394 228 c 2,23,-1
 445 472 l 2,24,25
 455 518 455 518 455 561 c 0,26,27
 455 616 455 616 438.5 657.5 c 128,-1,28
 422 699 422 699 392.5 727 c 128,-1,29
 363 755 363 755 323 768.5 c 128,-1,30
 283 782 283 782 235 782 c 2,31,-1
 199 782 l 1,0,-1
EndSplineSet
EndChar

StartChar: slash
Encoding: 47 47 72
Width: 612
Flags: W
LayerCount: 2
Fore
SplineSet
513 806 m 1,0,-1
 573 772 l 1,1,-1
 99 -106 l 1,2,-1
 39 -71 l 1,3,-1
 513 806 l 1,0,-1
EndSplineSet
Substitution2: "Single Substitution lookup 32 subtable" fraction
Substitution2: "'aalt' Access All Alternates in Latin lookup 0 subtable" fraction
EndChar

StartChar: bar
Encoding: 124 124 73
Width: 612
Flags: W
LayerCount: 2
Fore
SplineSet
232 -156 m 1,0,-1
 158 -156 l 1,1,-1
 382 856 l 1,2,-1
 456 856 l 1,3,-1
 232 -156 l 1,0,-1
EndSplineSet
EndChar

StartChar: brokenbar
Encoding: 166 166 74
Width: 612
Flags: W
LayerCount: 2
Fore
SplineSet
336 314 m 1,0,-1
 232 -156 l 1,1,-1
 158 -156 l 1,2,-1
 262 314 l 1,3,-1
 336 314 l 1,0,-1
278 386 m 1,4,-1
 382 856 l 1,5,-1
 456 856 l 1,6,-1
 352 386 l 1,7,-1
 278 386 l 1,4,-1
EndSplineSet
EndChar

StartChar: backslash
Encoding: 92 92 75
Width: 612
Flags: W
LayerCount: 2
Fore
SplineSet
397 -97 m 1,0,-1
 324 -106 l 1,1,-1
 220 797 l 1,2,-1
 292 806 l 1,3,-1
 397 -97 l 1,0,-1
EndSplineSet
EndChar

StartChar: quotesingle
Encoding: 39 39 76
Width: 612
Flags: W
LayerCount: 2
Fore
SplineSet
292 644 m 0,0,1
 292 673 292 673 312.5 693.5 c 128,-1,2
 333 714 333 714 362 714 c 256,3,4
 391 714 391 714 411.5 693.5 c 128,-1,5
 432 673 432 673 432 644 c 0,6,7
 432 619 432 619 416 599.5 c 128,-1,8
 400 580 400 580 376 575 c 1,9,-1
 353 468 l 1,10,-1
 300 479 l 1,11,-1
 324 585 l 1,12,13
 310 595 310 595 301 610.5 c 128,-1,14
 292 626 292 626 292 644 c 0,0,1
EndSplineSet
EndChar

StartChar: quotedbl
Encoding: 34 34 77
Width: 612
Flags: W
LayerCount: 2
Fore
SplineSet
204 644 m 0,0,1
 204 673 204 673 224.5 693.5 c 128,-1,2
 245 714 245 714 274 714 c 256,3,4
 303 714 303 714 323.5 693.5 c 128,-1,5
 344 673 344 673 344 644 c 0,6,7
 344 619 344 619 328 599.5 c 128,-1,8
 312 580 312 580 288 575 c 1,9,-1
 265 468 l 1,10,-1
 212 479 l 1,11,-1
 236 585 l 1,12,13
 222 595 222 595 213 610.5 c 128,-1,14
 204 626 204 626 204 644 c 0,0,1
386 644 m 0,15,16
 386 673 386 673 406.5 693.5 c 128,-1,17
 427 714 427 714 456 714 c 256,18,19
 485 714 485 714 505.5 693.5 c 128,-1,20
 526 673 526 673 526 644 c 0,21,22
 526 619 526 619 510 599.5 c 128,-1,23
 494 580 494 580 470 575 c 1,24,-1
 447 468 l 1,25,-1
 394 479 l 1,26,-1
 418 585 l 1,27,28
 404 595 404 595 395 610.5 c 128,-1,29
 386 626 386 626 386 644 c 0,15,16
EndSplineSet
EndChar

StartChar: quoteleft
Encoding: 8216 8216 78
Width: 612
Flags: W
LayerCount: 2
Fore
SplineSet
418 538 m 256,0,1
 418 509 418 509 397.5 488.5 c 128,-1,2
 377 468 377 468 348 468 c 256,3,4
 319 468 319 468 298.5 488.5 c 128,-1,5
 278 509 278 509 278 538 c 0,6,7
 278 545 278 545 279 550 c 2,8,-1
 297 636 l 2,9,10
 305 674 305 674 328 694 c 128,-1,11
 351 714 351 714 390 714 c 2,12,-1
 442 714 l 1,13,-1
 442 660 l 1,14,-1
 383 660 l 2,15,16
 355 660 355 660 349 630 c 2,17,-1
 344 608 l 1,18,-1
 348 608 l 2,19,20
 377 608 377 608 397.5 587.5 c 128,-1,21
 418 567 418 567 418 538 c 256,0,1
EndSplineSet
EndChar

StartChar: quoteright
Encoding: 8217 8217 79
Width: 612
Flags: W
LayerCount: 2
Fore
SplineSet
298 644 m 256,0,1
 298 673 298 673 318.5 693.5 c 128,-1,2
 339 714 339 714 368 714 c 256,3,4
 397 714 397 714 417.5 693.5 c 128,-1,5
 438 673 438 673 438 644 c 0,6,7
 438 637 438 637 437 632 c 2,8,-1
 419 546 l 2,9,10
 411 508 411 508 388 488 c 128,-1,11
 365 468 365 468 326 468 c 2,12,-1
 274 468 l 1,13,-1
 274 522 l 1,14,-1
 333 522 l 2,15,16
 361 522 361 522 367 552 c 2,17,-1
 372 574 l 1,18,-1
 368 574 l 2,19,20
 339 574 339 574 318.5 594.5 c 128,-1,21
 298 615 298 615 298 644 c 256,0,1
EndSplineSet
EndChar

StartChar: quotedblleft
Encoding: 8220 8220 80
Width: 612
Flags: W
LayerCount: 2
Fore
SplineSet
332 538 m 256,0,1
 332 509 332 509 311.5 488.5 c 128,-1,2
 291 468 291 468 262 468 c 256,3,4
 233 468 233 468 212.5 488.5 c 128,-1,5
 192 509 192 509 192 538 c 0,6,7
 192 545 192 545 193 550 c 2,8,-1
 211 636 l 2,9,10
 219 674 219 674 242 694 c 128,-1,11
 265 714 265 714 304 714 c 2,12,-1
 356 714 l 1,13,-1
 356 660 l 1,14,-1
 297 660 l 2,15,16
 269 660 269 660 263 630 c 2,17,-1
 258 608 l 1,18,-1
 262 608 l 2,19,20
 291 608 291 608 311.5 587.5 c 128,-1,21
 332 567 332 567 332 538 c 256,0,1
514 538 m 256,22,23
 514 509 514 509 493.5 488.5 c 128,-1,24
 473 468 473 468 444 468 c 256,25,26
 415 468 415 468 394.5 488.5 c 128,-1,27
 374 509 374 509 374 538 c 0,28,29
 374 545 374 545 375 550 c 2,30,-1
 393 636 l 2,31,32
 401 674 401 674 424 694 c 128,-1,33
 447 714 447 714 486 714 c 2,34,-1
 538 714 l 1,35,-1
 538 660 l 1,36,-1
 479 660 l 2,37,38
 451 660 451 660 445 630 c 2,39,-1
 440 608 l 1,40,-1
 444 608 l 2,41,42
 473 608 473 608 493.5 587.5 c 128,-1,43
 514 567 514 567 514 538 c 256,22,23
EndSplineSet
EndChar

StartChar: quotedblright
Encoding: 8221 8221 81
Width: 612
Flags: W
LayerCount: 2
Fore
SplineSet
210 644 m 256,0,1
 210 673 210 673 230.5 693.5 c 128,-1,2
 251 714 251 714 280 714 c 256,3,4
 309 714 309 714 329.5 693.5 c 128,-1,5
 350 673 350 673 350 644 c 0,6,7
 350 637 350 637 349 632 c 2,8,-1
 331 546 l 2,9,10
 323 508 323 508 300 488 c 128,-1,11
 277 468 277 468 238 468 c 2,12,-1
 186 468 l 1,13,-1
 186 522 l 1,14,-1
 245 522 l 2,15,16
 273 522 273 522 279 552 c 2,17,-1
 284 574 l 1,18,-1
 280 574 l 2,19,20
 251 574 251 574 230.5 594.5 c 128,-1,21
 210 615 210 615 210 644 c 256,0,1
392 644 m 256,22,23
 392 673 392 673 412.5 693.5 c 128,-1,24
 433 714 433 714 462 714 c 256,25,26
 491 714 491 714 511.5 693.5 c 128,-1,27
 532 673 532 673 532 644 c 0,28,29
 532 637 532 637 531 632 c 2,30,-1
 513 546 l 2,31,32
 505 508 505 508 482 488 c 128,-1,33
 459 468 459 468 420 468 c 2,34,-1
 368 468 l 1,35,-1
 368 522 l 1,36,-1
 427 522 l 2,37,38
 455 522 455 522 461 552 c 2,39,-1
 466 574 l 1,40,-1
 462 574 l 2,41,42
 433 574 433 574 412.5 594.5 c 128,-1,43
 392 615 392 615 392 644 c 256,22,23
EndSplineSet
EndChar

StartChar: quotesinglbase
Encoding: 8218 8218 82
Width: 612
Flags: W
LayerCount: 2
Fore
SplineSet
198 70 m 256,0,1
 198 99 198 99 218.5 119.5 c 128,-1,2
 239 140 239 140 268 140 c 256,3,4
 297 140 297 140 317.5 119.5 c 128,-1,5
 338 99 338 99 338 70 c 0,6,7
 338 63 338 63 337 58 c 2,8,-1
 319 -28 l 2,9,10
 311 -66 311 -66 288 -86 c 128,-1,11
 265 -106 265 -106 226 -106 c 2,12,-1
 174 -106 l 1,13,-1
 174 -52 l 1,14,-1
 233 -52 l 2,15,16
 261 -52 261 -52 267 -22 c 2,17,-1
 272 0 l 1,18,-1
 268 0 l 2,19,20
 239 0 239 0 218.5 20.5 c 128,-1,21
 198 41 198 41 198 70 c 256,0,1
EndSplineSet
EndChar

StartChar: quotedblbase
Encoding: 8222 8222 83
Width: 612
Flags: W
LayerCount: 2
Fore
SplineSet
90 70 m 256,0,1
 90 99 90 99 110.5 119.5 c 128,-1,2
 131 140 131 140 160 140 c 256,3,4
 189 140 189 140 209.5 119.5 c 128,-1,5
 230 99 230 99 230 70 c 0,6,7
 230 63 230 63 229 58 c 2,8,-1
 211 -28 l 2,9,10
 203 -66 203 -66 180 -86 c 128,-1,11
 157 -106 157 -106 118 -106 c 2,12,-1
 66 -106 l 1,13,-1
 66 -52 l 1,14,-1
 125 -52 l 2,15,16
 153 -52 153 -52 159 -22 c 2,17,-1
 164 0 l 1,18,-1
 160 0 l 2,19,20
 131 0 131 0 110.5 20.5 c 128,-1,21
 90 41 90 41 90 70 c 256,0,1
272 70 m 256,22,23
 272 99 272 99 292.5 119.5 c 128,-1,24
 313 140 313 140 342 140 c 256,25,26
 371 140 371 140 391.5 119.5 c 128,-1,27
 412 99 412 99 412 70 c 0,28,29
 412 63 412 63 411 58 c 2,30,-1
 393 -28 l 2,31,32
 385 -66 385 -66 362 -86 c 128,-1,33
 339 -106 339 -106 300 -106 c 2,34,-1
 248 -106 l 1,35,-1
 248 -52 l 1,36,-1
 307 -52 l 2,37,38
 335 -52 335 -52 341 -22 c 2,39,-1
 346 0 l 1,40,-1
 342 0 l 2,41,42
 313 0 313 0 292.5 20.5 c 128,-1,43
 272 41 272 41 272 70 c 256,22,23
EndSplineSet
EndChar

StartChar: period
Encoding: 46 46 84
Width: 612
Flags: W
LayerCount: 2
Fore
SplineSet
186 56 m 256,0,1
 186 85 186 85 206.5 105.5 c 128,-1,2
 227 126 227 126 256 126 c 256,3,4
 285 126 285 126 305.5 105.5 c 128,-1,5
 326 85 326 85 326 56 c 256,6,7
 326 27 326 27 305.5 6.5 c 128,-1,8
 285 -14 285 -14 256 -14 c 256,9,10
 227 -14 227 -14 206.5 6.5 c 128,-1,11
 186 27 186 27 186 56 c 256,0,1
EndSplineSet
EndChar

StartChar: comma
Encoding: 44 44 85
Width: 612
Flags: W
LayerCount: 2
Fore
SplineSet
192 56 m 256,0,1
 192 85 192 85 212.5 105.5 c 128,-1,2
 233 126 233 126 262 126 c 256,3,4
 291 126 291 126 311.5 105.5 c 128,-1,5
 332 85 332 85 332 56 c 0,6,7
 332 49 332 49 331 44 c 2,8,-1
 313 -42 l 2,9,10
 305 -80 305 -80 282 -100 c 128,-1,11
 259 -120 259 -120 220 -120 c 2,12,-1
 168 -120 l 1,13,-1
 168 -66 l 1,14,-1
 227 -66 l 2,15,16
 255 -66 255 -66 261 -36 c 2,17,-1
 266 -14 l 1,18,-1
 262 -14 l 2,19,20
 233 -14 233 -14 212.5 6.5 c 128,-1,21
 192 27 192 27 192 56 c 256,0,1
EndSplineSet
EndChar

StartChar: colon
Encoding: 58 58 86
Width: 612
Flags: W
LayerCount: 2
Fore
SplineSet
178 56 m 256,0,1
 178 85 178 85 198.5 105.5 c 128,-1,2
 219 126 219 126 248 126 c 256,3,4
 277 126 277 126 297.5 105.5 c 128,-1,5
 318 85 318 85 318 56 c 256,6,7
 318 27 318 27 297.5 6.5 c 128,-1,8
 277 -14 277 -14 248 -14 c 256,9,10
 219 -14 219 -14 198.5 6.5 c 128,-1,11
 178 27 178 27 178 56 c 256,0,1
262 440 m 256,12,13
 262 469 262 469 282.5 489.5 c 128,-1,14
 303 510 303 510 332 510 c 256,15,16
 361 510 361 510 381.5 489.5 c 128,-1,17
 402 469 402 469 402 440 c 256,18,19
 402 411 402 411 381.5 390.5 c 128,-1,20
 361 370 361 370 332 370 c 256,21,22
 303 370 303 370 282.5 390.5 c 128,-1,23
 262 411 262 411 262 440 c 256,12,13
EndSplineSet
EndChar

StartChar: semicolon
Encoding: 59 59 87
Width: 612
Flags: W
LayerCount: 2
Fore
SplineSet
262 440 m 256,0,1
 262 469 262 469 282.5 489.5 c 128,-1,2
 303 510 303 510 332 510 c 256,3,4
 361 510 361 510 381.5 489.5 c 128,-1,5
 402 469 402 469 402 440 c 256,6,7
 402 411 402 411 381.5 390.5 c 128,-1,8
 361 370 361 370 332 370 c 256,9,10
 303 370 303 370 282.5 390.5 c 128,-1,11
 262 411 262 411 262 440 c 256,0,1
178 56 m 256,12,13
 178 85 178 85 198.5 105.5 c 128,-1,14
 219 126 219 126 248 126 c 256,15,16
 277 126 277 126 297.5 105.5 c 128,-1,17
 318 85 318 85 318 56 c 0,18,19
 318 49 318 49 317 44 c 2,20,-1
 299 -42 l 2,21,22
 291 -80 291 -80 268 -100 c 128,-1,23
 245 -120 245 -120 206 -120 c 2,24,-1
 154 -120 l 1,25,-1
 154 -66 l 1,26,-1
 213 -66 l 2,27,28
 241 -66 241 -66 247 -36 c 2,29,-1
 252 -14 l 1,30,-1
 248 -14 l 2,31,32
 219 -14 219 -14 198.5 6.5 c 128,-1,33
 178 27 178 27 178 56 c 256,12,13
EndSplineSet
EndChar

StartChar: ellipsis
Encoding: 8230 8230 88
Width: 612
Flags: W
LayerCount: 2
Fore
SplineSet
60 56 m 256,0,1
 60 85 60 85 80.5 105.5 c 128,-1,2
 101 126 101 126 130 126 c 256,3,4
 159 126 159 126 179.5 105.5 c 128,-1,5
 200 85 200 85 200 56 c 256,6,7
 200 27 200 27 179.5 6.5 c 128,-1,8
 159 -14 159 -14 130 -14 c 256,9,10
 101 -14 101 -14 80.5 6.5 c 128,-1,11
 60 27 60 27 60 56 c 256,0,1
236 56 m 256,12,13
 236 85 236 85 256.5 105.5 c 128,-1,14
 277 126 277 126 306 126 c 256,15,16
 335 126 335 126 355.5 105.5 c 128,-1,17
 376 85 376 85 376 56 c 256,18,19
 376 27 376 27 355.5 6.5 c 128,-1,20
 335 -14 335 -14 306 -14 c 256,21,22
 277 -14 277 -14 256.5 6.5 c 128,-1,23
 236 27 236 27 236 56 c 256,12,13
412 56 m 256,24,25
 412 85 412 85 432.5 105.5 c 128,-1,26
 453 126 453 126 482 126 c 256,27,28
 511 126 511 126 531.5 105.5 c 128,-1,29
 552 85 552 85 552 56 c 256,30,31
 552 27 552 27 531.5 6.5 c 128,-1,32
 511 -14 511 -14 482 -14 c 256,33,34
 453 -14 453 -14 432.5 6.5 c 128,-1,35
 412 27 412 27 412 56 c 256,24,25
EndSplineSet
EndChar

StartChar: exclam
Encoding: 33 33 89
Width: 612
Flags: W
LayerCount: 2
Fore
SplineSet
422 700 m 1,0,-1
 311 186 l 1,1,-1
 231 186 l 1,2,-1
 342 700 l 1,3,-1
 422 700 l 1,0,-1
175 56 m 256,4,5
 175 85 175 85 195.5 105.5 c 128,-1,6
 216 126 216 126 245 126 c 256,7,8
 274 126 274 126 294.5 105.5 c 128,-1,9
 315 85 315 85 315 56 c 256,10,11
 315 27 315 27 294.5 6.5 c 128,-1,12
 274 -14 274 -14 245 -14 c 256,13,14
 216 -14 216 -14 195.5 6.5 c 128,-1,15
 175 27 175 27 175 56 c 256,4,5
EndSplineSet
EndChar

StartChar: exclamdown
Encoding: 161 161 90
Width: 612
Flags: W
LayerCount: 2
Fore
SplineSet
154 -200 m 1,0,-1
 271 314 l 1,1,-1
 351 314 l 1,2,-1
 234 -200 l 1,3,-1
 154 -200 l 1,0,-1
407 444 m 256,4,5
 407 415 407 415 386.5 394.5 c 128,-1,6
 366 374 366 374 337 374 c 256,7,8
 308 374 308 374 287.5 394.5 c 128,-1,9
 267 415 267 415 267 444 c 256,10,11
 267 473 267 473 287.5 493.5 c 128,-1,12
 308 514 308 514 337 514 c 256,13,14
 366 514 366 514 386.5 493.5 c 128,-1,15
 407 473 407 473 407 444 c 256,4,5
EndSplineSet
EndChar

StartChar: question
Encoding: 63 63 91
Width: 612
Flags: W
LayerCount: 2
Fore
SplineSet
354 366 m 2,0,1
 385 366 385 366 410 378.5 c 128,-1,2
 435 391 435 391 452.5 412 c 128,-1,3
 470 433 470 433 479.5 461 c 128,-1,4
 489 489 489 489 489 519 c 0,5,6
 489 568 489 568 456 602 c 128,-1,7
 423 636 423 636 360 636 c 0,8,9
 292 636 292 636 245.5 593.5 c 128,-1,10
 199 551 199 551 183 476 c 2,11,-1
 174 434 l 1,12,-1
 90 434 l 1,13,-1
 100 482 l 2,14,15
 123 589 123 589 191.5 651.5 c 128,-1,16
 260 714 260 714 370 714 c 0,17,18
 416 714 416 714 454 699.5 c 128,-1,19
 492 685 492 685 519 660 c 128,-1,20
 546 635 546 635 561 601 c 128,-1,21
 576 567 576 567 576 527 c 0,22,23
 576 484 576 484 561 441.5 c 128,-1,24
 546 399 546 399 517 365.5 c 128,-1,25
 488 332 488 332 445.5 311 c 128,-1,26
 403 290 403 290 348 290 c 2,27,-1
 336 290 l 2,28,29
 306 290 306 290 300 260 c 2,30,-1
 285 186 l 1,31,-1
 205 186 l 1,32,-1
 225 280 l 2,33,34
 233 321 233 321 259.5 343.5 c 128,-1,35
 286 366 286 366 330 366 c 2,36,-1
 354 366 l 2,0,1
150 56 m 256,37,38
 150 85 150 85 170.5 105.5 c 128,-1,39
 191 126 191 126 220 126 c 256,40,41
 249 126 249 126 269.5 105.5 c 128,-1,42
 290 85 290 85 290 56 c 256,43,44
 290 27 290 27 269.5 6.5 c 128,-1,45
 249 -14 249 -14 220 -14 c 256,46,47
 191 -14 191 -14 170.5 6.5 c 128,-1,48
 150 27 150 27 150 56 c 256,37,38
EndSplineSet
EndChar

StartChar: questiondown
Encoding: 191 191 92
Width: 612
Flags: W
LayerCount: 2
Fore
SplineSet
231 136 m 2,0,1
 200 136 200 136 175 123.5 c 128,-1,2
 150 111 150 111 132.5 90 c 128,-1,3
 115 69 115 69 105.5 41 c 128,-1,4
 96 13 96 13 96 -17 c 0,5,6
 96 -66 96 -66 129 -100 c 128,-1,7
 162 -134 162 -134 225 -134 c 0,8,9
 293 -134 293 -134 339.5 -91.5 c 128,-1,10
 386 -49 386 -49 402 26 c 2,11,-1
 411 68 l 1,12,-1
 495 68 l 1,13,-1
 485 20 l 2,14,15
 462 -87 462 -87 393.5 -149.5 c 128,-1,16
 325 -212 325 -212 215 -212 c 0,17,18
 168 -212 168 -212 130 -197.5 c 128,-1,19
 92 -183 92 -183 65 -158 c 128,-1,20
 38 -133 38 -133 23.5 -99 c 128,-1,21
 9 -65 9 -65 9 -25 c 0,22,23
 9 18 9 18 24 60 c 128,-1,24
 39 102 39 102 68 136 c 128,-1,25
 97 170 97 170 139.5 191 c 128,-1,26
 182 212 182 212 237 212 c 2,27,-1
 249 212 l 2,28,29
 279 212 279 212 285 242 c 2,30,-1
 300 316 l 1,31,-1
 380 316 l 1,32,-1
 360 222 l 2,33,34
 352 181 352 181 325.5 158.5 c 128,-1,35
 299 136 299 136 255 136 c 2,36,-1
 231 136 l 2,0,1
435 446 m 256,37,38
 435 417 435 417 414.5 396.5 c 128,-1,39
 394 376 394 376 365 376 c 256,40,41
 336 376 336 376 315.5 396.5 c 128,-1,42
 295 417 295 417 295 446 c 256,43,44
 295 475 295 475 315.5 495.5 c 128,-1,45
 336 516 336 516 365 516 c 256,46,47
 394 516 394 516 414.5 495.5 c 128,-1,48
 435 475 435 475 435 446 c 256,37,38
EndSplineSet
EndChar

StartChar: guilsinglleft
Encoding: 8249 8249 93
Width: 612
Flags: W
LayerCount: 2
Fore
SplineSet
339 12 m 1,0,-1
 154 168 l 1,1,-1
 154 324 l 1,2,-1
 440 484 l 1,3,-1
 446 484 l 1,4,-1
 446 396 l 1,5,-1
 184 252 l 1,6,-1
 184 242 l 1,7,-1
 345 108 l 1,8,-1
 345 12 l 1,9,-1
 339 12 l 1,0,-1
EndSplineSet
EndChar

StartChar: guilsinglright
Encoding: 8250 8250 94
Width: 612
Flags: W
LayerCount: 2
Fore
SplineSet
227 484 m 1,0,-1
 412 328 l 1,1,-1
 412 172 l 1,2,-1
 126 12 l 1,3,-1
 120 12 l 1,4,-1
 120 100 l 1,5,-1
 382 244 l 1,6,-1
 382 254 l 1,7,-1
 221 388 l 1,8,-1
 221 484 l 1,9,-1
 227 484 l 1,0,-1
EndSplineSet
EndChar

StartChar: hyphen
Encoding: 45 45 97
Width: 612
Flags: W
LayerCount: 2
Fore
SplineSet
156 296 m 1,0,-1
 456 296 l 1,1,-1
 456 224 l 1,2,-1
 156 224 l 1,3,-1
 156 296 l 1,0,-1
EndSplineSet
EndChar

StartChar: endash
Encoding: 8211 8211 98
Width: 612
Flags: W
LayerCount: 2
Fore
SplineSet
73 296 m 1,0,-1
 539 296 l 1,1,-1
 539 224 l 1,2,-1
 73 224 l 1,3,-1
 73 296 l 1,0,-1
EndSplineSet
EndChar

StartChar: emdash
Encoding: 8212 8212 99
Width: 612
Flags: W
LayerCount: 2
Fore
SplineSet
12 296 m 1,0,-1
 600 296 l 1,1,-1
 600 224 l 1,2,-1
 12 224 l 1,3,-1
 12 296 l 1,0,-1
EndSplineSet
EndChar

StartChar: periodcentered
Encoding: 183 183 100
Width: 612
Flags: W
LayerCount: 2
Fore
SplineSet
236 350 m 256,0,1
 236 379 236 379 256.5 399.5 c 128,-1,2
 277 420 277 420 306 420 c 256,3,4
 335 420 335 420 355.5 399.5 c 128,-1,5
 376 379 376 379 376 350 c 256,6,7
 376 321 376 321 355.5 300.5 c 128,-1,8
 335 280 335 280 306 280 c 256,9,10
 277 280 277 280 256.5 300.5 c 128,-1,11
 236 321 236 321 236 350 c 256,0,1
EndSplineSet
Substitution2: "Single Substitution lookup 37 subtable" periodcentered
Substitution2: "'aalt' Access All Alternates in Latin lookup 0 subtable" periodcentered
EndChar

StartChar: bullet
Encoding: 8226 8226 101
Width: 612
Flags: W
LayerCount: 2
Fore
SplineSet
188 350 m 256,0,1
 188 374 188 374 197.5 395.5 c 128,-1,2
 207 417 207 417 223 433 c 128,-1,3
 239 449 239 449 260.5 458.5 c 128,-1,4
 282 468 282 468 306 468 c 256,5,6
 330 468 330 468 351.5 458.5 c 128,-1,7
 373 449 373 449 389 433 c 128,-1,8
 405 417 405 417 414.5 395.5 c 128,-1,9
 424 374 424 374 424 350 c 256,10,11
 424 326 424 326 414.5 304.5 c 128,-1,12
 405 283 405 283 389 267 c 128,-1,13
 373 251 373 251 351.5 241.5 c 128,-1,14
 330 232 330 232 306 232 c 256,15,16
 282 232 282 232 260.5 241.5 c 128,-1,17
 239 251 239 251 223 267 c 128,-1,18
 207 283 207 283 197.5 304.5 c 128,-1,19
 188 326 188 326 188 350 c 256,0,1
EndSplineSet
EndChar

StartChar: underscore
Encoding: 95 95 102
Width: 612
Flags: W
LayerCount: 2
Fore
SplineSet
4 -48 m 1,0,-1
 470 -48 l 1,1,-1
 470 -120 l 1,2,-1
 4 -120 l 1,3,-1
 4 -48 l 1,0,-1
EndSplineSet
EndChar

StartChar: at
Encoding: 64 64 103
Width: 612
Flags: W
LayerCount: 2
Fore
SplineSet
105 510 m 1,0,-1
 105 582 l 1,1,-1
 411 582 l 2,2,3
 453 582 453 582 485 571 c 128,-1,4
 517 560 517 560 538.5 540.5 c 128,-1,5
 560 521 560 521 571 493.5 c 128,-1,6
 582 466 582 466 582 434 c 0,7,8
 582 415 582 415 577 390 c 2,9,-1
 511 78 l 2,10,11
 503 42 503 42 478 21 c 128,-1,12
 453 0 453 0 417 0 c 2,13,-1
 337 0 l 2,14,15
 305 0 305 0 291.5 14.5 c 128,-1,16
 278 29 278 29 278 50 c 0,17,18
 278 56 278 56 280 66 c 1,19,-1
 268 66 l 1,20,21
 251 28 251 28 217 7 c 128,-1,22
 183 -14 183 -14 135 -14 c 0,23,24
 74 -14 74 -14 39 29 c 128,-1,25
 4 72 4 72 4 141 c 0,26,27
 4 194 4 194 18 247 c 128,-1,28
 32 300 32 300 60 342.5 c 128,-1,29
 88 385 88 385 130.5 411.5 c 128,-1,30
 173 438 173 438 229 438 c 0,31,32
 274 438 274 438 297.5 420 c 128,-1,33
 321 402 321 402 327 370 c 1,34,-1
 339 370 l 1,35,-1
 350 424 l 1,36,-1
 428 424 l 1,37,-1
 360 102 l 2,38,39
 359 97 359 97 359 95 c 128,-1,40
 359 93 359 93 359 91 c 0,41,42
 359 72 359 72 380 72 c 2,43,-1
 404 72 l 2,44,45
 432 72 432 72 438 102 c 2,46,-1
 498 386 l 2,47,48
 503 409 503 409 503 425 c 0,49,50
 503 465 503 465 479 487.5 c 128,-1,51
 455 510 455 510 401 510 c 2,52,-1
 105 510 l 1,0,-1
166 60 m 256,53,54
 207 60 207 60 235 81 c 128,-1,55
 263 102 263 102 280.5 134 c 128,-1,56
 298 166 298 166 305.5 204 c 128,-1,57
 313 242 313 242 313 276 c 0,58,59
 313 314 313 314 295 339 c 128,-1,60
 277 364 277 364 231 364 c 0,61,62
 195 364 195 364 167.5 344 c 128,-1,63
 140 324 140 324 121.5 293.5 c 128,-1,64
 103 263 103 263 93.5 226.5 c 128,-1,65
 84 190 84 190 84 156 c 0,66,67
 84 112 84 112 104.5 86 c 128,-1,68
 125 60 125 60 166 60 c 256,53,54
EndSplineSet
Substitution2: "'case' Case-Sensitive Forms in Latin lookup 31 subtable" at.cap
Substitution2: "'case' Case-Sensitive Forms in Latin lookup 30 subtable" at.cap
Substitution2: "'aalt' Access All Alternates in Latin lookup 0 subtable" at.cap
EndChar

StartChar: ampersand
Encoding: 38 38 104
Width: 612
Flags: W
LayerCount: 2
Fore
SplineSet
574 312 m 1,0,-1
 470 312 l 1,1,-1
 404 0 l 1,2,-1
 184 0 l 2,3,4
 101 0 101 0 54.5 43.5 c 128,-1,5
 8 87 8 87 8 159 c 0,6,7
 8 229 8 229 50 278.5 c 128,-1,8
 92 328 92 328 167 345 c 1,9,-1
 167 357 l 1,10,11
 129 370 129 370 103.5 402 c 128,-1,12
 78 434 78 434 78 485 c 0,13,14
 78 533 78 533 97 572.5 c 128,-1,15
 116 612 116 612 149.5 640.5 c 128,-1,16
 183 669 183 669 229 684.5 c 128,-1,17
 275 700 275 700 329 700 c 2,18,-1
 440 700 l 1,19,-1
 440 622 l 1,20,-1
 318 622 l 2,21,22
 286 622 286 622 257.5 612.5 c 128,-1,23
 229 603 229 603 206.5 584.5 c 128,-1,24
 184 566 184 566 171 539 c 128,-1,25
 158 512 158 512 158 478 c 0,26,27
 158 436 158 436 186.5 413 c 128,-1,28
 215 390 215 390 266 390 c 2,29,-1
 403 390 l 1,30,-1
 426 496 l 1,31,-1
 510 496 l 1,32,-1
 487 390 l 1,33,-1
 574 390 l 1,34,-1
 574 312 l 1,0,-1
337 78 m 1,35,-1
 386 312 l 1,36,-1
 249 312 l 2,37,38
 218 312 218 312 189.5 302 c 128,-1,39
 161 292 161 292 139 273.5 c 128,-1,40
 117 255 117 255 104 229.5 c 128,-1,41
 91 204 91 204 91 173 c 0,42,43
 91 128 91 128 121.5 103 c 128,-1,44
 152 78 152 78 203 78 c 2,45,-1
 337 78 l 1,35,-1
EndSplineSet
EndChar

StartChar: asterisk
Encoding: 42 42 105
Width: 612
Flags: W
LayerCount: 2
Fore
SplineSet
534 455 m 1,0,-1
 429 387 l 1,1,-1
 375 370 l 1,2,-1
 377 357 l 1,3,-1
 424 362 l 1,4,-1
 556 334 l 1,5,-1
 541 263 l 1,6,-1
 409 291 l 1,7,-1
 368 314 l 1,8,-1
 361 304 l 1,9,-1
 404 266 l 1,10,-1
 471 161 l 1,11,-1
 411 122 l 1,12,-1
 343 227 l 1,13,-1
 326 281 l 1,14,-1
 313 279 l 1,15,-1
 318 232 l 1,16,-1
 290 100 l 1,17,-1
 219 115 l 1,18,-1
 247 247 l 1,19,-1
 270 288 l 1,20,-1
 260 295 l 1,21,-1
 222 252 l 1,22,-1
 117 185 l 1,23,-1
 78 245 l 1,24,-1
 183 313 l 1,25,-1
 237 330 l 1,26,-1
 235 343 l 1,27,-1
 188 338 l 1,28,-1
 56 366 l 1,29,-1
 71 437 l 1,30,-1
 203 409 l 1,31,-1
 244 386 l 1,32,-1
 251 396 l 1,33,-1
 208 434 l 1,34,-1
 141 539 l 1,35,-1
 201 578 l 1,36,-1
 269 473 l 1,37,-1
 286 419 l 1,38,-1
 299 421 l 1,39,-1
 294 468 l 1,40,-1
 322 600 l 1,41,-1
 393 585 l 1,42,-1
 365 453 l 1,43,-1
 342 412 l 1,44,-1
 352 405 l 1,45,-1
 390 448 l 1,46,-1
 495 515 l 1,47,-1
 534 455 l 1,0,-1
EndSplineSet
Substitution2: "'case' Case-Sensitive Forms in Latin lookup 31 subtable" asterisk.cap
Substitution2: "'case' Case-Sensitive Forms in Latin lookup 30 subtable" asterisk.cap
Substitution2: "'aalt' Access All Alternates in Latin lookup 0 subtable" asterisk.cap
EndChar

StartChar: Aogonek
Encoding: 260 260 115
Width: 612
Flags: W
LayerCount: 2
Fore
SplineSet
419 174 m 1,0,-1
 138 174 l 1,1,-1
 53 0 l 1,2,-1
 -42 0 l 1,3,-1
 305 700 l 1,4,-1
 465 700 l 1,5,-1
 515 0 l 1,6,-1
 498 0 l 1,7,-1
 468 -68 l 2,8,9
 465 -76 465 -76 465 -81 c 0,10,11
 465 -98 465 -98 484 -98 c 2,12,-1
 526 -98 l 1,13,-1
 526 -164 l 1,14,-1
 456 -164 l 2,15,16
 431 -164 431 -164 412.5 -148 c 128,-1,17
 394 -132 394 -132 394 -103 c 0,18,19
 394 -85 394 -85 402 -66 c 2,20,-1
 430 0 l 1,21,-1
 419 174 l 1,0,-1
176 252 m 1,22,-1
 414 252 l 1,23,-1
 388 663 l 1,24,-1
 376 663 l 1,25,-1
 176 252 l 1,22,-1
EndSplineSet
EndChar

StartChar: uni1EA2
Encoding: 7842 7842 117
Width: 612
Flags: W
LayerCount: 2
Fore
SplineSet
360 750 m 1,0,-1
 360 842 l 1,1,-1
 365 848 l 1,2,-1
 437 848 l 1,3,4
 446 833 446 833 465 833 c 0,5,6
 503 833 503 833 503 874 c 0,7,8
 503 892 503 892 492 903 c 128,-1,9
 481 914 481 914 461 914 c 0,10,11
 443 914 443 914 431 903 c 128,-1,12
 419 892 419 892 414 874 c 1,13,-1
 369 892 l 1,14,15
 381 922 381 922 403.5 942 c 128,-1,16
 426 962 426 962 467 962 c 0,17,18
 506 962 506 962 531.5 938 c 128,-1,19
 557 914 557 914 557 878 c 0,20,21
 557 840 557 840 533 813 c 128,-1,22
 509 786 509 786 473 786 c 0,23,24
 452 786 452 786 436.5 794.5 c 128,-1,25
 421 803 421 803 415 818 c 1,26,-1
 409 818 l 1,27,-1
 409 750 l 1,28,-1
 360 750 l 1,0,-1
419 174 m 1,29,-1
 138 174 l 1,30,-1
 53 0 l 1,31,-1
 -42 0 l 1,32,-1
 305 700 l 1,33,-1
 465 700 l 1,34,-1
 515 0 l 1,35,-1
 430 0 l 1,36,-1
 419 174 l 1,29,-1
176 252 m 1,37,-1
 414 252 l 1,38,-1
 388 663 l 1,39,-1
 376 663 l 1,40,-1
 176 252 l 1,37,-1
EndSplineSet
EndChar

StartChar: uni1EA8
Encoding: 7848 7848 120
Width: 612
Flags: W
LayerCount: 2
Fore
SplineSet
537 858 m 1,0,-1
 537 950 l 1,1,-1
 542 956 l 1,2,-1
 614 956 l 1,3,4
 623 941 623 941 642 941 c 0,5,6
 680 941 680 941 680 982 c 0,7,8
 680 1000 680 1000 669 1011 c 128,-1,9
 658 1022 658 1022 638 1022 c 0,10,11
 620 1022 620 1022 608 1011 c 128,-1,12
 596 1000 596 1000 591 982 c 1,13,-1
 546 1000 l 1,14,15
 558 1030 558 1030 580.5 1050 c 128,-1,16
 603 1070 603 1070 644 1070 c 0,17,18
 683 1070 683 1070 708.5 1046 c 128,-1,19
 734 1022 734 1022 734 986 c 0,20,21
 734 948 734 948 710 921 c 128,-1,22
 686 894 686 894 650 894 c 0,23,24
 629 894 629 894 613.5 902.5 c 128,-1,25
 598 911 598 911 592 926 c 1,26,-1
 586 926 l 1,27,-1
 586 858 l 1,28,-1
 537 858 l 1,0,-1
419 174 m 1,29,-1
 138 174 l 1,30,-1
 53 0 l 1,31,-1
 -42 0 l 1,32,-1
 305 700 l 1,33,-1
 465 700 l 1,34,-1
 515 0 l 1,35,-1
 430 0 l 1,36,-1
 419 174 l 1,29,-1
176 252 m 1,37,-1
 414 252 l 1,38,-1
 388 663 l 1,39,-1
 376 663 l 1,40,-1
 176 252 l 1,37,-1
261 774 m 1,41,-1
 261 780 l 1,42,-1
 361 892 l 1,43,-1
 485 892 l 1,44,-1
 540 774 l 1,45,-1
 465 774 l 1,46,-1
 426 862 l 1,47,-1
 414 862 l 1,48,-1
 346 774 l 1,49,-1
 261 774 l 1,41,-1
EndSplineSet
EndChar

StartChar: uni1EB2
Encoding: 7858 7858 125
Width: 612
Flags: W
LayerCount: 2
Fore
SplineSet
393 878 m 1,0,-1
 393 970 l 1,1,-1
 398 976 l 1,2,-1
 470 976 l 1,3,4
 479 961 479 961 498 961 c 0,5,6
 536 961 536 961 536 1002 c 0,7,8
 536 1020 536 1020 525 1031 c 128,-1,9
 514 1042 514 1042 494 1042 c 0,10,11
 476 1042 476 1042 464 1031 c 128,-1,12
 452 1020 452 1020 447 1002 c 1,13,-1
 402 1020 l 1,14,15
 414 1050 414 1050 436.5 1070 c 128,-1,16
 459 1090 459 1090 500 1090 c 0,17,18
 539 1090 539 1090 564.5 1066 c 128,-1,19
 590 1042 590 1042 590 1006 c 0,20,21
 590 968 590 968 566 941 c 128,-1,22
 542 914 542 914 506 914 c 0,23,24
 485 914 485 914 469.5 922.5 c 128,-1,25
 454 931 454 931 448 946 c 1,26,-1
 442 946 l 1,27,-1
 442 878 l 1,28,-1
 393 878 l 1,0,-1
419 174 m 1,29,-1
 138 174 l 1,30,-1
 53 0 l 1,31,-1
 -42 0 l 1,32,-1
 305 700 l 1,33,-1
 465 700 l 1,34,-1
 515 0 l 1,35,-1
 430 0 l 1,36,-1
 419 174 l 1,29,-1
176 252 m 1,37,-1
 414 252 l 1,38,-1
 388 663 l 1,39,-1
 376 663 l 1,40,-1
 176 252 l 1,37,-1
519 848 m 1,41,-1
 516 834 l 2,42,43
 505 783 505 783 474.5 756.5 c 128,-1,44
 444 730 444 730 390 730 c 0,45,46
 340 730 340 730 314.5 760 c 128,-1,47
 289 790 289 790 298 834 c 2,48,-1
 301 848 l 1,49,-1
 369 848 l 1,50,-1
 366 837 l 2,51,52
 361 818 361 818 370.5 806.5 c 128,-1,53
 380 795 380 795 400 795 c 0,54,55
 422 795 422 795 432 807.5 c 128,-1,56
 442 820 442 820 446 836 c 2,57,-1
 449 848 l 1,58,-1
 519 848 l 1,41,-1
EndSplineSet
EndChar

StartChar: AE
Encoding: 198 198 128
Width: 612
Flags: W
LayerCount: 2
Fore
SplineSet
276 174 m 1,0,-1
 132 174 l 1,1,-1
 44 0 l 1,2,-1
 -48 0 l 1,3,-1
 312 700 l 1,4,-1
 599 700 l 1,5,-1
 599 622 l 1,6,-1
 455 622 l 1,7,-1
 406 390 l 1,8,-1
 527 390 l 1,9,-1
 527 312 l 1,10,-1
 389 312 l 1,11,-1
 340 78 l 1,12,-1
 473 78 l 1,13,-1
 473 0 l 1,14,-1
 239 0 l 1,15,-1
 276 174 l 1,0,-1
172 252 m 1,16,-1
 293 252 l 1,17,-1
 371 622 l 1,18,-1
 359 622 l 1,19,-1
 172 252 l 1,16,-1
EndSplineSet
EndChar

StartChar: uni0243
Encoding: 579 579 129
Width: 612
Flags: W
LayerCount: 2
Fore
SplineSet
2 78 m 1,0,-1
 68 78 l 1,1,-1
 84 156 l 1,2,-1
 30 156 l 1,3,-1
 30 234 l 1,4,-1
 101 234 l 1,5,-1
 183 622 l 1,6,-1
 117 622 l 1,7,-1
 117 700 l 1,8,-1
 393 700 l 2,9,10
 484 700 484 700 529.5 653.5 c 128,-1,11
 575 607 575 607 575 535 c 0,12,13
 575 505 575 505 564 476 c 128,-1,14
 553 447 553 447 533 423.5 c 128,-1,15
 513 400 513 400 483.5 382.5 c 128,-1,16
 454 365 454 365 418 357 c 1,17,-1
 418 345 l 1,18,19
 460 333 460 333 483 298.5 c 128,-1,20
 506 264 506 264 506 219 c 0,21,22
 506 171 506 171 487 130.5 c 128,-1,23
 468 90 468 90 435 61 c 128,-1,24
 402 32 402 32 356 16 c 128,-1,25
 310 0 310 0 256 0 c 2,26,-1
 2 0 l 1,27,-1
 2 78 l 1,0,-1
218 390 m 1,28,-1
 336 390 l 2,29,30
 366 390 366 390 394.5 399.5 c 128,-1,31
 423 409 423 409 445 427 c 128,-1,32
 467 445 467 445 480 471.5 c 128,-1,33
 493 498 493 498 493 532 c 0,34,35
 493 574 493 574 464 598 c 128,-1,36
 435 622 435 622 382 622 c 2,37,-1
 267 622 l 1,38,-1
 218 390 l 1,28,-1
184 234 m 1,39,-1
 282 234 l 1,40,-1
 282 156 l 1,41,-1
 168 156 l 1,42,-1
 152 78 l 1,43,-1
 267 78 l 2,44,45
 300 78 300 78 329.5 88 c 128,-1,46
 359 98 359 98 381 116.5 c 128,-1,47
 403 135 403 135 415.5 160.5 c 128,-1,48
 428 186 428 186 428 216 c 0,49,50
 428 262 428 262 399 287 c 128,-1,51
 370 312 370 312 319 312 c 2,52,-1
 201 312 l 1,53,-1
 184 234 l 1,39,-1
EndSplineSet
Substitution2: "'ss01' Style Set 1 in Latin lookup 2 subtable" uni0243.alt
Substitution2: "'aalt' Access All Alternates in Latin lookup 0 subtable" uni0243.alt
EndChar

StartChar: Ccedilla
Encoding: 199 199 130
Width: 612
Flags: W
LayerCount: 2
Fore
SplineSet
248 64 m 0,0,1
 291 64 291 64 323.5 77 c 128,-1,2
 356 90 356 90 379 113 c 128,-1,3
 402 136 402 136 417.5 168.5 c 128,-1,4
 433 201 433 201 443 240 c 2,5,-1
 446 252 l 1,6,-1
 530 252 l 1,7,-1
 527 240 l 2,8,9
 513 183 513 183 491.5 136.5 c 128,-1,10
 470 90 470 90 437.5 57 c 128,-1,11
 405 24 405 24 359.5 5.5 c 128,-1,12
 314 -13 314 -13 252 -14 c 1,13,-1
 233 -68 l 1,14,-1
 239 -68 l 1,15,16
 256 -36 256 -36 293 -36 c 0,17,18
 326 -36 326 -36 343.5 -58 c 128,-1,19
 361 -80 361 -80 361 -110 c 0,20,21
 361 -155 361 -155 335.5 -183.5 c 128,-1,22
 310 -212 310 -212 257 -212 c 0,23,24
 216 -212 216 -212 192 -192.5 c 128,-1,25
 168 -173 168 -173 163 -142 c 1,26,-1
 213 -125 l 1,27,28
 215 -141 215 -141 225.5 -152.5 c 128,-1,29
 236 -164 236 -164 259 -164 c 256,30,31
 282 -164 282 -164 294.5 -151.5 c 128,-1,32
 307 -139 307 -139 307 -118 c 0,33,34
 307 -100 307 -100 297.5 -92 c 128,-1,35
 288 -84 288 -84 275 -84 c 0,36,37
 264 -84 264 -84 258 -88 c 128,-1,38
 252 -92 252 -92 248 -98 c 1,39,-1
 173 -98 l 1,40,-1
 173 -86 l 1,41,-1
 199 -12 l 1,42,43
 122 -1 122 -1 80 49.5 c 128,-1,44
 38 100 38 100 38 178 c 0,45,46
 38 199 38 199 40.5 222.5 c 128,-1,47
 43 246 43 246 48 272 c 2,48,-1
 81 428 l 2,49,50
 111 570 111 570 185.5 642 c 128,-1,51
 260 714 260 714 382 714 c 0,52,53
 430 714 430 714 467.5 700 c 128,-1,54
 505 686 505 686 530.5 661.5 c 128,-1,55
 556 637 556 637 569.5 602.5 c 128,-1,56
 583 568 583 568 583 528 c 0,57,58
 583 496 583 496 574 460 c 2,59,-1
 571 448 l 1,60,-1
 487 448 l 1,61,-1
 490 460 l 2,62,63
 495 479 495 479 496.5 493.5 c 128,-1,64
 498 508 498 508 498 522 c 0,65,66
 498 575 498 575 467.5 606.5 c 128,-1,67
 437 638 437 638 369 638 c 0,68,69
 329 638 329 638 296 622 c 128,-1,70
 263 606 263 606 237 577.5 c 128,-1,71
 211 549 211 549 192.5 509.5 c 128,-1,72
 174 470 174 470 164 422 c 2,73,-1
 133 278 l 2,74,75
 128 255 128 255 125.5 235 c 128,-1,76
 123 215 123 215 123 197 c 0,77,78
 123 130 123 130 153 97 c 128,-1,79
 183 64 183 64 248 64 c 0,0,1
EndSplineSet
EndChar

StartChar: Eth
Encoding: 208 208 135
Width: 612
Flags: W
LayerCount: 2
Fore
SplineSet
115 700 m 1,0,-1
 358 700 l 2,1,2
 464 700 464 700 518 652.5 c 128,-1,3
 572 605 572 605 572 515 c 0,4,5
 572 496 572 496 569.5 476 c 128,-1,6
 567 456 567 456 562 434 c 2,7,-1
 524 260 l 2,8,9
 509 189 509 189 487 139.5 c 128,-1,10
 465 90 465 90 431 59 c 128,-1,11
 397 28 397 28 347.5 14 c 128,-1,12
 298 0 298 0 227 0 c 2,13,-1
 0 0 l 1,14,-1
 0 78 l 1,15,-1
 66 78 l 1,16,-1
 115 311 l 1,17,-1
 55 311 l 1,18,-1
 55 389 l 1,19,-1
 132 389 l 1,20,-1
 181 622 l 1,21,-1
 115 622 l 1,22,-1
 115 700 l 1,0,-1
226 78 m 2,23,24
 272 78 272 78 307.5 87 c 128,-1,25
 343 96 343 96 369 117.5 c 128,-1,26
 395 139 395 139 413 175 c 128,-1,27
 431 211 431 211 442 266 c 2,28,-1
 477 434 l 2,29,30
 482 460 482 460 484 477 c 128,-1,31
 486 494 486 494 486 510 c 0,32,33
 486 574 486 574 450 598 c 128,-1,34
 414 622 414 622 341 622 c 2,35,-1
 265 622 l 1,36,-1
 216 389 l 1,37,-1
 307 389 l 1,38,-1
 307 311 l 1,39,-1
 199 311 l 1,40,-1
 150 78 l 1,41,-1
 226 78 l 2,23,24
EndSplineSet
Substitution2: "'ss01' Style Set 1 in Latin lookup 2 subtable" Eth.alt
Substitution2: "'aalt' Access All Alternates in Latin lookup 0 subtable" Eth.alt
EndChar

StartChar: Dcroat
Encoding: 272 272 139
Width: 612
Flags: W
LayerCount: 2
Fore
SplineSet
115 700 m 1,0,-1
 358 700 l 2,1,2
 464 700 464 700 518 652.5 c 128,-1,3
 572 605 572 605 572 515 c 0,4,5
 572 496 572 496 569.5 476 c 128,-1,6
 567 456 567 456 562 434 c 2,7,-1
 524 260 l 2,8,9
 509 189 509 189 487 139.5 c 128,-1,10
 465 90 465 90 431 59 c 128,-1,11
 397 28 397 28 347.5 14 c 128,-1,12
 298 0 298 0 227 0 c 2,13,-1
 0 0 l 1,14,-1
 0 78 l 1,15,-1
 66 78 l 1,16,-1
 115 311 l 1,17,-1
 55 311 l 1,18,-1
 55 389 l 1,19,-1
 132 389 l 1,20,-1
 181 622 l 1,21,-1
 115 622 l 1,22,-1
 115 700 l 1,0,-1
226 78 m 2,23,24
 272 78 272 78 307.5 87 c 128,-1,25
 343 96 343 96 369 117.5 c 128,-1,26
 395 139 395 139 413 175 c 128,-1,27
 431 211 431 211 442 266 c 2,28,-1
 477 434 l 2,29,30
 482 460 482 460 484 477 c 128,-1,31
 486 494 486 494 486 510 c 0,32,33
 486 574 486 574 450 598 c 128,-1,34
 414 622 414 622 341 622 c 2,35,-1
 265 622 l 1,36,-1
 216 389 l 1,37,-1
 307 389 l 1,38,-1
 307 311 l 1,39,-1
 199 311 l 1,40,-1
 150 78 l 1,41,-1
 226 78 l 2,23,24
EndSplineSet
Substitution2: "'ss01' Style Set 1 in Latin lookup 2 subtable" Dcroat.alt
Substitution2: "'aalt' Access All Alternates in Latin lookup 0 subtable" Dcroat.alt
EndChar

StartChar: Eogonek
Encoding: 280 280 148
Width: 612
Flags: W
LayerCount: 2
Fore
SplineSet
177 700 m 1,0,-1
 572 700 l 1,1,-1
 572 622 l 1,2,-1
 244 622 l 1,3,-1
 195 390 l 1,4,-1
 500 390 l 1,5,-1
 500 312 l 1,6,-1
 178 312 l 1,7,-1
 129 78 l 1,8,-1
 446 78 l 1,9,-1
 446 0 l 1,10,-1
 415 -68 l 2,11,12
 412 -76 412 -76 412 -81 c 0,13,14
 412 -98 412 -98 431 -98 c 2,15,-1
 473 -98 l 1,16,-1
 473 -164 l 1,17,-1
 403 -164 l 2,18,19
 378 -164 378 -164 359.5 -148 c 128,-1,20
 341 -132 341 -132 341 -103 c 0,21,22
 341 -85 341 -85 349 -66 c 2,23,-1
 377 0 l 1,24,-1
 28 0 l 1,25,-1
 177 700 l 1,0,-1
EndSplineSet
EndChar

StartChar: uni1EBA
Encoding: 7866 7866 150
Width: 612
Flags: W
LayerCount: 2
Fore
SplineSet
341 750 m 1,0,-1
 341 842 l 1,1,-1
 346 848 l 1,2,-1
 418 848 l 1,3,4
 427 833 427 833 446 833 c 0,5,6
 484 833 484 833 484 874 c 0,7,8
 484 892 484 892 473 903 c 128,-1,9
 462 914 462 914 442 914 c 0,10,11
 424 914 424 914 412 903 c 128,-1,12
 400 892 400 892 395 874 c 1,13,-1
 350 892 l 1,14,15
 362 922 362 922 384.5 942 c 128,-1,16
 407 962 407 962 448 962 c 0,17,18
 487 962 487 962 512.5 938 c 128,-1,19
 538 914 538 914 538 878 c 0,20,21
 538 840 538 840 514 813 c 128,-1,22
 490 786 490 786 454 786 c 0,23,24
 433 786 433 786 417.5 794.5 c 128,-1,25
 402 803 402 803 396 818 c 1,26,-1
 390 818 l 1,27,-1
 390 750 l 1,28,-1
 341 750 l 1,0,-1
177 700 m 1,29,-1
 572 700 l 1,30,-1
 572 622 l 1,31,-1
 244 622 l 1,32,-1
 195 390 l 1,33,-1
 500 390 l 1,34,-1
 500 312 l 1,35,-1
 178 312 l 1,36,-1
 129 78 l 1,37,-1
 446 78 l 1,38,-1
 446 0 l 1,39,-1
 28 0 l 1,40,-1
 177 700 l 1,29,-1
EndSplineSet
EndChar

StartChar: uni1EC2
Encoding: 7874 7874 154
Width: 612
Flags: W
LayerCount: 2
Fore
SplineSet
528 858 m 1,0,-1
 528 950 l 1,1,-1
 533 956 l 1,2,-1
 605 956 l 1,3,4
 614 941 614 941 633 941 c 0,5,6
 671 941 671 941 671 982 c 0,7,8
 671 1000 671 1000 660 1011 c 128,-1,9
 649 1022 649 1022 629 1022 c 0,10,11
 611 1022 611 1022 599 1011 c 128,-1,12
 587 1000 587 1000 582 982 c 1,13,-1
 537 1000 l 1,14,15
 549 1030 549 1030 571.5 1050 c 128,-1,16
 594 1070 594 1070 635 1070 c 0,17,18
 674 1070 674 1070 699.5 1046 c 128,-1,19
 725 1022 725 1022 725 986 c 0,20,21
 725 948 725 948 701 921 c 128,-1,22
 677 894 677 894 641 894 c 0,23,24
 620 894 620 894 604.5 902.5 c 128,-1,25
 589 911 589 911 583 926 c 1,26,-1
 577 926 l 1,27,-1
 577 858 l 1,28,-1
 528 858 l 1,0,-1
177 700 m 1,29,-1
 572 700 l 1,30,-1
 572 622 l 1,31,-1
 244 622 l 1,32,-1
 195 390 l 1,33,-1
 500 390 l 1,34,-1
 500 312 l 1,35,-1
 178 312 l 1,36,-1
 129 78 l 1,37,-1
 446 78 l 1,38,-1
 446 0 l 1,39,-1
 28 0 l 1,40,-1
 177 700 l 1,29,-1
252 774 m 1,41,-1
 252 780 l 1,42,-1
 352 892 l 1,43,-1
 476 892 l 1,44,-1
 531 774 l 1,45,-1
 456 774 l 1,46,-1
 417 862 l 1,47,-1
 405 862 l 1,48,-1
 337 774 l 1,49,-1
 252 774 l 1,41,-1
EndSplineSet
EndChar

StartChar: Hbar
Encoding: 294 294 166
Width: 612
Flags: W
LayerCount: 2
Fore
SplineSet
113 496 m 1,0,-1
 54 496 l 1,1,-1
 54 574 l 1,2,-1
 129 574 l 1,3,-1
 156 700 l 1,4,-1
 242 700 l 1,5,-1
 215 574 l 1,6,-1
 491 574 l 1,7,-1
 518 700 l 1,8,-1
 604 700 l 1,9,-1
 577 574 l 1,10,-1
 630 574 l 1,11,-1
 630 496 l 1,12,-1
 560 496 l 1,13,-1
 455 0 l 1,14,-1
 369 0 l 1,15,-1
 435 312 l 1,16,-1
 159 312 l 1,17,-1
 93 0 l 1,18,-1
 8 0 l 1,19,-1
 113 496 l 1,0,-1
452 390 m 1,20,-1
 474 496 l 1,21,-1
 198 496 l 1,22,-1
 176 390 l 1,23,-1
 452 390 l 1,20,-1
EndSplineSet
EndChar

StartChar: Iogonek
Encoding: 302 302 175
Width: 612
Flags: W
LayerCount: 2
Fore
SplineSet
147 700 m 1,0,-1
 579 700 l 1,1,-1
 579 622 l 1,2,-1
 405 622 l 1,3,-1
 290 78 l 1,4,-1
 464 78 l 1,5,-1
 464 0 l 1,6,-1
 433 -68 l 2,7,8
 430 -76 430 -76 430 -81 c 0,9,10
 430 -98 430 -98 449 -98 c 2,11,-1
 491 -98 l 1,12,-1
 491 -164 l 1,13,-1
 421 -164 l 2,14,15
 396 -164 396 -164 377.5 -148 c 128,-1,16
 359 -132 359 -132 359 -103 c 0,17,18
 359 -85 359 -85 367 -66 c 2,19,-1
 395 0 l 1,20,-1
 32 0 l 1,21,-1
 32 78 l 1,22,-1
 206 78 l 1,23,-1
 321 622 l 1,24,-1
 147 622 l 1,25,-1
 147 700 l 1,0,-1
EndSplineSet
EndChar

StartChar: Lslash
Encoding: 321 321 187
Width: 612
Flags: W
LayerCount: 2
Fore
SplineSet
96 283 m 1,0,-1
 32 266 l 1,1,-1
 12 340 l 1,2,-1
 114 367 l 1,3,-1
 185 700 l 1,4,-1
 269 700 l 1,5,-1
 203 390 l 1,6,-1
 284 412 l 1,7,-1
 304 340 l 1,8,-1
 185 307 l 1,9,-1
 137 78 l 1,10,-1
 497 78 l 1,11,-1
 497 0 l 1,12,-1
 36 0 l 1,13,-1
 96 283 l 1,0,-1
EndSplineSet
EndChar

StartChar: uni01EA
Encoding: 490 490 206
Width: 612
Flags: W
LayerCount: 2
Fore
SplineSet
77 428 m 2,0,1
 106 568 106 568 179.5 641 c 128,-1,2
 253 714 253 714 377 714 c 0,3,4
 474 714 474 714 525.5 658.5 c 128,-1,5
 577 603 577 603 577 505 c 0,6,7
 577 485 577 485 574.5 462.5 c 128,-1,8
 572 440 572 440 567 417 c 2,9,-1
 536 272 l 2,10,11
 520 197 520 197 489.5 136 c 128,-1,12
 459 75 459 75 405 36 c 2,13,-1
 265 -67 l 2,14,15
 255 -74 255 -74 255 -84 c 0,16,17
 255 -98 255 -98 271 -98 c 2,18,-1
 358 -98 l 1,19,-1
 358 -164 l 1,20,-1
 254 -164 l 2,21,22
 221 -164 221 -164 200.5 -142.5 c 128,-1,23
 180 -121 180 -121 180 -92 c 0,24,25
 180 -74 180 -74 190 -55 c 128,-1,26
 200 -36 200 -36 221 -21 c 2,27,-1
 231 -14 l 1,28,29
 136 -12 136 -12 86 43 c 128,-1,30
 36 98 36 98 36 195 c 0,31,32
 36 215 36 215 38.5 237.5 c 128,-1,33
 41 260 41 260 46 283 c 2,34,-1
 77 428 l 2,0,1
248 62 m 0,35,36
 289 62 289 62 322.5 77.5 c 128,-1,37
 356 93 356 93 381.5 121.5 c 128,-1,38
 407 150 407 150 424.5 189.5 c 128,-1,39
 442 229 442 229 453 278 c 2,40,-1
 485 428 l 2,41,42
 493 468 493 468 493 498 c 0,43,44
 493 563 493 563 461 600.5 c 128,-1,45
 429 638 429 638 365 638 c 0,46,47
 282 638 282 638 231.5 579 c 128,-1,48
 181 520 181 520 160 422 c 2,49,-1
 128 272 l 2,50,51
 120 232 120 232 120 202 c 0,52,53
 120 137 120 137 152 99.5 c 128,-1,54
 184 62 184 62 248 62 c 0,35,36
EndSplineSet
EndChar

StartChar: uni1ECE
Encoding: 7886 7886 208
Width: 612
Flags: W
LayerCount: 2
Fore
SplineSet
356 750 m 1,0,-1
 356 842 l 1,1,-1
 361 848 l 1,2,-1
 433 848 l 1,3,4
 442 833 442 833 461 833 c 0,5,6
 499 833 499 833 499 874 c 0,7,8
 499 892 499 892 488 903 c 128,-1,9
 477 914 477 914 457 914 c 0,10,11
 439 914 439 914 427 903 c 128,-1,12
 415 892 415 892 410 874 c 1,13,-1
 365 892 l 1,14,15
 377 922 377 922 399.5 942 c 128,-1,16
 422 962 422 962 463 962 c 0,17,18
 502 962 502 962 527.5 938 c 128,-1,19
 553 914 553 914 553 878 c 0,20,21
 553 840 553 840 529 813 c 128,-1,22
 505 786 505 786 469 786 c 0,23,24
 448 786 448 786 432.5 794.5 c 128,-1,25
 417 803 417 803 411 818 c 1,26,-1
 405 818 l 1,27,-1
 405 750 l 1,28,-1
 356 750 l 1,0,-1
77 428 m 2,29,30
 106 568 106 568 179.5 641 c 128,-1,31
 253 714 253 714 377 714 c 0,32,33
 474 714 474 714 525.5 658.5 c 128,-1,34
 577 603 577 603 577 505 c 0,35,36
 577 485 577 485 574.5 462.5 c 128,-1,37
 572 440 572 440 567 417 c 2,38,-1
 536 272 l 2,39,40
 507 132 507 132 433.5 59 c 128,-1,41
 360 -14 360 -14 236 -14 c 0,42,43
 139 -14 139 -14 87.5 41.5 c 128,-1,44
 36 97 36 97 36 195 c 0,45,46
 36 215 36 215 38.5 237.5 c 128,-1,47
 41 260 41 260 46 283 c 2,48,-1
 77 428 l 2,29,30
248 62 m 0,49,50
 289 62 289 62 322.5 77.5 c 128,-1,51
 356 93 356 93 381.5 121.5 c 128,-1,52
 407 150 407 150 424.5 189.5 c 128,-1,53
 442 229 442 229 453 278 c 2,54,-1
 485 428 l 2,55,56
 493 468 493 468 493 498 c 0,57,58
 493 563 493 563 461 600.5 c 128,-1,59
 429 638 429 638 365 638 c 0,60,61
 282 638 282 638 231.5 579 c 128,-1,62
 181 520 181 520 160 422 c 2,63,-1
 128 272 l 2,64,65
 120 232 120 232 120 202 c 0,66,67
 120 137 120 137 152 99.5 c 128,-1,68
 184 62 184 62 248 62 c 0,49,50
EndSplineSet
EndChar

StartChar: uni1ED4
Encoding: 7892 7892 211
Width: 612
Flags: W
LayerCount: 2
Fore
SplineSet
538 858 m 1,0,-1
 538 950 l 1,1,-1
 543 956 l 1,2,-1
 615 956 l 1,3,4
 624 941 624 941 643 941 c 0,5,6
 681 941 681 941 681 982 c 0,7,8
 681 1000 681 1000 670 1011 c 128,-1,9
 659 1022 659 1022 639 1022 c 0,10,11
 621 1022 621 1022 609 1011 c 128,-1,12
 597 1000 597 1000 592 982 c 1,13,-1
 547 1000 l 1,14,15
 559 1030 559 1030 581.5 1050 c 128,-1,16
 604 1070 604 1070 645 1070 c 0,17,18
 684 1070 684 1070 709.5 1046 c 128,-1,19
 735 1022 735 1022 735 986 c 0,20,21
 735 948 735 948 711 921 c 128,-1,22
 687 894 687 894 651 894 c 0,23,24
 630 894 630 894 614.5 902.5 c 128,-1,25
 599 911 599 911 593 926 c 1,26,-1
 587 926 l 1,27,-1
 587 858 l 1,28,-1
 538 858 l 1,0,-1
77 428 m 2,29,30
 106 568 106 568 179.5 641 c 128,-1,31
 253 714 253 714 377 714 c 0,32,33
 474 714 474 714 525.5 658.5 c 128,-1,34
 577 603 577 603 577 505 c 0,35,36
 577 485 577 485 574.5 462.5 c 128,-1,37
 572 440 572 440 567 417 c 2,38,-1
 536 272 l 2,39,40
 507 132 507 132 433.5 59 c 128,-1,41
 360 -14 360 -14 236 -14 c 0,42,43
 139 -14 139 -14 87.5 41.5 c 128,-1,44
 36 97 36 97 36 195 c 0,45,46
 36 215 36 215 38.5 237.5 c 128,-1,47
 41 260 41 260 46 283 c 2,48,-1
 77 428 l 2,29,30
248 62 m 0,49,50
 289 62 289 62 322.5 77.5 c 128,-1,51
 356 93 356 93 381.5 121.5 c 128,-1,52
 407 150 407 150 424.5 189.5 c 128,-1,53
 442 229 442 229 453 278 c 2,54,-1
 485 428 l 2,55,56
 493 468 493 468 493 498 c 0,57,58
 493 563 493 563 461 600.5 c 128,-1,59
 429 638 429 638 365 638 c 0,60,61
 282 638 282 638 231.5 579 c 128,-1,62
 181 520 181 520 160 422 c 2,63,-1
 128 272 l 2,64,65
 120 232 120 232 120 202 c 0,66,67
 120 137 120 137 152 99.5 c 128,-1,68
 184 62 184 62 248 62 c 0,49,50
262 774 m 1,69,-1
 262 780 l 1,70,-1
 362 892 l 1,71,-1
 486 892 l 1,72,-1
 541 774 l 1,73,-1
 466 774 l 1,74,-1
 427 862 l 1,75,-1
 415 862 l 1,76,-1
 347 774 l 1,77,-1
 262 774 l 1,69,-1
EndSplineSet
EndChar

StartChar: uni01A0
Encoding: 416 416 214
Width: 612
Flags: W
LayerCount: 2
Fore
SplineSet
514 630 m 256,0,1
 514 659 514 659 534.5 679.5 c 128,-1,2
 555 700 555 700 584 700 c 256,3,4
 613 700 613 700 633.5 679.5 c 128,-1,5
 654 659 654 659 654 630 c 0,6,7
 654 623 654 623 653 618 c 2,8,-1
 635 532 l 2,9,10
 627 494 627 494 604 474 c 128,-1,11
 581 454 581 454 542 454 c 2,12,-1
 478 454 l 1,13,-1
 427 218 l 2,14,15
 401 96 401 96 338.5 41 c 128,-1,16
 276 -14 276 -14 184 -14 c 0,17,18
 109 -14 109 -14 61.5 30.5 c 128,-1,19
 14 75 14 75 14 161 c 0,20,21
 14 178 14 178 16 195 c 128,-1,22
 18 212 18 212 22 232 c 2,23,-1
 74 476 l 2,24,25
 98 589 98 589 158.5 651.5 c 128,-1,26
 219 714 219 714 317 714 c 0,27,28
 357 714 357 714 389.5 701.5 c 128,-1,29
 422 689 422 689 444.5 666.5 c 128,-1,30
 467 644 467 644 479 612.5 c 128,-1,31
 491 581 491 581 491 544 c 0,32,33
 491 526 491 526 488 508 c 1,34,-1
 549 508 l 2,35,36
 577 508 577 508 583 538 c 2,37,-1
 588 560 l 1,38,-1
 584 560 l 2,39,40
 555 560 555 560 534.5 580.5 c 128,-1,41
 514 601 514 601 514 630 c 256,0,1
190 62 m 0,42,43
 252 62 252 62 289.5 101.5 c 128,-1,44
 327 141 327 141 345 224 c 2,45,-1
 398 476 l 2,46,47
 406 514 406 514 406 540 c 0,48,49
 406 588 406 588 383 613 c 128,-1,50
 360 638 360 638 309 638 c 0,51,52
 249 638 249 638 212 595.5 c 128,-1,53
 175 553 175 553 158 476 c 2,54,-1
 105 224 l 2,55,56
 97 186 97 186 97 160 c 0,57,58
 97 62 97 62 190 62 c 0,42,43
EndSplineSet
EndChar

StartChar: uni1EDA
Encoding: 7898 7898 215
Width: 612
Flags: W
LayerCount: 2
Fore
SplineSet
514 630 m 256,0,1
 514 659 514 659 534.5 679.5 c 128,-1,2
 555 700 555 700 584 700 c 256,3,4
 613 700 613 700 633.5 679.5 c 128,-1,5
 654 659 654 659 654 630 c 0,6,7
 654 623 654 623 653 618 c 2,8,-1
 635 532 l 2,9,10
 627 494 627 494 604 474 c 128,-1,11
 581 454 581 454 542 454 c 2,12,-1
 478 454 l 1,13,-1
 427 218 l 2,14,15
 401 96 401 96 338.5 41 c 128,-1,16
 276 -14 276 -14 184 -14 c 0,17,18
 109 -14 109 -14 61.5 30.5 c 128,-1,19
 14 75 14 75 14 161 c 0,20,21
 14 178 14 178 16 195 c 128,-1,22
 18 212 18 212 22 232 c 2,23,-1
 74 476 l 2,24,25
 98 589 98 589 158.5 651.5 c 128,-1,26
 219 714 219 714 317 714 c 0,27,28
 357 714 357 714 389.5 701.5 c 128,-1,29
 422 689 422 689 444.5 666.5 c 128,-1,30
 467 644 467 644 479 612.5 c 128,-1,31
 491 581 491 581 491 544 c 0,32,33
 491 526 491 526 488 508 c 1,34,-1
 549 508 l 2,35,36
 577 508 577 508 583 538 c 2,37,-1
 588 560 l 1,38,-1
 584 560 l 2,39,40
 555 560 555 560 534.5 580.5 c 128,-1,41
 514 601 514 601 514 630 c 256,0,1
190 62 m 0,42,43
 252 62 252 62 289.5 101.5 c 128,-1,44
 327 141 327 141 345 224 c 2,45,-1
 398 476 l 2,46,47
 406 514 406 514 406 540 c 0,48,49
 406 588 406 588 383 613 c 128,-1,50
 360 638 360 638 309 638 c 0,51,52
 249 638 249 638 212 595.5 c 128,-1,53
 175 553 175 553 158 476 c 2,54,-1
 105 224 l 2,55,56
 97 186 97 186 97 160 c 0,57,58
 97 62 97 62 190 62 c 0,42,43
478 892 m 1,59,-1
 478 886 l 1,60,-1
 375 774 l 1,61,-1
 295 774 l 1,62,-1
 386 892 l 1,63,-1
 478 892 l 1,59,-1
EndSplineSet
EndChar

StartChar: uni1EDC
Encoding: 7900 7900 216
Width: 612
Flags: W
LayerCount: 2
Fore
SplineSet
514 630 m 256,0,1
 514 659 514 659 534.5 679.5 c 128,-1,2
 555 700 555 700 584 700 c 256,3,4
 613 700 613 700 633.5 679.5 c 128,-1,5
 654 659 654 659 654 630 c 0,6,7
 654 623 654 623 653 618 c 2,8,-1
 635 532 l 2,9,10
 627 494 627 494 604 474 c 128,-1,11
 581 454 581 454 542 454 c 2,12,-1
 478 454 l 1,13,-1
 427 218 l 2,14,15
 401 96 401 96 338.5 41 c 128,-1,16
 276 -14 276 -14 184 -14 c 0,17,18
 109 -14 109 -14 61.5 30.5 c 128,-1,19
 14 75 14 75 14 161 c 0,20,21
 14 178 14 178 16 195 c 128,-1,22
 18 212 18 212 22 232 c 2,23,-1
 74 476 l 2,24,25
 98 589 98 589 158.5 651.5 c 128,-1,26
 219 714 219 714 317 714 c 0,27,28
 357 714 357 714 389.5 701.5 c 128,-1,29
 422 689 422 689 444.5 666.5 c 128,-1,30
 467 644 467 644 479 612.5 c 128,-1,31
 491 581 491 581 491 544 c 0,32,33
 491 526 491 526 488 508 c 1,34,-1
 549 508 l 2,35,36
 577 508 577 508 583 538 c 2,37,-1
 588 560 l 1,38,-1
 584 560 l 2,39,40
 555 560 555 560 534.5 580.5 c 128,-1,41
 514 601 514 601 514 630 c 256,0,1
190 62 m 0,42,43
 252 62 252 62 289.5 101.5 c 128,-1,44
 327 141 327 141 345 224 c 2,45,-1
 398 476 l 2,46,47
 406 514 406 514 406 540 c 0,48,49
 406 588 406 588 383 613 c 128,-1,50
 360 638 360 638 309 638 c 0,51,52
 249 638 249 638 212 595.5 c 128,-1,53
 175 553 175 553 158 476 c 2,54,-1
 105 224 l 2,55,56
 97 186 97 186 97 160 c 0,57,58
 97 62 97 62 190 62 c 0,42,43
321 892 m 1,59,-1
 362 774 l 1,60,-1
 296 774 l 1,61,-1
 237 892 l 1,62,-1
 321 892 l 1,59,-1
EndSplineSet
EndChar

StartChar: uni1EDE
Encoding: 7902 7902 217
Width: 612
Flags: W
LayerCount: 2
Fore
SplineSet
305 750 m 1,0,-1
 305 842 l 1,1,-1
 310 848 l 1,2,-1
 382 848 l 1,3,4
 391 833 391 833 410 833 c 0,5,6
 448 833 448 833 448 874 c 0,7,8
 448 892 448 892 437 903 c 128,-1,9
 426 914 426 914 406 914 c 0,10,11
 388 914 388 914 376 903 c 128,-1,12
 364 892 364 892 359 874 c 1,13,-1
 314 892 l 1,14,15
 326 922 326 922 348.5 942 c 128,-1,16
 371 962 371 962 412 962 c 0,17,18
 451 962 451 962 476.5 938 c 128,-1,19
 502 914 502 914 502 878 c 0,20,21
 502 840 502 840 478 813 c 128,-1,22
 454 786 454 786 418 786 c 0,23,24
 397 786 397 786 381.5 794.5 c 128,-1,25
 366 803 366 803 360 818 c 1,26,-1
 354 818 l 1,27,-1
 354 750 l 1,28,-1
 305 750 l 1,0,-1
514 630 m 256,29,30
 514 659 514 659 534.5 679.5 c 128,-1,31
 555 700 555 700 584 700 c 256,32,33
 613 700 613 700 633.5 679.5 c 128,-1,34
 654 659 654 659 654 630 c 0,35,36
 654 623 654 623 653 618 c 2,37,-1
 635 532 l 2,38,39
 627 494 627 494 604 474 c 128,-1,40
 581 454 581 454 542 454 c 2,41,-1
 478 454 l 1,42,-1
 427 218 l 2,43,44
 401 96 401 96 338.5 41 c 128,-1,45
 276 -14 276 -14 184 -14 c 0,46,47
 109 -14 109 -14 61.5 30.5 c 128,-1,48
 14 75 14 75 14 161 c 0,49,50
 14 178 14 178 16 195 c 128,-1,51
 18 212 18 212 22 232 c 2,52,-1
 74 476 l 2,53,54
 98 589 98 589 158.5 651.5 c 128,-1,55
 219 714 219 714 317 714 c 0,56,57
 357 714 357 714 389.5 701.5 c 128,-1,58
 422 689 422 689 444.5 666.5 c 128,-1,59
 467 644 467 644 479 612.5 c 128,-1,60
 491 581 491 581 491 544 c 0,61,62
 491 526 491 526 488 508 c 1,63,-1
 549 508 l 2,64,65
 577 508 577 508 583 538 c 2,66,-1
 588 560 l 1,67,-1
 584 560 l 2,68,69
 555 560 555 560 534.5 580.5 c 128,-1,70
 514 601 514 601 514 630 c 256,29,30
190 62 m 0,71,72
 252 62 252 62 289.5 101.5 c 128,-1,73
 327 141 327 141 345 224 c 2,74,-1
 398 476 l 2,75,76
 406 514 406 514 406 540 c 0,77,78
 406 588 406 588 383 613 c 128,-1,79
 360 638 360 638 309 638 c 0,80,81
 249 638 249 638 212 595.5 c 128,-1,82
 175 553 175 553 158 476 c 2,83,-1
 105 224 l 2,84,85
 97 186 97 186 97 160 c 0,86,87
 97 62 97 62 190 62 c 0,71,72
EndSplineSet
EndChar

StartChar: uni1EE0
Encoding: 7904 7904 218
Width: 612
Flags: W
LayerCount: 2
Fore
SplineSet
514 630 m 256,0,1
 514 659 514 659 534.5 679.5 c 128,-1,2
 555 700 555 700 584 700 c 256,3,4
 613 700 613 700 633.5 679.5 c 128,-1,5
 654 659 654 659 654 630 c 0,6,7
 654 623 654 623 653 618 c 2,8,-1
 635 532 l 2,9,10
 627 494 627 494 604 474 c 128,-1,11
 581 454 581 454 542 454 c 2,12,-1
 478 454 l 1,13,-1
 427 218 l 2,14,15
 401 96 401 96 338.5 41 c 128,-1,16
 276 -14 276 -14 184 -14 c 0,17,18
 109 -14 109 -14 61.5 30.5 c 128,-1,19
 14 75 14 75 14 161 c 0,20,21
 14 178 14 178 16 195 c 128,-1,22
 18 212 18 212 22 232 c 2,23,-1
 74 476 l 2,24,25
 98 589 98 589 158.5 651.5 c 128,-1,26
 219 714 219 714 317 714 c 0,27,28
 357 714 357 714 389.5 701.5 c 128,-1,29
 422 689 422 689 444.5 666.5 c 128,-1,30
 467 644 467 644 479 612.5 c 128,-1,31
 491 581 491 581 491 544 c 0,32,33
 491 526 491 526 488 508 c 1,34,-1
 549 508 l 2,35,36
 577 508 577 508 583 538 c 2,37,-1
 588 560 l 1,38,-1
 584 560 l 2,39,40
 555 560 555 560 534.5 580.5 c 128,-1,41
 514 601 514 601 514 630 c 256,0,1
190 62 m 0,42,43
 252 62 252 62 289.5 101.5 c 128,-1,44
 327 141 327 141 345 224 c 2,45,-1
 398 476 l 2,46,47
 406 514 406 514 406 540 c 0,48,49
 406 588 406 588 383 613 c 128,-1,50
 360 638 360 638 309 638 c 0,51,52
 249 638 249 638 212 595.5 c 128,-1,53
 175 553 175 553 158 476 c 2,54,-1
 105 224 l 2,55,56
 97 186 97 186 97 160 c 0,57,58
 97 62 97 62 190 62 c 0,42,43
391 846 m 0,59,60
 396 836 396 836 401 831 c 128,-1,61
 406 826 406 826 415 826 c 0,62,63
 425 826 425 826 434 836 c 2,64,-1
 482 891 l 1,65,-1
 531 849 l 1,66,-1
 490 800 l 2,67,68
 476 783 476 783 457 770.5 c 128,-1,69
 438 758 438 758 412 758 c 0,70,71
 381 758 381 758 364.5 772 c 128,-1,72
 348 786 348 786 331 817 c 0,73,74
 324 829 324 829 319.5 834 c 128,-1,75
 315 839 315 839 307 839 c 0,76,77
 296 839 296 839 285 827 c 2,78,-1
 239 774 l 1,79,-1
 190 816 l 1,80,-1
 231 865 l 2,81,82
 245 882 245 882 264 894.5 c 128,-1,83
 283 907 283 907 310 907 c 0,84,85
 339 907 339 907 356 892.5 c 128,-1,86
 373 878 373 878 391 846 c 0,59,60
EndSplineSet
EndChar

StartChar: uni1EE2
Encoding: 7906 7906 219
Width: 612
Flags: W
LayerCount: 2
Fore
SplineSet
514 630 m 256,0,1
 514 659 514 659 534.5 679.5 c 128,-1,2
 555 700 555 700 584 700 c 256,3,4
 613 700 613 700 633.5 679.5 c 128,-1,5
 654 659 654 659 654 630 c 0,6,7
 654 623 654 623 653 618 c 2,8,-1
 635 532 l 2,9,10
 627 494 627 494 604 474 c 128,-1,11
 581 454 581 454 542 454 c 2,12,-1
 478 454 l 1,13,-1
 427 218 l 2,14,15
 401 96 401 96 338.5 41 c 128,-1,16
 276 -14 276 -14 184 -14 c 0,17,18
 109 -14 109 -14 61.5 30.5 c 128,-1,19
 14 75 14 75 14 161 c 0,20,21
 14 178 14 178 16 195 c 128,-1,22
 18 212 18 212 22 232 c 2,23,-1
 74 476 l 2,24,25
 98 589 98 589 158.5 651.5 c 128,-1,26
 219 714 219 714 317 714 c 0,27,28
 357 714 357 714 389.5 701.5 c 128,-1,29
 422 689 422 689 444.5 666.5 c 128,-1,30
 467 644 467 644 479 612.5 c 128,-1,31
 491 581 491 581 491 544 c 0,32,33
 491 526 491 526 488 508 c 1,34,-1
 549 508 l 2,35,36
 577 508 577 508 583 538 c 2,37,-1
 588 560 l 1,38,-1
 584 560 l 2,39,40
 555 560 555 560 534.5 580.5 c 128,-1,41
 514 601 514 601 514 630 c 256,0,1
190 62 m 0,42,43
 252 62 252 62 289.5 101.5 c 128,-1,44
 327 141 327 141 345 224 c 2,45,-1
 398 476 l 2,46,47
 406 514 406 514 406 540 c 0,48,49
 406 588 406 588 383 613 c 128,-1,50
 360 638 360 638 309 638 c 0,51,52
 249 638 249 638 212 595.5 c 128,-1,53
 175 553 175 553 158 476 c 2,54,-1
 105 224 l 2,55,56
 97 186 97 186 97 160 c 0,57,58
 97 62 97 62 190 62 c 0,42,43
111 -134 m 256,59,60
 111 -105 111 -105 131.5 -84.5 c 128,-1,61
 152 -64 152 -64 181 -64 c 256,62,63
 210 -64 210 -64 230.5 -84.5 c 128,-1,64
 251 -105 251 -105 251 -134 c 256,65,66
 251 -163 251 -163 230.5 -183.5 c 128,-1,67
 210 -204 210 -204 181 -204 c 256,68,69
 152 -204 152 -204 131.5 -183.5 c 128,-1,70
 111 -163 111 -163 111 -134 c 256,59,60
EndSplineSet
EndChar

StartChar: Oslash
Encoding: 216 216 220
Width: 612
Flags: W
LayerCount: 2
Fore
SplineSet
77 428 m 2,0,1
 106 568 106 568 179.5 641 c 128,-1,2
 253 714 253 714 377 714 c 0,3,4
 420 714 420 714 457 701 c 1,5,-1
 497 774 l 1,6,-1
 557 740 l 1,7,-1
 517 666 l 1,8,9
 577 611 577 611 577 505 c 0,10,11
 577 485 577 485 574.5 462.5 c 128,-1,12
 572 440 572 440 567 417 c 2,13,-1
 536 272 l 2,14,15
 507 132 507 132 433.5 59 c 128,-1,16
 360 -14 360 -14 236 -14 c 0,17,18
 192 -14 192 -14 156 -2 c 1,19,-1
 111 -86 l 1,20,-1
 51 -51 l 1,21,-1
 96 33 l 1,22,23
 36 88 36 88 36 195 c 0,24,25
 36 215 36 215 38.5 237.5 c 128,-1,26
 41 260 41 260 46 283 c 2,27,-1
 77 428 l 2,0,1
120 202 m 0,28,29
 120 148 120 148 140 115 c 1,30,-1
 418 629 l 1,31,32
 395 638 395 638 365 638 c 0,33,34
 282 638 282 638 231.5 579 c 128,-1,35
 181 520 181 520 160 422 c 2,36,-1
 128 272 l 2,37,38
 120 232 120 232 120 202 c 0,28,29
248 62 m 0,39,40
 289 62 289 62 322.5 77.5 c 128,-1,41
 356 93 356 93 381.5 121.5 c 128,-1,42
 407 150 407 150 424.5 189.5 c 128,-1,43
 442 229 442 229 453 278 c 2,44,-1
 485 428 l 2,45,46
 493 468 493 468 493 498 c 0,47,48
 493 549 493 549 473 584 c 1,49,-1
 195 70 l 1,50,51
 219 62 219 62 248 62 c 0,39,40
EndSplineSet
EndChar

StartChar: OE
Encoding: 338 338 221
Width: 612
Flags: W
LayerCount: 2
Fore
SplineSet
233 0 m 2,0,1
 136 0 136 0 85 52.5 c 128,-1,2
 34 105 34 105 34 199 c 0,3,4
 34 219 34 219 36.5 239 c 128,-1,5
 39 259 39 259 44 286 c 2,6,-1
 73 424 l 2,7,8
 101 558 101 558 175.5 629 c 128,-1,9
 250 700 250 700 375 700 c 2,10,-1
 605 700 l 1,11,-1
 605 622 l 1,12,-1
 442 622 l 1,13,-1
 393 390 l 1,14,-1
 533 390 l 1,15,-1
 533 312 l 1,16,-1
 376 312 l 1,17,-1
 327 78 l 1,18,-1
 479 78 l 1,19,-1
 479 0 l 1,20,-1
 233 0 l 2,0,1
358 622 m 1,21,22
 279 622 279 622 228.5 569.5 c 128,-1,23
 178 517 178 517 156 416 c 2,24,-1
 127 282 l 2,25,26
 122 259 122 259 119.5 239.5 c 128,-1,27
 117 220 117 220 117 203 c 0,28,29
 117 78 117 78 243 78 c 1,30,-1
 358 622 l 1,21,22
EndSplineSet
EndChar

StartChar: Scedilla
Encoding: 350 350 232
Width: 612
Flags: W
LayerCount: 2
Fore
SplineSet
497 488 m 2,0,1
 501 508 501 508 501 522 c 0,2,3
 501 551 501 551 490 572.5 c 128,-1,4
 479 594 479 594 459.5 608 c 128,-1,5
 440 622 440 622 414.5 629 c 128,-1,6
 389 636 389 636 360 636 c 0,7,8
 327 636 327 636 295 628 c 128,-1,9
 263 620 263 620 238 604 c 128,-1,10
 213 588 213 588 197.5 565.5 c 128,-1,11
 182 543 182 543 182 513 c 0,12,13
 182 484 182 484 193.5 464.5 c 128,-1,14
 205 445 205 445 227 431.5 c 128,-1,15
 249 418 249 418 280.5 409.5 c 128,-1,16
 312 401 312 401 353 394 c 0,17,18
 445 379 445 379 488 334.5 c 128,-1,19
 531 290 531 290 531 217 c 0,20,21
 531 161 531 161 509.5 118 c 128,-1,22
 488 75 488 75 450 45.5 c 128,-1,23
 412 16 412 16 360.5 1 c 128,-1,24
 309 -14 309 -14 249 -14 c 2,25,-1
 241 -14 l 1,26,-1
 222 -68 l 1,27,-1
 228 -68 l 1,28,29
 245 -36 245 -36 282 -36 c 0,30,31
 315 -36 315 -36 332.5 -58 c 128,-1,32
 350 -80 350 -80 350 -110 c 0,33,34
 350 -155 350 -155 324.5 -183.5 c 128,-1,35
 299 -212 299 -212 246 -212 c 0,36,37
 205 -212 205 -212 181 -192.5 c 128,-1,38
 157 -173 157 -173 152 -142 c 1,39,-1
 202 -125 l 1,40,41
 204 -141 204 -141 214.5 -152.5 c 128,-1,42
 225 -164 225 -164 248 -164 c 256,43,44
 271 -164 271 -164 283.5 -151.5 c 128,-1,45
 296 -139 296 -139 296 -118 c 0,46,47
 296 -100 296 -100 286.5 -92 c 128,-1,48
 277 -84 277 -84 264 -84 c 0,49,50
 253 -84 253 -84 247 -88 c 128,-1,51
 241 -92 241 -92 237 -98 c 1,52,-1
 162 -98 l 1,53,-1
 162 -86 l 1,54,-1
 188 -9 l 1,55,56
 103 5 103 5 61 55.5 c 128,-1,57
 19 106 19 106 19 181 c 0,58,59
 19 210 19 210 25 242 c 2,60,-1
 31 272 l 1,61,-1
 115 272 l 1,62,-1
 110 248 l 2,63,64
 104 218 104 218 104 193 c 0,65,66
 104 127 104 127 144 95.5 c 128,-1,67
 184 64 184 64 259 64 c 0,68,69
 295 64 295 64 328.5 74 c 128,-1,70
 362 84 362 84 387.5 102.5 c 128,-1,71
 413 121 413 121 428.5 147.5 c 128,-1,72
 444 174 444 174 444 207 c 0,73,74
 444 235 444 235 435.5 254.5 c 128,-1,75
 427 274 427 274 408 287.5 c 128,-1,76
 389 301 389 301 358.5 310 c 128,-1,77
 328 319 328 319 285 326 c 0,78,79
 243 333 243 333 208.5 346 c 128,-1,80
 174 359 174 359 149 380 c 128,-1,81
 124 401 124 401 110 430.5 c 128,-1,82
 96 460 96 460 96 500 c 0,83,84
 96 551 96 551 117 591 c 128,-1,85
 138 631 138 631 174.5 658 c 128,-1,86
 211 685 211 685 260.5 699.5 c 128,-1,87
 310 714 310 714 367 714 c 0,88,89
 419 714 419 714 460 700 c 128,-1,90
 501 686 501 686 529 662 c 128,-1,91
 557 638 557 638 572 606 c 128,-1,92
 587 574 587 574 587 538 c 0,93,94
 587 528 587 528 586 518 c 128,-1,95
 585 508 585 508 583 498 c 2,96,-1
 575 462 l 1,97,-1
 491 462 l 1,98,-1
 497 488 l 2,0,1
EndSplineSet
Substitution2: "'locl' Localized Forms in Latin lookup 12 subtable" uni0218
Substitution2: "'locl' Localized Forms in Latin lookup 11 subtable" uni0218
Substitution2: "'aalt' Access All Alternates in Latin lookup 0 subtable" uni0218
EndChar

StartChar: uni1E9E
Encoding: 7838 7838 235
Width: 612
Flags: W
LayerCount: 2
Fore
SplineSet
262 348 m 1,0,-1
 262 468 l 1,1,-1
 504 611 l 1,2,-1
 504 622 l 1,3,-1
 360 622 l 2,4,5
 300 622 300 622 262.5 592 c 128,-1,6
 225 562 225 562 211 496 c 2,7,-1
 105 0 l 1,8,-1
 21 0 l 1,9,-1
 110 418 l 1,10,-1
 50 418 l 1,11,-1
 50 496 l 1,12,-1
 127 496 l 1,13,-1
 130 510 l 2,14,15
 171 700 171 700 366 700 c 2,16,-1
 576 700 l 1,17,-1
 576 576 l 1,18,-1
 328 426 l 1,19,-1
 328 414 l 1,20,-1
 374 414 l 2,21,22
 410 414 410 414 441 403.5 c 128,-1,23
 472 393 472 393 495 371 c 128,-1,24
 518 349 518 349 531 315.5 c 128,-1,25
 544 282 544 282 544 236 c 0,26,27
 544 183 544 183 524 140 c 128,-1,28
 504 97 504 97 466.5 65.5 c 128,-1,29
 429 34 429 34 375 17 c 128,-1,30
 321 0 321 0 254 0 c 2,31,-1
 183 0 l 1,32,-1
 183 78 l 1,33,-1
 269 78 l 2,34,35
 311 78 311 78 346.5 89 c 128,-1,36
 382 100 382 100 407 120 c 128,-1,37
 432 140 432 140 446 169 c 128,-1,38
 460 198 460 198 460 234 c 0,39,40
 460 293 460 293 428.5 320.5 c 128,-1,41
 397 348 397 348 340 348 c 2,42,-1
 262 348 l 1,0,-1
EndSplineSet
EndChar

StartChar: uni0162
Encoding: 354 354 237
Width: 612
Flags: W
LayerCount: 2
Fore
SplineSet
103 700 m 1,0,-1
 606 700 l 1,1,-1
 606 622 l 1,2,-1
 403 622 l 1,3,-1
 271 0 l 1,4,-1
 242 0 l 1,5,-1
 226 -68 l 1,6,-1
 232 -68 l 1,7,8
 249 -36 249 -36 288 -36 c 0,9,10
 321 -36 321 -36 338.5 -58 c 128,-1,11
 356 -80 356 -80 356 -110 c 0,12,13
 356 -155 356 -155 330.5 -183.5 c 128,-1,14
 305 -212 305 -212 252 -212 c 0,15,16
 211 -212 211 -212 187 -192.5 c 128,-1,17
 163 -173 163 -173 158 -142 c 1,18,-1
 208 -125 l 1,19,20
 210 -141 210 -141 220.5 -152.5 c 128,-1,21
 231 -164 231 -164 254 -164 c 256,22,23
 277 -164 277 -164 289.5 -151.5 c 128,-1,24
 302 -139 302 -139 302 -118 c 0,25,26
 302 -100 302 -100 292.5 -92 c 128,-1,27
 283 -84 283 -84 270 -84 c 0,28,29
 259 -84 259 -84 253 -88 c 128,-1,30
 247 -92 247 -92 243 -98 c 1,31,-1
 168 -98 l 1,32,-1
 168 -86 l 1,33,-1
 319 622 l 1,34,-1
 103 622 l 1,35,-1
 103 700 l 1,0,-1
EndSplineSet
Substitution2: "'locl' Localized Forms in Latin lookup 12 subtable" uni021A
Substitution2: "'locl' Localized Forms in Latin lookup 11 subtable" uni021A
Substitution2: "'aalt' Access All Alternates in Latin lookup 0 subtable" uni021A
EndChar

StartChar: Tbar
Encoding: 358 358 241
Width: 612
Flags: W
LayerCount: 2
Fore
SplineSet
116 700 m 1,0,-1
 607 700 l 1,1,-1
 607 622 l 1,2,-1
 404 622 l 1,3,-1
 363 428 l 1,4,-1
 503 428 l 1,5,-1
 503 350 l 1,6,-1
 346 350 l 1,7,-1
 272 0 l 1,8,-1
 188 0 l 1,9,-1
 262 350 l 1,10,-1
 123 350 l 1,11,-1
 123 428 l 1,12,-1
 279 428 l 1,13,-1
 320 622 l 1,14,-1
 116 622 l 1,15,-1
 116 700 l 1,0,-1
EndSplineSet
EndChar

StartChar: Uogonek
Encoding: 370 370 252
Width: 612
Flags: W
LayerCount: 2
Fore
SplineSet
226 700 m 1,0,-1
 128 236 l 2,1,2
 125 220 125 220 123 205.5 c 128,-1,3
 121 191 121 191 121 178 c 0,4,5
 121 62 121 62 244 62 c 0,6,7
 319 62 319 62 367.5 106 c 128,-1,8
 416 150 416 150 434 236 c 2,9,-1
 532 700 l 1,10,-1
 616 700 l 1,11,-1
 518 236 l 2,12,13
 488 95 488 95 405 34 c 2,14,-1
 267 -67 l 2,15,16
 263 -70 263 -70 260 -74 c 128,-1,17
 257 -78 257 -78 257 -84 c 0,18,19
 257 -98 257 -98 273 -98 c 2,20,-1
 360 -98 l 1,21,-1
 360 -164 l 1,22,-1
 256 -164 l 2,23,24
 223 -164 223 -164 202.5 -142.5 c 128,-1,25
 182 -121 182 -121 182 -92 c 0,26,27
 182 -74 182 -74 192 -55 c 128,-1,28
 202 -36 202 -36 223 -21 c 2,29,-1
 233 -14 l 1,30,31
 189 -14 189 -14 153 -2 c 128,-1,32
 117 10 117 10 91.5 33.5 c 128,-1,33
 66 57 66 57 51.5 91 c 128,-1,34
 37 125 37 125 37 170 c 0,35,36
 37 187 37 187 38.5 204.5 c 128,-1,37
 40 222 40 222 45 242 c 2,38,-1
 142 700 l 1,39,-1
 226 700 l 1,0,-1
EndSplineSet
EndChar

StartChar: uni1EE6
Encoding: 7910 7910 258
Width: 612
Flags: W
LayerCount: 2
Fore
SplineSet
356 750 m 1,0,-1
 356 842 l 1,1,-1
 361 848 l 1,2,-1
 433 848 l 1,3,4
 442 833 442 833 461 833 c 0,5,6
 499 833 499 833 499 874 c 0,7,8
 499 892 499 892 488 903 c 128,-1,9
 477 914 477 914 457 914 c 0,10,11
 439 914 439 914 427 903 c 128,-1,12
 415 892 415 892 410 874 c 1,13,-1
 365 892 l 1,14,15
 377 922 377 922 399.5 942 c 128,-1,16
 422 962 422 962 463 962 c 0,17,18
 502 962 502 962 527.5 938 c 128,-1,19
 553 914 553 914 553 878 c 0,20,21
 553 840 553 840 529 813 c 128,-1,22
 505 786 505 786 469 786 c 0,23,24
 448 786 448 786 432.5 794.5 c 128,-1,25
 417 803 417 803 411 818 c 1,26,-1
 405 818 l 1,27,-1
 405 750 l 1,28,-1
 356 750 l 1,0,-1
226 700 m 1,29,-1
 128 236 l 2,30,31
 125 220 125 220 123 205.5 c 128,-1,32
 121 191 121 191 121 178 c 0,33,34
 121 62 121 62 244 62 c 0,35,36
 319 62 319 62 367.5 106 c 128,-1,37
 416 150 416 150 434 236 c 2,38,-1
 532 700 l 1,39,-1
 616 700 l 1,40,-1
 518 236 l 2,41,42
 492 111 492 111 423.5 48.5 c 128,-1,43
 355 -14 355 -14 232 -14 c 0,44,45
 189 -14 189 -14 153 -2 c 128,-1,46
 117 10 117 10 91.5 33.5 c 128,-1,47
 66 57 66 57 51.5 91 c 128,-1,48
 37 125 37 125 37 170 c 0,49,50
 37 187 37 187 38.5 204.5 c 128,-1,51
 40 222 40 222 45 242 c 2,52,-1
 142 700 l 1,53,-1
 226 700 l 1,29,-1
EndSplineSet
EndChar

StartChar: uni01AF
Encoding: 431 431 259
Width: 612
Flags: W
LayerCount: 2
Fore
SplineSet
531 630 m 256,0,1
 531 659 531 659 551.5 679.5 c 128,-1,2
 572 700 572 700 601 700 c 256,3,4
 630 700 630 700 650.5 679.5 c 128,-1,5
 671 659 671 659 671 630 c 0,6,7
 671 623 671 623 670 618 c 2,8,-1
 652 532 l 2,9,10
 644 494 644 494 621 474 c 128,-1,11
 598 454 598 454 559 454 c 2,12,-1
 459 454 l 1,13,-1
 406 202 l 2,14,15
 394 143 394 143 372 102 c 128,-1,16
 350 61 350 61 319.5 35 c 128,-1,17
 289 9 289 9 250.5 -2.5 c 128,-1,18
 212 -14 212 -14 167 -14 c 0,19,20
 132 -14 132 -14 102.5 -4 c 128,-1,21
 73 6 73 6 51.5 26 c 128,-1,22
 30 46 30 46 17.5 77 c 128,-1,23
 5 108 5 108 5 149 c 0,24,25
 5 165 5 165 7 181.5 c 128,-1,26
 9 198 9 198 13 217 c 2,27,-1
 115 700 l 1,28,-1
 199 700 l 1,29,-1
 94 206 l 2,30,31
 88 177 88 177 88 155 c 0,32,33
 88 106 88 106 112.5 84 c 128,-1,34
 137 62 137 62 178 62 c 0,35,36
 234 62 234 62 270 96.5 c 128,-1,37
 306 131 306 131 322 206 c 2,38,-1
 427 700 l 1,39,-1
 511 700 l 1,40,-1
 471 508 l 1,41,-1
 566 508 l 2,42,43
 594 508 594 508 600 538 c 2,44,-1
 605 560 l 1,45,-1
 601 560 l 2,46,47
 572 560 572 560 551.5 580.5 c 128,-1,48
 531 601 531 601 531 630 c 256,0,1
EndSplineSet
EndChar

StartChar: uni1EEC
Encoding: 7916 7916 262
Width: 612
Flags: W
LayerCount: 2
Fore
SplineSet
286 750 m 1,0,-1
 286 842 l 1,1,-1
 291 848 l 1,2,-1
 363 848 l 1,3,4
 370 834 370 834 389 834 c 0,5,6
 407 834 407 834 418 846.5 c 128,-1,7
 429 859 429 859 429 876 c 256,8,9
 429 893 429 893 419.5 903.5 c 128,-1,10
 410 914 410 914 393 914 c 0,11,12
 371 914 371 914 359 901.5 c 128,-1,13
 347 889 347 889 340 874 c 1,14,-1
 296 892 l 1,15,16
 309 922 309 922 334 942 c 128,-1,17
 359 962 359 962 398 962 c 0,18,19
 436 962 436 962 460 938 c 128,-1,20
 484 914 484 914 484 878 c 0,21,22
 484 859 484 859 477 842.5 c 128,-1,23
 470 826 470 826 457.5 813.5 c 128,-1,24
 445 801 445 801 428.5 793.5 c 128,-1,25
 412 786 412 786 393 786 c 0,26,27
 354 786 354 786 341 818 c 1,28,-1
 335 818 l 1,29,-1
 335 750 l 1,30,-1
 286 750 l 1,0,-1
531 630 m 256,31,32
 531 659 531 659 551.5 679.5 c 128,-1,33
 572 700 572 700 601 700 c 256,34,35
 630 700 630 700 650.5 679.5 c 128,-1,36
 671 659 671 659 671 630 c 0,37,38
 671 623 671 623 670 618 c 2,39,-1
 652 532 l 2,40,41
 644 494 644 494 621 474 c 128,-1,42
 598 454 598 454 559 454 c 2,43,-1
 459 454 l 1,44,-1
 406 202 l 2,45,46
 394 143 394 143 372 102 c 128,-1,47
 350 61 350 61 319.5 35 c 128,-1,48
 289 9 289 9 250.5 -2.5 c 128,-1,49
 212 -14 212 -14 167 -14 c 0,50,51
 132 -14 132 -14 102.5 -4 c 128,-1,52
 73 6 73 6 51.5 26 c 128,-1,53
 30 46 30 46 17.5 77 c 128,-1,54
 5 108 5 108 5 149 c 0,55,56
 5 165 5 165 7 181.5 c 128,-1,57
 9 198 9 198 13 217 c 2,58,-1
 115 700 l 1,59,-1
 199 700 l 1,60,-1
 94 206 l 2,61,62
 88 177 88 177 88 155 c 0,63,64
 88 106 88 106 112.5 84 c 128,-1,65
 137 62 137 62 178 62 c 0,66,67
 234 62 234 62 270 96.5 c 128,-1,68
 306 131 306 131 322 206 c 2,69,-1
 427 700 l 1,70,-1
 511 700 l 1,71,-1
 471 508 l 1,72,-1
 566 508 l 2,73,74
 594 508 594 508 600 538 c 2,75,-1
 605 560 l 1,76,-1
 601 560 l 2,77,78
 572 560 572 560 551.5 580.5 c 128,-1,79
 531 601 531 601 531 630 c 256,31,32
EndSplineSet
EndChar

StartChar: uni1EF6
Encoding: 7926 7926 275
Width: 612
Flags: W
LayerCount: 2
Fore
SplineSet
338 750 m 1,0,-1
 338 842 l 1,1,-1
 343 848 l 1,2,-1
 415 848 l 1,3,4
 424 833 424 833 443 833 c 0,5,6
 481 833 481 833 481 874 c 0,7,8
 481 892 481 892 470 903 c 128,-1,9
 459 914 459 914 439 914 c 0,10,11
 421 914 421 914 409 903 c 128,-1,12
 397 892 397 892 392 874 c 1,13,-1
 347 892 l 1,14,15
 359 922 359 922 381.5 942 c 128,-1,16
 404 962 404 962 445 962 c 0,17,18
 484 962 484 962 509.5 938 c 128,-1,19
 535 914 535 914 535 878 c 0,20,21
 535 840 535 840 511 813 c 128,-1,22
 487 786 487 786 451 786 c 0,23,24
 430 786 430 786 414.5 794.5 c 128,-1,25
 399 803 399 803 393 818 c 1,26,-1
 387 818 l 1,27,-1
 387 750 l 1,28,-1
 338 750 l 1,0,-1
236 246 m 1,29,-1
 218 246 l 1,30,-1
 96 700 l 1,31,-1
 183 700 l 1,32,-1
 281 318 l 1,33,-1
 293 318 l 1,34,-1
 553 700 l 1,35,-1
 650 700 l 1,36,-1
 650 694 l 1,37,-1
 338 246 l 1,38,-1
 320 246 l 1,39,-1
 268 0 l 1,40,-1
 184 0 l 1,41,-1
 236 246 l 1,29,-1
EndSplineSet
EndChar

StartChar: Thorn
Encoding: 222 222 281
Width: 612
Flags: W
LayerCount: 2
Fore
SplineSet
128 150 m 1,0,-1
 96 0 l 1,1,-1
 12 0 l 1,2,-1
 161 700 l 1,3,-1
 245 700 l 1,4,-1
 216 562 l 1,5,-1
 360 562 l 2,6,7
 405 562 405 562 440.5 549.5 c 128,-1,8
 476 537 476 537 500.5 515 c 128,-1,9
 525 493 525 493 538.5 462 c 128,-1,10
 552 431 552 431 552 395 c 0,11,12
 552 343 552 343 534 298 c 128,-1,13
 516 253 516 253 481.5 220 c 128,-1,14
 447 187 447 187 398 168.5 c 128,-1,15
 349 150 349 150 288 150 c 2,16,-1
 128 150 l 1,0,-1
145 228 m 1,17,-1
 295 228 l 2,18,19
 332 228 332 228 363.5 238.5 c 128,-1,20
 395 249 395 249 417.5 268.5 c 128,-1,21
 440 288 440 288 453 316.5 c 128,-1,22
 466 345 466 345 466 380 c 0,23,24
 466 433 466 433 435.5 458.5 c 128,-1,25
 405 484 405 484 348 484 c 2,26,-1
 199 484 l 1,27,-1
 145 228 l 1,17,-1
EndSplineSet
EndChar

StartChar: uni018F
Encoding: 399 399 282
Width: 612
Flags: W
LayerCount: 2
Fore
SplineSet
59 362 m 1,0,-1
 467 362 l 1,1,-1
 481 429 l 2,2,3
 486 450 486 450 487.5 465 c 128,-1,4
 489 480 489 480 489 496 c 0,5,6
 489 559 489 559 456.5 598.5 c 128,-1,7
 424 638 424 638 354 638 c 0,8,9
 315 638 315 638 283.5 624.5 c 128,-1,10
 252 611 252 611 228 588 c 128,-1,11
 204 565 204 565 188 533.5 c 128,-1,12
 172 502 172 502 164 466 c 2,13,-1
 160 448 l 1,14,-1
 77 448 l 1,15,-1
 82 472 l 2,16,17
 92 523 92 523 115 567 c 128,-1,18
 138 611 138 611 172.5 644 c 128,-1,19
 207 677 207 677 254.5 695.5 c 128,-1,20
 302 714 302 714 362 714 c 0,21,22
 412 714 412 714 451 698.5 c 128,-1,23
 490 683 490 683 517 655 c 128,-1,24
 544 627 544 627 558 587.5 c 128,-1,25
 572 548 572 548 572 499 c 0,26,27
 572 459 572 459 563 416 c 2,28,-1
 532 272 l 2,29,30
 500 126 500 126 429.5 56 c 128,-1,31
 359 -14 359 -14 239 -14 c 0,32,33
 187 -14 187 -14 147.5 1 c 128,-1,34
 108 16 108 16 81.5 43 c 128,-1,35
 55 70 55 70 41.5 106.5 c 128,-1,36
 28 143 28 143 28 186 c 0,37,38
 28 201 28 201 29.5 217 c 128,-1,39
 31 233 31 233 35 250 c 2,40,-1
 59 362 l 1,0,-1
252 62 m 0,41,42
 330 62 330 62 378.5 118.5 c 128,-1,43
 427 175 427 175 449 278 c 1,44,-1
 450 284 l 1,45,-1
 126 284 l 1,46,-1
 117 240 l 2,47,48
 114 225 114 225 113 213.5 c 128,-1,49
 112 202 112 202 112 190 c 0,50,51
 112 163 112 163 119.5 140 c 128,-1,52
 127 117 127 117 143.5 99.5 c 128,-1,53
 160 82 160 82 186.5 72 c 128,-1,54
 213 62 213 62 252 62 c 0,41,42
EndSplineSet
EndChar

StartChar: Eng
Encoding: 330 330 283
Width: 612
Flags: W
LayerCount: 2
Fore
SplineSet
364 36 m 1,0,-1
 376 36 l 1,1,-1
 517 700 l 1,2,-1
 601 700 l 1,3,-1
 435 -80 l 2,4,5
 421 -145 421 -145 385 -172.5 c 128,-1,6
 349 -200 349 -200 290 -200 c 2,7,-1
 128 -200 l 1,8,-1
 128 -122 l 1,9,-1
 288 -122 l 2,10,11
 318 -122 318 -122 333 -110 c 128,-1,12
 348 -98 348 -98 354 -68 c 2,13,-1
 368 0 l 1,14,-1
 287 0 l 1,15,-1
 247 664 l 1,16,-1
 235 664 l 1,17,-1
 94 0 l 1,18,-1
 10 0 l 1,19,-1
 159 700 l 1,20,-1
 324 700 l 1,21,-1
 364 36 l 1,0,-1
EndSplineSet
EndChar

StartChar: IJ
Encoding: 306 306 284
Width: 612
Flags: W
LayerCount: 2
Fore
SplineSet
149 700 m 1,0,-1
 233 700 l 1,1,-1
 157 342 l 1,2,-1
 73 342 l 1,3,-1
 149 700 l 1,0,-1
630 622 m 1,4,-1
 564 622 l 1,5,-1
 475 206 l 2,6,7
 464 154 464 154 444.5 113.5 c 128,-1,8
 425 73 425 73 394.5 44.5 c 128,-1,9
 364 16 364 16 322 1 c 128,-1,10
 280 -14 280 -14 224 -14 c 0,11,12
 136 -14 136 -14 87 32 c 128,-1,13
 38 78 38 78 38 155 c 0,14,15
 38 181 38 181 44 210 c 2,16,-1
 56 264 l 1,17,-1
 140 264 l 1,18,-1
 128 210 l 2,19,20
 122 183 122 183 122 160 c 0,21,22
 122 64 122 64 235 64 c 0,23,24
 305 64 305 64 341.5 104.5 c 128,-1,25
 378 145 378 145 392 210 c 2,26,-1
 480 622 l 1,27,-1
 402 622 l 1,28,-1
 402 700 l 1,29,-1
 630 700 l 1,30,-1
 630 622 l 1,4,-1
EndSplineSet
Substitution2: "'ss01' Style Set 1 in Latin lookup 2 subtable" IJ.alt
Substitution2: "'aalt' Access All Alternates in Latin lookup 0 subtable" IJ.alt
EndChar

StartChar: aogonek
Encoding: 261 261 295
Width: 612
Flags: W
LayerCount: 2
Fore
SplineSet
347 78 m 1,0,1
 316 25 316 25 273.5 5.5 c 128,-1,2
 231 -14 231 -14 184 -14 c 0,3,4
 144 -14 144 -14 112 0.5 c 128,-1,5
 80 15 80 15 58 41 c 128,-1,6
 36 67 36 67 24 103.5 c 128,-1,7
 12 140 12 140 12 184 c 0,8,9
 12 247 12 247 30 306 c 128,-1,10
 48 365 48 365 82.5 410 c 128,-1,11
 117 455 117 455 168 482.5 c 128,-1,12
 219 510 219 510 286 510 c 0,13,14
 337 510 337 510 373 486.5 c 128,-1,15
 409 463 409 463 420 418 c 1,16,-1
 432 418 l 1,17,-1
 448 496 l 1,18,-1
 526 496 l 1,19,-1
 438 84 l 2,20,21
 436 75 436 75 440 70.5 c 128,-1,22
 444 66 444 66 451 66 c 256,23,24
 458 66 458 66 465 71 c 2,25,-1
 501 97 l 1,26,-1
 543 38 l 1,27,-1
 402 -67 l 2,28,29
 391 -75 391 -75 391 -84 c 0,30,31
 391 -98 391 -98 407 -98 c 2,32,-1
 494 -98 l 1,33,-1
 494 -164 l 1,34,-1
 390 -164 l 2,35,36
 357 -164 357 -164 336.5 -142.5 c 128,-1,37
 316 -121 316 -121 316 -92 c 0,38,39
 316 -74 316 -74 326 -55 c 128,-1,40
 336 -36 336 -36 357 -21 c 2,41,-1
 386 0 l 1,42,43
 373 8 373 8 365 22.5 c 128,-1,44
 357 37 357 37 357 58 c 0,45,46
 357 63 357 63 357.5 68 c 128,-1,47
 358 73 358 73 359 78 c 1,48,-1
 347 78 l 1,0,1
208 60 m 0,49,50
 248 60 248 60 283.5 78.5 c 128,-1,51
 319 97 319 97 345.5 129 c 128,-1,52
 372 161 372 161 387 204.5 c 128,-1,53
 402 248 402 248 402 299 c 0,54,55
 402 361 402 361 374 398.5 c 128,-1,56
 346 436 346 436 287 436 c 0,57,58
 240 436 240 436 204.5 416 c 128,-1,59
 169 396 169 396 144 362.5 c 128,-1,60
 119 329 119 329 106.5 285 c 128,-1,61
 94 241 94 241 94 194 c 0,62,63
 94 128 94 128 123 94 c 128,-1,64
 152 60 152 60 208 60 c 0,49,50
EndSplineSet
Substitution2: "'ss02' Style Set 2 in Latin lookup 3 subtable" aogonek.alt
Substitution2: "'aalt' Access All Alternates in Latin lookup 0 subtable" aogonek.alt
EndChar

StartChar: uni1EA3
Encoding: 7843 7843 297
Width: 612
Flags: W
LayerCount: 2
Fore
SplineSet
262 546 m 1,0,-1
 262 638 l 1,1,-1
 267 644 l 1,2,-1
 339 644 l 1,3,4
 348 629 348 629 367 629 c 0,5,6
 405 629 405 629 405 670 c 0,7,8
 405 688 405 688 394 699 c 128,-1,9
 383 710 383 710 363 710 c 0,10,11
 345 710 345 710 333 699 c 128,-1,12
 321 688 321 688 316 670 c 1,13,-1
 271 688 l 1,14,15
 283 718 283 718 305.5 738 c 128,-1,16
 328 758 328 758 369 758 c 0,17,18
 408 758 408 758 433.5 734 c 128,-1,19
 459 710 459 710 459 674 c 0,20,21
 459 636 459 636 435 609 c 128,-1,22
 411 582 411 582 375 582 c 0,23,24
 354 582 354 582 338.5 590.5 c 128,-1,25
 323 599 323 599 317 614 c 1,26,-1
 311 614 l 1,27,-1
 311 546 l 1,28,-1
 262 546 l 1,0,-1
347 78 m 1,29,30
 316 25 316 25 273.5 5.5 c 128,-1,31
 231 -14 231 -14 184 -14 c 0,32,33
 144 -14 144 -14 112 0.5 c 128,-1,34
 80 15 80 15 58 41 c 128,-1,35
 36 67 36 67 24 103.5 c 128,-1,36
 12 140 12 140 12 184 c 0,37,38
 12 247 12 247 30 306 c 128,-1,39
 48 365 48 365 82.5 410 c 128,-1,40
 117 455 117 455 168 482.5 c 128,-1,41
 219 510 219 510 286 510 c 0,42,43
 337 510 337 510 373 486.5 c 128,-1,44
 409 463 409 463 420 418 c 1,45,-1
 432 418 l 1,46,-1
 448 496 l 1,47,-1
 526 496 l 1,48,-1
 438 84 l 2,49,50
 436 75 436 75 440 70.5 c 128,-1,51
 444 66 444 66 451 66 c 256,52,53
 458 66 458 66 465 71 c 2,54,-1
 501 97 l 1,55,-1
 543 38 l 1,56,-1
 498 4 l 2,57,58
 487 -4 487 -4 470.5 -9 c 128,-1,59
 454 -14 454 -14 437 -14 c 0,60,61
 422 -14 422 -14 408 -10 c 128,-1,62
 394 -6 394 -6 382.5 2.5 c 128,-1,63
 371 11 371 11 364 24.5 c 128,-1,64
 357 38 357 38 357 58 c 0,65,66
 357 63 357 63 357.5 68 c 128,-1,67
 358 73 358 73 359 78 c 1,68,-1
 347 78 l 1,29,30
208 60 m 0,69,70
 248 60 248 60 283.5 78.5 c 128,-1,71
 319 97 319 97 345.5 129 c 128,-1,72
 372 161 372 161 387 204.5 c 128,-1,73
 402 248 402 248 402 299 c 0,74,75
 402 361 402 361 374 398.5 c 128,-1,76
 346 436 346 436 287 436 c 0,77,78
 240 436 240 436 204.5 416 c 128,-1,79
 169 396 169 396 144 362.5 c 128,-1,80
 119 329 119 329 106.5 285 c 128,-1,81
 94 241 94 241 94 194 c 0,82,83
 94 128 94 128 123 94 c 128,-1,84
 152 60 152 60 208 60 c 0,69,70
EndSplineSet
Substitution2: "'ss02' Style Set 2 in Latin lookup 3 subtable" uni1EA3.alt
Substitution2: "'aalt' Access All Alternates in Latin lookup 0 subtable" uni1EA3.alt
EndChar

StartChar: uni1EA9
Encoding: 7849 7849 300
Width: 612
Flags: W
LayerCount: 2
Fore
SplineSet
434 658 m 1,0,-1
 434 750 l 1,1,-1
 439 756 l 1,2,-1
 511 756 l 1,3,4
 520 741 520 741 539 741 c 0,5,6
 577 741 577 741 577 782 c 0,7,8
 577 800 577 800 566 811 c 128,-1,9
 555 822 555 822 535 822 c 0,10,11
 517 822 517 822 505 811 c 128,-1,12
 493 800 493 800 488 782 c 1,13,-1
 443 800 l 1,14,15
 455 830 455 830 477.5 850 c 128,-1,16
 500 870 500 870 541 870 c 0,17,18
 580 870 580 870 605.5 846 c 128,-1,19
 631 822 631 822 631 786 c 0,20,21
 631 748 631 748 607 721 c 128,-1,22
 583 694 583 694 547 694 c 0,23,24
 526 694 526 694 510.5 702.5 c 128,-1,25
 495 711 495 711 489 726 c 1,26,-1
 483 726 l 1,27,-1
 483 658 l 1,28,-1
 434 658 l 1,0,-1
347 78 m 1,29,30
 316 25 316 25 273.5 5.5 c 128,-1,31
 231 -14 231 -14 184 -14 c 0,32,33
 144 -14 144 -14 112 0.5 c 128,-1,34
 80 15 80 15 58 41 c 128,-1,35
 36 67 36 67 24 103.5 c 128,-1,36
 12 140 12 140 12 184 c 0,37,38
 12 247 12 247 30 306 c 128,-1,39
 48 365 48 365 82.5 410 c 128,-1,40
 117 455 117 455 168 482.5 c 128,-1,41
 219 510 219 510 286 510 c 0,42,43
 337 510 337 510 373 486.5 c 128,-1,44
 409 463 409 463 420 418 c 1,45,-1
 432 418 l 1,46,-1
 448 496 l 1,47,-1
 526 496 l 1,48,-1
 438 84 l 2,49,50
 436 75 436 75 440 70.5 c 128,-1,51
 444 66 444 66 451 66 c 256,52,53
 458 66 458 66 465 71 c 2,54,-1
 501 97 l 1,55,-1
 543 38 l 1,56,-1
 498 4 l 2,57,58
 487 -4 487 -4 470.5 -9 c 128,-1,59
 454 -14 454 -14 437 -14 c 0,60,61
 422 -14 422 -14 408 -10 c 128,-1,62
 394 -6 394 -6 382.5 2.5 c 128,-1,63
 371 11 371 11 364 24.5 c 128,-1,64
 357 38 357 38 357 58 c 0,65,66
 357 63 357 63 357.5 68 c 128,-1,67
 358 73 358 73 359 78 c 1,68,-1
 347 78 l 1,29,30
208 60 m 0,69,70
 248 60 248 60 283.5 78.5 c 128,-1,71
 319 97 319 97 345.5 129 c 128,-1,72
 372 161 372 161 387 204.5 c 128,-1,73
 402 248 402 248 402 299 c 0,74,75
 402 361 402 361 374 398.5 c 128,-1,76
 346 436 346 436 287 436 c 0,77,78
 240 436 240 436 204.5 416 c 128,-1,79
 169 396 169 396 144 362.5 c 128,-1,80
 119 329 119 329 106.5 285 c 128,-1,81
 94 241 94 241 94 194 c 0,82,83
 94 128 94 128 123 94 c 128,-1,84
 152 60 152 60 208 60 c 0,69,70
160 570 m 1,85,-1
 160 576 l 1,86,-1
 260 688 l 1,87,-1
 384 688 l 1,88,-1
 439 570 l 1,89,-1
 364 570 l 1,90,-1
 325 658 l 1,91,-1
 313 658 l 1,92,-1
 245 570 l 1,93,-1
 160 570 l 1,85,-1
EndSplineSet
Substitution2: "'ss02' Style Set 2 in Latin lookup 3 subtable" uni1EA9.alt
Substitution2: "'aalt' Access All Alternates in Latin lookup 0 subtable" uni1EA9.alt
EndChar

StartChar: uni1EB3
Encoding: 7859 7859 305
Width: 612
Flags: W
LayerCount: 2
Fore
SplineSet
312 718 m 1,0,-1
 312 810 l 1,1,-1
 317 816 l 1,2,-1
 389 816 l 1,3,4
 396 802 396 802 415 802 c 0,5,6
 433 802 433 802 444 814.5 c 128,-1,7
 455 827 455 827 455 844 c 256,8,9
 455 861 455 861 445.5 871.5 c 128,-1,10
 436 882 436 882 419 882 c 0,11,12
 397 882 397 882 385 869.5 c 128,-1,13
 373 857 373 857 366 842 c 1,14,-1
 322 860 l 1,15,16
 335 890 335 890 360 910 c 128,-1,17
 385 930 385 930 424 930 c 0,18,19
 462 930 462 930 486 906 c 128,-1,20
 510 882 510 882 510 846 c 0,21,22
 510 827 510 827 503 810.5 c 128,-1,23
 496 794 496 794 483.5 781.5 c 128,-1,24
 471 769 471 769 454.5 761.5 c 128,-1,25
 438 754 438 754 419 754 c 0,26,27
 380 754 380 754 367 786 c 1,28,-1
 361 786 l 1,29,-1
 361 718 l 1,30,-1
 312 718 l 1,0,-1
443 688 m 1,31,-1
 440 674 l 2,32,33
 429 623 429 623 398.5 596.5 c 128,-1,34
 368 570 368 570 314 570 c 0,35,36
 264 570 264 570 238.5 600 c 128,-1,37
 213 630 213 630 222 674 c 2,38,-1
 225 688 l 1,39,-1
 293 688 l 1,40,-1
 290 677 l 2,41,42
 285 658 285 658 294.5 646.5 c 128,-1,43
 304 635 304 635 324 635 c 0,44,45
 346 635 346 635 356 647.5 c 128,-1,46
 366 660 366 660 370 676 c 2,47,-1
 373 688 l 1,48,-1
 443 688 l 1,31,-1
347 78 m 1,49,50
 316 25 316 25 273.5 5.5 c 128,-1,51
 231 -14 231 -14 184 -14 c 0,52,53
 144 -14 144 -14 112 0.5 c 128,-1,54
 80 15 80 15 58 41 c 128,-1,55
 36 67 36 67 24 103.5 c 128,-1,56
 12 140 12 140 12 184 c 0,57,58
 12 247 12 247 30 306 c 128,-1,59
 48 365 48 365 82.5 410 c 128,-1,60
 117 455 117 455 168 482.5 c 128,-1,61
 219 510 219 510 286 510 c 0,62,63
 337 510 337 510 373 486.5 c 128,-1,64
 409 463 409 463 420 418 c 1,65,-1
 432 418 l 1,66,-1
 448 496 l 1,67,-1
 526 496 l 1,68,-1
 438 84 l 2,69,70
 436 75 436 75 440 70.5 c 128,-1,71
 444 66 444 66 451 66 c 256,72,73
 458 66 458 66 465 71 c 2,74,-1
 501 97 l 1,75,-1
 543 38 l 1,76,-1
 498 4 l 2,77,78
 487 -4 487 -4 470.5 -9 c 128,-1,79
 454 -14 454 -14 437 -14 c 0,80,81
 422 -14 422 -14 408 -10 c 128,-1,82
 394 -6 394 -6 382.5 2.5 c 128,-1,83
 371 11 371 11 364 24.5 c 128,-1,84
 357 38 357 38 357 58 c 0,85,86
 357 63 357 63 357.5 68 c 128,-1,87
 358 73 358 73 359 78 c 1,88,-1
 347 78 l 1,49,50
208 60 m 0,89,90
 248 60 248 60 283.5 78.5 c 128,-1,91
 319 97 319 97 345.5 129 c 128,-1,92
 372 161 372 161 387 204.5 c 128,-1,93
 402 248 402 248 402 299 c 0,94,95
 402 361 402 361 374 398.5 c 128,-1,96
 346 436 346 436 287 436 c 0,97,98
 240 436 240 436 204.5 416 c 128,-1,99
 169 396 169 396 144 362.5 c 128,-1,100
 119 329 119 329 106.5 285 c 128,-1,101
 94 241 94 241 94 194 c 0,102,103
 94 128 94 128 123 94 c 128,-1,104
 152 60 152 60 208 60 c 0,89,90
EndSplineSet
Substitution2: "'ss02' Style Set 2 in Latin lookup 3 subtable" uni1EB3.alt
Substitution2: "'aalt' Access All Alternates in Latin lookup 0 subtable" uni1EB3.alt
EndChar

StartChar: ae
Encoding: 230 230 308
Width: 612
Flags: W
LayerCount: 2
Fore
SplineSet
319 510 m 0,0,1
 369 510 369 510 407 494 c 128,-1,2
 445 478 445 478 471 451.5 c 128,-1,3
 497 425 497 425 510.5 390.5 c 128,-1,4
 524 356 524 356 524 320 c 0,5,6
 524 301 524 301 519 278 c 2,7,-1
 507 224 l 1,8,-1
 308 224 l 1,9,-1
 274 62 l 1,10,11
 326 68 326 68 361.5 96.5 c 128,-1,12
 397 125 397 125 414 162 c 1,13,-1
 484 142 l 1,14,15
 452 73 452 73 386.5 29.5 c 128,-1,16
 321 -14 321 -14 223 -14 c 2,17,-1
 179 -14 l 2,18,19
 144 -14 144 -14 114 -5 c 128,-1,20
 84 4 84 4 62 21 c 128,-1,21
 40 38 40 38 28 63.5 c 128,-1,22
 16 89 16 89 16 122 c 0,23,24
 16 161 16 161 31 193 c 128,-1,25
 46 225 46 225 73.5 248 c 128,-1,26
 101 271 101 271 140 283.5 c 128,-1,27
 179 296 179 296 227 296 c 2,28,-1
 246 296 l 1,29,-1
 276 437 l 1,30,31
 231 432 231 432 198 405 c 128,-1,32
 165 378 165 378 148 330 c 1,33,-1
 82 358 l 1,34,35
 94 387 94 387 113 414.5 c 128,-1,36
 132 442 132 442 161 463 c 128,-1,37
 190 484 190 484 229 497 c 128,-1,38
 268 510 268 510 319 510 c 0,0,1
219 224 m 2,39,40
 196 224 196 224 174 218.5 c 128,-1,41
 152 213 152 213 135 201 c 128,-1,42
 118 189 118 189 107.5 170.5 c 128,-1,43
 97 152 97 152 97 126 c 0,44,45
 97 93 97 93 119 75.5 c 128,-1,46
 141 58 141 58 183 58 c 2,47,-1
 195 58 l 1,48,-1
 230 224 l 1,49,-1
 219 224 l 2,39,40
445 296 m 1,50,51
 446 301 446 301 446.5 307 c 128,-1,52
 447 313 447 313 447 320 c 0,53,54
 447 365 447 365 421.5 394.5 c 128,-1,55
 396 424 396 424 353 432 c 1,56,-1
 324 296 l 1,57,-1
 445 296 l 1,50,51
EndSplineSet
EndChar

StartChar: uni0180
Encoding: 384 384 309
Width: 612
Flags: W
LayerCount: 2
Fore
SplineSet
264 714 m 1,0,-1
 247 634 l 1,1,-1
 418 634 l 1,2,-1
 418 562 l 1,3,-1
 231 562 l 1,4,-1
 201 418 l 1,5,-1
 213 418 l 1,6,7
 241 459 241 459 285 484.5 c 128,-1,8
 329 510 329 510 388 510 c 0,9,10
 427 510 427 510 460.5 496.5 c 128,-1,11
 494 483 494 483 518 457.5 c 128,-1,12
 542 432 542 432 556 396.5 c 128,-1,13
 570 361 570 361 570 318 c 0,14,15
 570 241 570 241 548 180 c 128,-1,16
 526 119 526 119 488 75.5 c 128,-1,17
 450 32 450 32 398.5 9 c 128,-1,18
 347 -14 347 -14 288 -14 c 0,19,20
 241 -14 241 -14 199 8.5 c 128,-1,21
 157 31 157 31 141 76 c 1,22,-1
 129 76 l 1,23,-1
 113 0 l 1,24,-1
 36 0 l 1,25,-1
 155 562 l 1,26,-1
 102 562 l 1,27,-1
 102 634 l 1,28,-1
 170 634 l 1,29,-1
 187 714 l 1,30,-1
 264 714 l 1,0,-1
286 60 m 0,31,32
 327 60 327 60 364 77.5 c 128,-1,33
 401 95 401 95 428.5 127 c 128,-1,34
 456 159 456 159 472 204 c 128,-1,35
 488 249 488 249 488 303 c 0,36,37
 488 364 488 364 455.5 400 c 128,-1,38
 423 436 423 436 363 436 c 0,39,40
 319 436 319 436 282 417 c 128,-1,41
 245 398 245 398 218 365 c 128,-1,42
 191 332 191 332 176 289 c 128,-1,43
 161 246 161 246 161 198 c 0,44,45
 161 132 161 132 194 96 c 128,-1,46
 227 60 227 60 286 60 c 0,31,32
EndSplineSet
EndChar

StartChar: ccedilla
Encoding: 231 231 310
Width: 612
Flags: W
LayerCount: 2
Fore
SplineSet
510 170 m 1,0,1
 498 133 498 133 475.5 100 c 128,-1,2
 453 67 453 67 420 42.5 c 128,-1,3
 387 18 387 18 344 3 c 128,-1,4
 301 -12 301 -12 247 -14 c 1,5,-1
 228 -68 l 1,6,-1
 234 -68 l 1,7,8
 251 -36 251 -36 288 -36 c 0,9,10
 321 -36 321 -36 338.5 -58 c 128,-1,11
 356 -80 356 -80 356 -110 c 0,12,13
 356 -155 356 -155 330.5 -183.5 c 128,-1,14
 305 -212 305 -212 252 -212 c 0,15,16
 211 -212 211 -212 187 -192.5 c 128,-1,17
 163 -173 163 -173 158 -142 c 1,18,-1
 208 -125 l 1,19,20
 210 -141 210 -141 220.5 -152.5 c 128,-1,21
 231 -164 231 -164 254 -164 c 256,22,23
 277 -164 277 -164 289.5 -151.5 c 128,-1,24
 302 -139 302 -139 302 -118 c 0,25,26
 302 -100 302 -100 292.5 -92 c 128,-1,27
 283 -84 283 -84 270 -84 c 0,28,29
 259 -84 259 -84 253 -88 c 128,-1,30
 247 -92 247 -92 243 -98 c 1,31,-1
 168 -98 l 1,32,-1
 168 -86 l 1,33,-1
 194 -11 l 1,34,35
 116 0 116 0 71 53.5 c 128,-1,36
 26 107 26 107 26 192 c 0,37,38
 26 257 26 257 48.5 315 c 128,-1,39
 71 373 71 373 112 416.5 c 128,-1,40
 153 460 153 460 211 485 c 128,-1,41
 269 510 269 510 340 510 c 0,42,43
 386 510 386 510 423 497 c 128,-1,44
 460 484 460 484 486 460.5 c 128,-1,45
 512 437 512 437 526 404.5 c 128,-1,46
 540 372 540 372 540 333 c 0,47,48
 540 331 540 331 540 328.5 c 128,-1,49
 540 326 540 326 539 318 c 1,50,-1
 459 306 l 1,51,52
 460 312 460 312 460 315 c 128,-1,53
 460 318 460 318 460 322 c 0,54,55
 460 346 460 346 452.5 366.5 c 128,-1,56
 445 387 445 387 428.5 402.5 c 128,-1,57
 412 418 412 418 386.5 427 c 128,-1,58
 361 436 361 436 326 436 c 0,59,60
 279 436 279 436 239.5 417 c 128,-1,61
 200 398 200 398 170.5 365.5 c 128,-1,62
 141 333 141 333 124.5 290 c 128,-1,63
 108 247 108 247 108 200 c 0,64,65
 108 129 108 129 146 94.5 c 128,-1,66
 184 60 184 60 250 60 c 0,67,68
 290 60 290 60 321 71.5 c 128,-1,69
 352 83 352 83 375 101.5 c 128,-1,70
 398 120 398 120 413 144 c 128,-1,71
 428 168 428 168 436 194 c 1,72,-1
 510 170 l 1,0,1
EndSplineSet
EndChar

StartChar: eth
Encoding: 240 240 315
Width: 612
Flags: W
LayerCount: 2
Fore
SplineSet
319 618 m 1,0,1
 277 633 277 633 225 639 c 1,2,-1
 240 714 l 1,3,4
 272 710 272 710 300 703 c 128,-1,5
 328 696 328 696 354 686 c 1,6,-1
 373 722 l 1,7,-1
 435 691 l 1,8,-1
 416 654 l 1,9,10
 480 612 480 612 512.5 543.5 c 128,-1,11
 545 475 545 475 545 376 c 0,12,13
 545 304 545 304 527 234.5 c 128,-1,14
 509 165 509 165 470 109.5 c 128,-1,15
 431 54 431 54 371 20 c 128,-1,16
 311 -14 311 -14 227 -14 c 0,17,18
 183 -14 183 -14 145.5 0 c 128,-1,19
 108 14 108 14 80 41 c 128,-1,20
 52 68 52 68 36 107.5 c 128,-1,21
 20 147 20 147 20 199 c 0,22,23
 20 261 20 261 41.5 317.5 c 128,-1,24
 63 374 63 374 102 416.5 c 128,-1,25
 141 459 141 459 195.5 484.5 c 128,-1,26
 250 510 250 510 315 510 c 0,27,28
 372 510 372 510 405 488 c 128,-1,29
 438 466 438 466 451 436 c 1,30,-1
 463 436 l 1,31,32
 459 487 459 487 437.5 524.5 c 128,-1,33
 416 562 416 562 381 586 c 1,34,-1
 361 547 l 1,35,-1
 298 578 l 1,36,-1
 319 618 l 1,0,1
237 60 m 0,37,38
 283 60 283 60 322 80.5 c 128,-1,39
 361 101 361 101 390 133.5 c 128,-1,40
 419 166 419 166 435.5 207 c 128,-1,41
 452 248 452 248 452 289 c 0,42,43
 452 359 452 359 414.5 397.5 c 128,-1,44
 377 436 377 436 317 436 c 0,45,46
 270 436 270 436 231 416 c 128,-1,47
 192 396 192 396 163 363 c 128,-1,48
 134 330 134 330 118 287.5 c 128,-1,49
 102 245 102 245 102 200 c 0,50,51
 102 134 102 134 138 97 c 128,-1,52
 174 60 174 60 237 60 c 0,37,38
EndSplineSet
EndChar

StartChar: dcaron
Encoding: 271 271 316
Width: 612
Flags: W
LayerCount: 2
Fore
SplineSet
363 84 m 2,0,1
 360 66 360 66 376 66 c 0,2,3
 382 66 382 66 389 71 c 2,4,-1
 425 97 l 1,5,-1
 468 38 l 1,6,-1
 423 4 l 2,7,8
 412 -4 412 -4 395.5 -9 c 128,-1,9
 379 -14 379 -14 362 -14 c 0,10,11
 332 -14 332 -14 307 2.5 c 128,-1,12
 282 19 282 19 282 58 c 2,13,-1
 282 64 l 1,14,-1
 270 64 l 1,15,16
 254 29 254 29 219.5 7.5 c 128,-1,17
 185 -14 185 -14 143 -14 c 0,18,19
 76 -14 76 -14 34 30.5 c 128,-1,20
 -8 75 -8 75 -8 172 c 0,21,22
 -8 226 -8 226 7 286 c 128,-1,23
 22 346 22 346 53 395.5 c 128,-1,24
 84 445 84 445 132 477.5 c 128,-1,25
 180 510 180 510 245 510 c 0,26,27
 290 510 290 510 315.5 490.5 c 128,-1,28
 341 471 341 471 349 442 c 1,29,-1
 361 442 l 1,30,-1
 418 714 l 1,31,-1
 496 714 l 1,32,-1
 363 84 l 2,0,1
166 60 m 0,33,34
 210 60 210 60 241 86.5 c 128,-1,35
 272 113 272 113 292 152 c 128,-1,36
 312 191 312 191 321 234.5 c 128,-1,37
 330 278 330 278 330 313 c 0,38,39
 330 436 330 436 241 436 c 0,40,41
 196 436 196 436 164 410.5 c 128,-1,42
 132 385 132 385 111.5 346.5 c 128,-1,43
 91 308 91 308 82 263.5 c 128,-1,44
 73 219 73 219 73 181 c 0,45,46
 73 121 73 121 97 90.5 c 128,-1,47
 121 60 121 60 166 60 c 0,33,34
516 630 m 256,48,49
 516 659 516 659 536.5 679.5 c 128,-1,50
 557 700 557 700 586 700 c 256,51,52
 615 700 615 700 635.5 679.5 c 128,-1,53
 656 659 656 659 656 630 c 0,54,55
 656 623 656 623 655 618 c 2,56,-1
 637 532 l 2,57,58
 629 494 629 494 606 474 c 128,-1,59
 583 454 583 454 544 454 c 2,60,-1
 492 454 l 1,61,-1
 492 508 l 1,62,-1
 551 508 l 2,63,64
 579 508 579 508 585 538 c 2,65,-1
 590 560 l 1,66,-1
 586 560 l 2,67,68
 557 560 557 560 536.5 580.5 c 128,-1,69
 516 601 516 601 516 630 c 256,48,49
EndSplineSet
EndChar

StartChar: dcroat
Encoding: 273 273 319
Width: 612
Flags: W
LayerCount: 2
Fore
SplineSet
305 634 m 1,0,-1
 481 634 l 1,1,-1
 498 714 l 1,2,-1
 576 714 l 1,3,-1
 559 634 l 1,4,-1
 619 634 l 1,5,-1
 619 562 l 1,6,-1
 543 562 l 1,7,-1
 442 84 l 2,8,9
 439 66 439 66 455 66 c 0,10,11
 461 66 461 66 468 71 c 2,12,-1
 504 97 l 1,13,-1
 547 38 l 1,14,-1
 502 4 l 2,15,16
 491 -4 491 -4 475.5 -9 c 128,-1,17
 460 -14 460 -14 441 -14 c 0,18,19
 426 -14 426 -14 412 -10 c 128,-1,20
 398 -6 398 -6 386.5 2.5 c 128,-1,21
 375 11 375 11 368 24.5 c 128,-1,22
 361 38 361 38 361 58 c 0,23,24
 361 63 361 63 361.5 68 c 128,-1,25
 362 73 362 73 363 78 c 1,26,-1
 351 78 l 1,27,28
 319 25 319 25 275 5.5 c 128,-1,29
 231 -14 231 -14 182 -14 c 0,30,31
 142 -14 142 -14 109 0 c 128,-1,32
 76 14 76 14 53 39.5 c 128,-1,33
 30 65 30 65 17 101.5 c 128,-1,34
 4 138 4 138 4 182 c 0,35,36
 4 244 4 244 23 303 c 128,-1,37
 42 362 42 362 78 408 c 128,-1,38
 114 454 114 454 166.5 482 c 128,-1,39
 219 510 219 510 287 510 c 0,40,41
 340 510 340 510 375.5 488 c 128,-1,42
 411 466 411 466 424 418 c 1,43,-1
 436 418 l 1,44,-1
 466 562 l 1,45,-1
 305 562 l 1,46,-1
 305 634 l 1,0,-1
206 60 m 0,47,48
 246 60 246 60 282.5 78.5 c 128,-1,49
 319 97 319 97 346.5 129 c 128,-1,50
 374 161 374 161 390 204.5 c 128,-1,51
 406 248 406 248 406 299 c 0,52,53
 406 361 406 361 375 398.5 c 128,-1,54
 344 436 344 436 285 436 c 0,55,56
 238 436 238 436 201.5 415.5 c 128,-1,57
 165 395 165 395 139 361.5 c 128,-1,58
 113 328 113 328 99.5 284 c 128,-1,59
 86 240 86 240 86 193 c 0,60,61
 86 60 86 60 206 60 c 0,47,48
EndSplineSet
EndChar

StartChar: eogonek
Encoding: 281 281 327
Width: 612
Flags: W
LayerCount: 2
Fore
SplineSet
112 224 m 1,0,1
 110 216 110 216 109 206 c 128,-1,2
 108 196 108 196 108 185 c 0,3,4
 108 130 108 130 140 94.5 c 128,-1,5
 172 59 172 59 242 59 c 0,6,7
 277 59 277 59 304.5 67 c 128,-1,8
 332 75 332 75 352 89.5 c 128,-1,9
 372 104 372 104 386.5 122.5 c 128,-1,10
 401 141 401 141 411 162 c 1,11,-1
 475 126 l 1,12,13
 466 108 466 108 457.5 94.5 c 128,-1,14
 449 81 449 81 438.5 69 c 128,-1,15
 428 57 428 57 414.5 45.5 c 128,-1,16
 401 34 401 34 382 22 c 2,17,-1
 247 -67 l 2,18,19
 233 -77 233 -77 237.5 -87.5 c 128,-1,20
 242 -98 242 -98 253 -98 c 2,21,-1
 340 -98 l 1,22,-1
 340 -164 l 1,23,-1
 233 -164 l 2,24,25
 207 -164 207 -164 190.5 -149.5 c 128,-1,26
 174 -135 174 -135 169 -114 c 128,-1,27
 164 -93 164 -93 173.5 -69 c 128,-1,28
 183 -45 183 -45 210 -25 c 2,29,-1
 225 -14 l 1,30,31
 184 -13 184 -13 148.5 1 c 128,-1,32
 113 15 113 15 87 40.5 c 128,-1,33
 61 66 61 66 46.5 102.5 c 128,-1,34
 32 139 32 139 32 185 c 0,35,36
 32 248 32 248 52 306.5 c 128,-1,37
 72 365 72 365 110 410 c 128,-1,38
 148 455 148 455 204 482.5 c 128,-1,39
 260 510 260 510 331 510 c 0,40,41
 381 510 381 510 418 494.5 c 128,-1,42
 455 479 455 479 479 452.5 c 128,-1,43
 503 426 503 426 515 392.5 c 128,-1,44
 527 359 527 359 527 323 c 0,45,46
 527 296 527 296 521 271 c 2,47,-1
 510 224 l 1,48,-1
 112 224 l 1,0,1
321 436 m 0,49,50
 286 436 286 436 255.5 425.5 c 128,-1,51
 225 415 225 415 200 396 c 128,-1,52
 175 377 175 377 157 351.5 c 128,-1,53
 139 326 139 326 129 296 c 1,54,-1
 447 296 l 1,55,56
 450 312 450 312 450 326 c 0,57,58
 450 380 450 380 413 408 c 128,-1,59
 376 436 376 436 321 436 c 0,49,50
EndSplineSet
EndChar

StartChar: uni1EBB
Encoding: 7867 7867 330
Width: 612
Flags: W
LayerCount: 2
Fore
SplineSet
308 546 m 1,0,-1
 308 638 l 1,1,-1
 313 644 l 1,2,-1
 385 644 l 1,3,4
 394 629 394 629 413 629 c 0,5,6
 451 629 451 629 451 670 c 0,7,8
 451 688 451 688 440 699 c 128,-1,9
 429 710 429 710 409 710 c 0,10,11
 391 710 391 710 379 699 c 128,-1,12
 367 688 367 688 362 670 c 1,13,-1
 317 688 l 1,14,15
 329 718 329 718 351.5 738 c 128,-1,16
 374 758 374 758 415 758 c 0,17,18
 454 758 454 758 479.5 734 c 128,-1,19
 505 710 505 710 505 674 c 0,20,21
 505 636 505 636 481 609 c 128,-1,22
 457 582 457 582 421 582 c 0,23,24
 400 582 400 582 384.5 590.5 c 128,-1,25
 369 599 369 599 363 614 c 1,26,-1
 357 614 l 1,27,-1
 357 546 l 1,28,-1
 308 546 l 1,0,-1
112 224 m 1,29,30
 110 216 110 216 109 206 c 128,-1,31
 108 196 108 196 108 185 c 0,32,33
 108 130 108 130 140 94.5 c 128,-1,34
 172 59 172 59 242 59 c 0,35,36
 277 59 277 59 304.5 67 c 128,-1,37
 332 75 332 75 352 89.5 c 128,-1,38
 372 104 372 104 386.5 122.5 c 128,-1,39
 401 141 401 141 411 162 c 1,40,-1
 475 126 l 1,41,42
 461 97 461 97 440 71.5 c 128,-1,43
 419 46 419 46 390 27 c 128,-1,44
 361 8 361 8 323 -3 c 128,-1,45
 285 -14 285 -14 236 -14 c 0,46,47
 191 -14 191 -14 153.5 -0.5 c 128,-1,48
 116 13 116 13 89 38.5 c 128,-1,49
 62 64 62 64 47 101 c 128,-1,50
 32 138 32 138 32 185 c 0,51,52
 32 248 32 248 52 306.5 c 128,-1,53
 72 365 72 365 110 410 c 128,-1,54
 148 455 148 455 204 482.5 c 128,-1,55
 260 510 260 510 331 510 c 0,56,57
 381 510 381 510 418 494.5 c 128,-1,58
 455 479 455 479 479 452.5 c 128,-1,59
 503 426 503 426 515 392.5 c 128,-1,60
 527 359 527 359 527 323 c 0,61,62
 527 296 527 296 521 271 c 2,63,-1
 510 224 l 1,64,-1
 112 224 l 1,29,30
321 436 m 0,65,66
 286 436 286 436 255.5 425.5 c 128,-1,67
 225 415 225 415 200 396 c 128,-1,68
 175 377 175 377 157 351.5 c 128,-1,69
 139 326 139 326 129 296 c 1,70,-1
 447 296 l 1,71,72
 450 312 450 312 450 326 c 0,73,74
 450 380 450 380 413 408 c 128,-1,75
 376 436 376 436 321 436 c 0,65,66
EndSplineSet
EndChar

StartChar: uni1EC3
Encoding: 7875 7875 334
Width: 612
Flags: W
LayerCount: 2
Fore
SplineSet
491 658 m 1,0,-1
 491 750 l 1,1,-1
 496 756 l 1,2,-1
 568 756 l 1,3,4
 575 742 575 742 594 742 c 0,5,6
 612 742 612 742 623 754.5 c 128,-1,7
 634 767 634 767 634 784 c 256,8,9
 634 801 634 801 624.5 811.5 c 128,-1,10
 615 822 615 822 598 822 c 0,11,12
 576 822 576 822 564 809.5 c 128,-1,13
 552 797 552 797 545 782 c 1,14,-1
 501 800 l 1,15,16
 514 830 514 830 539 850 c 128,-1,17
 564 870 564 870 603 870 c 0,18,19
 641 870 641 870 665 846 c 128,-1,20
 689 822 689 822 689 786 c 0,21,22
 689 767 689 767 682 750.5 c 128,-1,23
 675 734 675 734 662.5 721.5 c 128,-1,24
 650 709 650 709 633.5 701.5 c 128,-1,25
 617 694 617 694 598 694 c 0,26,27
 559 694 559 694 546 726 c 1,28,-1
 540 726 l 1,29,-1
 540 658 l 1,30,-1
 491 658 l 1,0,-1
112 224 m 1,31,32
 110 216 110 216 109 206 c 128,-1,33
 108 196 108 196 108 185 c 0,34,35
 108 130 108 130 140 94.5 c 128,-1,36
 172 59 172 59 242 59 c 0,37,38
 277 59 277 59 304.5 67 c 128,-1,39
 332 75 332 75 352 89.5 c 128,-1,40
 372 104 372 104 386.5 122.5 c 128,-1,41
 401 141 401 141 411 162 c 1,42,-1
 475 126 l 1,43,44
 461 97 461 97 440 71.5 c 128,-1,45
 419 46 419 46 390 27 c 128,-1,46
 361 8 361 8 323 -3 c 128,-1,47
 285 -14 285 -14 236 -14 c 0,48,49
 191 -14 191 -14 153.5 -0.5 c 128,-1,50
 116 13 116 13 89 38.5 c 128,-1,51
 62 64 62 64 47 101 c 128,-1,52
 32 138 32 138 32 185 c 0,53,54
 32 248 32 248 52 306.5 c 128,-1,55
 72 365 72 365 110 410 c 128,-1,56
 148 455 148 455 204 482.5 c 128,-1,57
 260 510 260 510 331 510 c 0,58,59
 381 510 381 510 418 494.5 c 128,-1,60
 455 479 455 479 479 452.5 c 128,-1,61
 503 426 503 426 515 392.5 c 128,-1,62
 527 359 527 359 527 323 c 0,63,64
 527 296 527 296 521 271 c 2,65,-1
 510 224 l 1,66,-1
 112 224 l 1,31,32
321 436 m 0,67,68
 286 436 286 436 255.5 425.5 c 128,-1,69
 225 415 225 415 200 396 c 128,-1,70
 175 377 175 377 157 351.5 c 128,-1,71
 139 326 139 326 129 296 c 1,72,-1
 447 296 l 1,73,74
 450 312 450 312 450 326 c 0,75,76
 450 380 450 380 413 408 c 128,-1,77
 376 436 376 436 321 436 c 0,67,68
213 570 m 1,78,-1
 213 576 l 1,79,-1
 313 688 l 1,80,-1
 437 688 l 1,81,-1
 492 570 l 1,82,-1
 417 570 l 1,83,-1
 378 658 l 1,84,-1
 366 658 l 1,85,-1
 298 570 l 1,86,-1
 213 570 l 1,78,-1
EndSplineSet
EndChar

StartChar: hbar
Encoding: 295 295 346
Width: 612
Flags: W
LayerCount: 2
Fore
SplineSet
89 634 m 1,0,-1
 157 634 l 1,1,-1
 171 700 l 1,2,-1
 246 700 l 1,3,-1
 232 634 l 1,4,-1
 405 634 l 1,5,-1
 405 562 l 1,6,-1
 217 562 l 1,7,-1
 189 422 l 1,8,-1
 201 422 l 1,9,10
 226 469 226 469 266 489.5 c 128,-1,11
 306 510 306 510 356 510 c 0,12,13
 422 510 422 510 465.5 468.5 c 128,-1,14
 509 427 509 427 509 352 c 0,15,16
 509 320 509 320 502 288 c 2,17,-1
 458 79 l 2,18,19
 455 64 455 64 471 64 c 0,20,21
 477 64 477 64 483 69 c 2,22,-1
 522 97 l 1,23,-1
 564 38 l 1,24,-1
 518 5 l 2,25,26
 491 -14 491 -14 457 -14 c 0,27,28
 426 -14 426 -14 402.5 4 c 128,-1,29
 379 22 379 22 379 60 c 0,30,31
 379 71 379 71 382 86 c 2,32,-1
 428 294 l 2,33,34
 431 308 431 308 432.5 318.5 c 128,-1,35
 434 329 434 329 434 340 c 0,36,37
 434 392 434 392 403.5 414 c 128,-1,38
 373 436 373 436 328 436 c 0,39,40
 260 436 260 436 215.5 387.5 c 128,-1,41
 171 339 171 339 154 258 c 2,42,-1
 99 0 l 1,43,-1
 22 0 l 1,44,-1
 141 562 l 1,45,-1
 89 562 l 1,46,-1
 89 634 l 1,0,-1
EndSplineSet
EndChar

StartChar: iogonek
Encoding: 303 303 354
Width: 612
Flags: W
LayerCount: 2
Fore
SplineSet
287 409 m 2,0,1
 289 419 289 419 284.5 426.5 c 128,-1,2
 280 434 280 434 269 434 c 0,3,4
 261 434 261 434 254 430 c 2,5,-1
 137 350 l 1,6,-1
 97 409 l 1,7,-1
 215 489 l 2,8,9
 246 510 246 510 282 510 c 0,10,11
 316 510 316 510 341 490 c 128,-1,12
 366 470 366 470 366 428 c 0,13,14
 366 412 366 412 362 396 c 2,15,-1
 288 87 l 2,16,17
 285 75 285 75 290.5 68 c 128,-1,18
 296 61 296 61 305 61 c 0,19,20
 312 61 312 61 320 66 c 2,21,-1
 435 144 l 1,22,-1
 475 85 l 1,23,-1
 251 -67 l 2,24,25
 241 -74 241 -74 241 -83 c 0,26,27
 241 -89 241 -89 245 -93.5 c 128,-1,28
 249 -98 249 -98 257 -98 c 2,29,-1
 344 -98 l 1,30,-1
 344 -164 l 1,31,-1
 237 -164 l 2,32,33
 207 -164 207 -164 189 -144.5 c 128,-1,34
 171 -125 171 -125 171 -99 c 0,35,36
 171 -80 171 -80 181 -61 c 128,-1,37
 191 -42 191 -42 214 -25 c 2,38,-1
 246 -1 l 1,39,40
 229 8 229 8 219 25.5 c 128,-1,41
 209 43 209 43 209 68 c 0,42,43
 209 84 209 84 213 100 c 2,44,-1
 287 409 l 2,0,1
303 644 m 256,45,46
 303 673 303 673 323.5 693.5 c 128,-1,47
 344 714 344 714 373 714 c 256,48,49
 402 714 402 714 422.5 693.5 c 128,-1,50
 443 673 443 673 443 644 c 256,51,52
 443 615 443 615 422.5 594.5 c 128,-1,53
 402 574 402 574 373 574 c 256,54,55
 344 574 344 574 323.5 594.5 c 128,-1,56
 303 615 303 615 303 644 c 256,45,46
EndSplineSet
Substitution2: "'ss02' Style Set 2 in Latin lookup 3 subtable" iogonek.alt
Substitution2: "'aalt' Access All Alternates in Latin lookup 0 subtable" iogonek.alt
EndChar

StartChar: uni1EC9
Encoding: 7881 7881 355
Width: 612
Flags: W
LayerCount: 2
Fore
SplineSet
310 546 m 1,0,-1
 310 638 l 1,1,-1
 315 644 l 1,2,-1
 387 644 l 1,3,4
 394 630 394 630 413 630 c 0,5,6
 431 630 431 630 442 642.5 c 128,-1,7
 453 655 453 655 453 672 c 256,8,9
 453 689 453 689 443.5 699.5 c 128,-1,10
 434 710 434 710 417 710 c 0,11,12
 395 710 395 710 383 697.5 c 128,-1,13
 371 685 371 685 364 670 c 1,14,-1
 320 688 l 1,15,16
 333 718 333 718 358 738 c 128,-1,17
 383 758 383 758 422 758 c 0,18,19
 460 758 460 758 484 734 c 128,-1,20
 508 710 508 710 508 674 c 0,21,22
 508 655 508 655 501 638.5 c 128,-1,23
 494 622 494 622 481.5 609.5 c 128,-1,24
 469 597 469 597 452.5 589.5 c 128,-1,25
 436 582 436 582 417 582 c 0,26,27
 378 582 378 582 365 614 c 1,28,-1
 359 614 l 1,29,-1
 359 546 l 1,30,-1
 310 546 l 1,0,-1
287 409 m 2,31,32
 289 419 289 419 284.5 426.5 c 128,-1,33
 280 434 280 434 269 434 c 0,34,35
 261 434 261 434 254 430 c 2,36,-1
 137 350 l 1,37,-1
 97 409 l 1,38,-1
 215 489 l 2,39,40
 246 510 246 510 282 510 c 0,41,42
 316 510 316 510 341 490 c 128,-1,43
 366 470 366 470 366 428 c 0,44,45
 366 412 366 412 362 396 c 2,46,-1
 288 87 l 2,47,48
 285 75 285 75 290.5 68 c 128,-1,49
 296 61 296 61 305 61 c 0,50,51
 312 61 312 61 320 66 c 2,52,-1
 435 144 l 1,53,-1
 475 85 l 1,54,-1
 360 7 l 2,55,56
 328 -14 328 -14 293 -14 c 0,57,58
 259 -14 259 -14 234 6 c 128,-1,59
 209 26 209 26 209 68 c 0,60,61
 209 84 209 84 213 100 c 2,62,-1
 287 409 l 2,31,32
EndSplineSet
Substitution2: "'ss02' Style Set 2 in Latin lookup 3 subtable" uni1EC9.alt
Substitution2: "'aalt' Access All Alternates in Latin lookup 0 subtable" uni1EC9.alt
EndChar

StartChar: dotlessi
Encoding: 305 305 358
Width: 612
Flags: W
LayerCount: 2
Fore
SplineSet
287 409 m 2,0,1
 289 419 289 419 284.5 426.5 c 128,-1,2
 280 434 280 434 269 434 c 0,3,4
 261 434 261 434 254 430 c 2,5,-1
 137 350 l 1,6,-1
 97 409 l 1,7,-1
 215 489 l 2,8,9
 246 510 246 510 282 510 c 0,10,11
 316 510 316 510 341 490 c 128,-1,12
 366 470 366 470 366 428 c 0,13,14
 366 412 366 412 362 396 c 2,15,-1
 288 87 l 2,16,17
 285 75 285 75 290.5 68 c 128,-1,18
 296 61 296 61 305 61 c 0,19,20
 312 61 312 61 320 66 c 2,21,-1
 435 144 l 1,22,-1
 475 85 l 1,23,-1
 360 7 l 2,24,25
 328 -14 328 -14 293 -14 c 0,26,27
 259 -14 259 -14 234 6 c 128,-1,28
 209 26 209 26 209 68 c 0,29,30
 209 84 209 84 213 100 c 2,31,-1
 287 409 l 2,0,1
EndSplineSet
Substitution2: "'ss02' Style Set 2 in Latin lookup 3 subtable" dotlessi.alt
Substitution2: "'aalt' Access All Alternates in Latin lookup 0 subtable" dotlessi.alt
EndChar

StartChar: jcircumflex
Encoding: 309 309 359
Width: 612
Flags: W
LayerCount: 2
Fore
SplineSet
316 -122 m 2,0,1
 309 -156 309 -156 283 -178 c 128,-1,2
 257 -200 257 -200 223 -200 c 2,3,-1
 0 -200 l 1,4,-1
 0 -128 l 1,5,-1
 210 -128 l 2,6,7
 237 -128 237 -128 243 -98 c 2,8,-1
 352 412 l 2,9,10
 354 423 354 423 349 428.5 c 128,-1,11
 344 434 344 434 337 434 c 0,12,13
 331 434 331 434 325 430 c 2,14,-1
 208 350 l 1,15,-1
 168 409 l 1,16,-1
 286 489 l 2,17,18
 317 510 317 510 349 510 c 0,19,20
 382 510 382 510 406 487.5 c 128,-1,21
 430 465 430 465 430 427 c 0,22,23
 430 416 430 416 427 401 c 2,24,-1
 316 -122 l 2,0,1
241 570 m 1,25,-1
 241 576 l 1,26,-1
 341 688 l 1,27,-1
 465 688 l 1,28,-1
 520 570 l 1,29,-1
 445 570 l 1,30,-1
 406 658 l 1,31,-1
 394 658 l 1,32,-1
 326 570 l 1,33,-1
 241 570 l 1,25,-1
EndSplineSet
Substitution2: "'ss02' Style Set 2 in Latin lookup 3 subtable" jcircumflex.alt
Substitution2: "'aalt' Access All Alternates in Latin lookup 0 subtable" jcircumflex.alt
EndChar

StartChar: kgreenlandic
Encoding: 312 312 361
Width: 612
Flags: W
LayerCount: 2
Fore
SplineSet
233 496 m 1,0,-1
 190 290 l 1,1,-1
 202 290 l 1,2,-1
 450 508 l 1,3,-1
 498 457 l 1,4,-1
 277 263 l 1,5,-1
 277 245 l 1,6,-1
 406 69 l 2,7,8
 412 62 412 62 419 62 c 0,9,10
 425 62 425 62 432 67 c 2,11,-1
 480 102 l 1,12,-1
 522 43 l 1,13,-1
 477 9 l 2,14,15
 463 -2 463 -2 448 -8 c 128,-1,16
 433 -14 433 -14 416 -14 c 0,17,18
 396 -14 396 -14 377.5 -4 c 128,-1,19
 359 6 359 6 342 29 c 2,20,-1
 204 218 l 1,21,-1
 174 218 l 1,22,-1
 128 0 l 1,23,-1
 50 0 l 1,24,-1
 155 496 l 1,25,-1
 233 496 l 1,0,-1
EndSplineSet
EndChar

StartChar: lslash
Encoding: 322 322 368
Width: 612
Flags: W
LayerCount: 2
Fore
SplineSet
226 284 m 1,0,-1
 160 266 l 1,1,-1
 140 340 l 1,2,-1
 246 368 l 1,3,-1
 304 614 l 2,4,5
 307 626 307 626 301.5 632.5 c 128,-1,6
 296 639 296 639 286 639 c 0,7,8
 279 639 279 639 271 634 c 2,9,-1
 154 554 l 1,10,-1
 114 613 l 1,11,-1
 232 693 l 2,12,13
 248 704 248 704 265 709 c 128,-1,14
 282 714 282 714 299 714 c 0,15,16
 332 714 332 714 357.5 694 c 128,-1,17
 383 674 383 674 383 632 c 0,18,19
 383 615 383 615 379 600 c 2,20,-1
 329 390 l 1,21,-1
 410 411 l 1,22,-1
 430 339 l 1,23,-1
 310 306 l 1,24,-1
 258 87 l 2,25,26
 255 75 255 75 260.5 68 c 128,-1,27
 266 61 266 61 275 61 c 0,28,29
 282 61 282 61 290 66 c 2,30,-1
 405 144 l 1,31,-1
 445 85 l 1,32,-1
 330 7 l 2,33,34
 298 -14 298 -14 263 -14 c 0,35,36
 230 -14 230 -14 204.5 6 c 128,-1,37
 179 26 179 26 179 68 c 0,38,39
 179 85 179 85 183 100 c 2,40,-1
 226 284 l 1,0,-1
EndSplineSet
Substitution2: "'ss02' Style Set 2 in Latin lookup 3 subtable" lslash.alt
Substitution2: "'aalt' Access All Alternates in Latin lookup 0 subtable" lslash.alt
EndChar

StartChar: uni01EB
Encoding: 491 491 387
Width: 612
Flags: W
LayerCount: 2
Fore
SplineSet
329 510 m 0,0,1
 372 510 372 510 409 495 c 128,-1,2
 446 480 446 480 473 453 c 128,-1,3
 500 426 500 426 515.5 388.5 c 128,-1,4
 531 351 531 351 531 306 c 0,5,6
 531 225 531 225 496.5 153 c 128,-1,7
 462 81 462 81 395 36 c 2,8,-1
 243 -67 l 2,9,10
 233 -74 233 -74 233 -83 c 0,11,12
 233 -91 233 -91 238 -94.5 c 128,-1,13
 243 -98 243 -98 249 -98 c 2,14,-1
 336 -98 l 1,15,-1
 336 -164 l 1,16,-1
 229 -164 l 2,17,18
 199 -164 199 -164 181 -145.5 c 128,-1,19
 163 -127 163 -127 163 -99 c 0,20,21
 163 -80 163 -80 173 -61 c 128,-1,22
 183 -42 183 -42 206 -25 c 2,23,-1
 221 -14 l 1,24,25
 179 -14 179 -14 142.5 0.5 c 128,-1,26
 106 15 106 15 79 41 c 128,-1,27
 52 67 52 67 36 104.5 c 128,-1,28
 20 142 20 142 20 188 c 0,29,30
 20 260 20 260 44.5 319.5 c 128,-1,31
 69 379 69 379 111.5 421 c 128,-1,32
 154 463 154 463 210 486.5 c 128,-1,33
 266 510 266 510 329 510 c 0,0,1
240 60 m 0,34,35
 286 60 286 60 325 80.5 c 128,-1,36
 364 101 364 101 392 134.5 c 128,-1,37
 420 168 420 168 435.5 211 c 128,-1,38
 451 254 451 254 451 300 c 0,39,40
 451 359 451 359 414.5 397.5 c 128,-1,41
 378 436 378 436 312 436 c 0,42,43
 269 436 269 436 231 417 c 128,-1,44
 193 398 193 398 164.5 365 c 128,-1,45
 136 332 136 332 119 288.5 c 128,-1,46
 102 245 102 245 102 196 c 0,47,48
 102 136 102 136 138 98 c 128,-1,49
 174 60 174 60 240 60 c 0,34,35
EndSplineSet
EndChar

StartChar: uni1ECF
Encoding: 7887 7887 389
Width: 612
Flags: W
LayerCount: 2
Fore
SplineSet
312 546 m 1,0,-1
 312 638 l 1,1,-1
 317 644 l 1,2,-1
 389 644 l 1,3,4
 396 630 396 630 415 630 c 0,5,6
 433 630 433 630 444 642.5 c 128,-1,7
 455 655 455 655 455 672 c 256,8,9
 455 689 455 689 445.5 699.5 c 128,-1,10
 436 710 436 710 419 710 c 0,11,12
 397 710 397 710 385 697.5 c 128,-1,13
 373 685 373 685 366 670 c 1,14,-1
 322 688 l 1,15,16
 335 718 335 718 360 738 c 128,-1,17
 385 758 385 758 424 758 c 0,18,19
 462 758 462 758 486 734 c 128,-1,20
 510 710 510 710 510 674 c 0,21,22
 510 655 510 655 503 638.5 c 128,-1,23
 496 622 496 622 483.5 609.5 c 128,-1,24
 471 597 471 597 454.5 589.5 c 128,-1,25
 438 582 438 582 419 582 c 0,26,27
 380 582 380 582 367 614 c 1,28,-1
 361 614 l 1,29,-1
 361 546 l 1,30,-1
 312 546 l 1,0,-1
329 510 m 0,31,32
 372 510 372 510 409 495 c 128,-1,33
 446 480 446 480 473 453 c 128,-1,34
 500 426 500 426 515.5 388.5 c 128,-1,35
 531 351 531 351 531 306 c 0,36,37
 531 244 531 244 510.5 186.5 c 128,-1,38
 490 129 490 129 450.5 84.5 c 128,-1,39
 411 40 411 40 353.5 13 c 128,-1,40
 296 -14 296 -14 223 -14 c 0,41,42
 181 -14 181 -14 144 0.5 c 128,-1,43
 107 15 107 15 79.5 41 c 128,-1,44
 52 67 52 67 36 104.5 c 128,-1,45
 20 142 20 142 20 188 c 0,46,47
 20 260 20 260 44.5 319.5 c 128,-1,48
 69 379 69 379 111.5 421 c 128,-1,49
 154 463 154 463 210 486.5 c 128,-1,50
 266 510 266 510 329 510 c 0,31,32
240 60 m 0,51,52
 286 60 286 60 325 80.5 c 128,-1,53
 364 101 364 101 392 134.5 c 128,-1,54
 420 168 420 168 435.5 211 c 128,-1,55
 451 254 451 254 451 300 c 0,56,57
 451 359 451 359 414.5 397.5 c 128,-1,58
 378 436 378 436 312 436 c 0,59,60
 269 436 269 436 231 417 c 128,-1,61
 193 398 193 398 164.5 365 c 128,-1,62
 136 332 136 332 119 288.5 c 128,-1,63
 102 245 102 245 102 196 c 0,64,65
 102 136 102 136 138 98 c 128,-1,66
 174 60 174 60 240 60 c 0,51,52
EndSplineSet
EndChar

StartChar: uni1ED5
Encoding: 7893 7893 392
Width: 612
Flags: W
LayerCount: 2
Fore
SplineSet
495 658 m 1,0,-1
 495 750 l 1,1,-1
 500 756 l 1,2,-1
 572 756 l 1,3,4
 579 742 579 742 598 742 c 0,5,6
 616 742 616 742 627 754.5 c 128,-1,7
 638 767 638 767 638 784 c 256,8,9
 638 801 638 801 628.5 811.5 c 128,-1,10
 619 822 619 822 602 822 c 0,11,12
 580 822 580 822 568 809.5 c 128,-1,13
 556 797 556 797 549 782 c 1,14,-1
 505 800 l 1,15,16
 518 830 518 830 543 850 c 128,-1,17
 568 870 568 870 607 870 c 0,18,19
 645 870 645 870 669 846 c 128,-1,20
 693 822 693 822 693 786 c 0,21,22
 693 767 693 767 686 750.5 c 128,-1,23
 679 734 679 734 666.5 721.5 c 128,-1,24
 654 709 654 709 637.5 701.5 c 128,-1,25
 621 694 621 694 602 694 c 0,26,27
 563 694 563 694 550 726 c 1,28,-1
 544 726 l 1,29,-1
 544 658 l 1,30,-1
 495 658 l 1,0,-1
329 510 m 0,31,32
 372 510 372 510 409 495 c 128,-1,33
 446 480 446 480 473 453 c 128,-1,34
 500 426 500 426 515.5 388.5 c 128,-1,35
 531 351 531 351 531 306 c 0,36,37
 531 244 531 244 510.5 186.5 c 128,-1,38
 490 129 490 129 450.5 84.5 c 128,-1,39
 411 40 411 40 353.5 13 c 128,-1,40
 296 -14 296 -14 223 -14 c 0,41,42
 181 -14 181 -14 144 0.5 c 128,-1,43
 107 15 107 15 79.5 41 c 128,-1,44
 52 67 52 67 36 104.5 c 128,-1,45
 20 142 20 142 20 188 c 0,46,47
 20 260 20 260 44.5 319.5 c 128,-1,48
 69 379 69 379 111.5 421 c 128,-1,49
 154 463 154 463 210 486.5 c 128,-1,50
 266 510 266 510 329 510 c 0,31,32
240 60 m 0,51,52
 286 60 286 60 325 80.5 c 128,-1,53
 364 101 364 101 392 134.5 c 128,-1,54
 420 168 420 168 435.5 211 c 128,-1,55
 451 254 451 254 451 300 c 0,56,57
 451 359 451 359 414.5 397.5 c 128,-1,58
 378 436 378 436 312 436 c 0,59,60
 269 436 269 436 231 417 c 128,-1,61
 193 398 193 398 164.5 365 c 128,-1,62
 136 332 136 332 119 288.5 c 128,-1,63
 102 245 102 245 102 196 c 0,64,65
 102 136 102 136 138 98 c 128,-1,66
 174 60 174 60 240 60 c 0,51,52
217 570 m 1,67,-1
 217 576 l 1,68,-1
 317 688 l 1,69,-1
 441 688 l 1,70,-1
 496 570 l 1,71,-1
 421 570 l 1,72,-1
 382 658 l 1,73,-1
 370 658 l 1,74,-1
 302 570 l 1,75,-1
 217 570 l 1,67,-1
EndSplineSet
EndChar

StartChar: uni01A1
Encoding: 417 417 396
Width: 612
Flags: W
LayerCount: 2
Fore
SplineSet
502 426 m 256,0,1
 502 455 502 455 522.5 475.5 c 128,-1,2
 543 496 543 496 572 496 c 256,3,4
 601 496 601 496 621.5 475.5 c 128,-1,5
 642 455 642 455 642 426 c 0,6,7
 642 419 642 419 641 414 c 2,8,-1
 623 328 l 2,9,10
 615 290 615 290 592 270 c 128,-1,11
 569 250 569 250 530 250 c 2,12,-1
 466 250 l 1,13,-1
 464 240 l 2,14,15
 438 111 438 111 370.5 48.5 c 128,-1,16
 303 -14 303 -14 206 -14 c 0,17,18
 168 -14 168 -14 135.5 -0.5 c 128,-1,19
 103 13 103 13 79.5 38 c 128,-1,20
 56 63 56 63 43 97 c 128,-1,21
 30 131 30 131 30 173 c 0,22,23
 30 190 30 190 32 205.5 c 128,-1,24
 34 221 34 221 38 242 c 2,25,-1
 41 254 l 1,26,27
 67 375 67 375 131 442.5 c 128,-1,28
 195 510 195 510 300 510 c 0,29,30
 337 510 337 510 369 498 c 128,-1,31
 401 486 401 486 424.5 462.5 c 128,-1,32
 448 439 448 439 461.5 405.5 c 128,-1,33
 475 372 475 372 475 329 c 0,34,35
 475 323 475 323 475 318 c 128,-1,36
 475 313 475 313 474 304 c 1,37,-1
 537 304 l 2,38,39
 565 304 565 304 571 334 c 2,40,-1
 576 356 l 1,41,-1
 572 356 l 2,42,43
 543 356 543 356 522.5 376.5 c 128,-1,44
 502 397 502 397 502 426 c 256,0,1
213 60 m 0,45,46
 280 60 280 60 320.5 104.5 c 128,-1,47
 361 149 361 149 384 242 c 2,48,-1
 387 254 l 2,49,50
 394 286 394 286 394 318 c 0,51,52
 394 372 394 372 369 404 c 128,-1,53
 344 436 344 436 292 436 c 0,54,55
 226 436 226 436 182 385.5 c 128,-1,56
 138 335 138 335 121 254 c 2,57,-1
 118 242 l 2,58,59
 114 225 114 225 112.5 208.5 c 128,-1,60
 111 192 111 192 111 178 c 0,61,62
 111 122 111 122 136.5 91 c 128,-1,63
 162 60 162 60 213 60 c 0,45,46
EndSplineSet
EndChar

StartChar: uni1EDF
Encoding: 7903 7903 399
Width: 612
Flags: W
LayerCount: 2
Fore
SplineSet
282 546 m 1,0,-1
 282 638 l 1,1,-1
 287 644 l 1,2,-1
 359 644 l 1,3,4
 366 630 366 630 385 630 c 0,5,6
 403 630 403 630 414 642.5 c 128,-1,7
 425 655 425 655 425 672 c 256,8,9
 425 689 425 689 415.5 699.5 c 128,-1,10
 406 710 406 710 389 710 c 0,11,12
 367 710 367 710 355 697.5 c 128,-1,13
 343 685 343 685 336 670 c 1,14,-1
 292 688 l 1,15,16
 305 718 305 718 330 738 c 128,-1,17
 355 758 355 758 394 758 c 0,18,19
 432 758 432 758 456 734 c 128,-1,20
 480 710 480 710 480 674 c 0,21,22
 480 655 480 655 473 638.5 c 128,-1,23
 466 622 466 622 453.5 609.5 c 128,-1,24
 441 597 441 597 424.5 589.5 c 128,-1,25
 408 582 408 582 389 582 c 0,26,27
 350 582 350 582 337 614 c 1,28,-1
 331 614 l 1,29,-1
 331 546 l 1,30,-1
 282 546 l 1,0,-1
502 426 m 256,31,32
 502 455 502 455 522.5 475.5 c 128,-1,33
 543 496 543 496 572 496 c 256,34,35
 601 496 601 496 621.5 475.5 c 128,-1,36
 642 455 642 455 642 426 c 0,37,38
 642 419 642 419 641 414 c 2,39,-1
 623 328 l 2,40,41
 615 290 615 290 592 270 c 128,-1,42
 569 250 569 250 530 250 c 2,43,-1
 466 250 l 1,44,-1
 464 240 l 2,45,46
 438 111 438 111 370.5 48.5 c 128,-1,47
 303 -14 303 -14 206 -14 c 0,48,49
 168 -14 168 -14 135.5 -0.5 c 128,-1,50
 103 13 103 13 79.5 38 c 128,-1,51
 56 63 56 63 43 97 c 128,-1,52
 30 131 30 131 30 173 c 0,53,54
 30 190 30 190 32 205.5 c 128,-1,55
 34 221 34 221 38 242 c 2,56,-1
 41 254 l 1,57,58
 67 375 67 375 131 442.5 c 128,-1,59
 195 510 195 510 300 510 c 0,60,61
 337 510 337 510 369 498 c 128,-1,62
 401 486 401 486 424.5 462.5 c 128,-1,63
 448 439 448 439 461.5 405.5 c 128,-1,64
 475 372 475 372 475 329 c 0,65,66
 475 323 475 323 475 318 c 128,-1,67
 475 313 475 313 474 304 c 1,68,-1
 537 304 l 2,69,70
 565 304 565 304 571 334 c 2,71,-1
 576 356 l 1,72,-1
 572 356 l 2,73,74
 543 356 543 356 522.5 376.5 c 128,-1,75
 502 397 502 397 502 426 c 256,31,32
213 60 m 0,76,77
 280 60 280 60 320.5 104.5 c 128,-1,78
 361 149 361 149 384 242 c 2,79,-1
 387 254 l 2,80,81
 394 286 394 286 394 318 c 0,82,83
 394 372 394 372 369 404 c 128,-1,84
 344 436 344 436 292 436 c 0,85,86
 226 436 226 436 182 385.5 c 128,-1,87
 138 335 138 335 121 254 c 2,88,-1
 118 242 l 2,89,90
 114 225 114 225 112.5 208.5 c 128,-1,91
 111 192 111 192 111 178 c 0,92,93
 111 122 111 122 136.5 91 c 128,-1,94
 162 60 162 60 213 60 c 0,76,77
EndSplineSet
EndChar

StartChar: oslash
Encoding: 248 248 402
Width: 612
Flags: W
LayerCount: 2
Fore
SplineSet
329 510 m 0,0,1
 341 510 341 510 352.5 508.5 c 128,-1,2
 364 507 364 507 375 505 c 1,3,-1
 404 558 l 1,4,-1
 464 524 l 1,5,-1
 440 479 l 1,6,7
 482 453 482 453 506.5 408.5 c 128,-1,8
 531 364 531 364 531 306 c 0,9,10
 531 244 531 244 510.5 186.5 c 128,-1,11
 490 129 490 129 450.5 84.5 c 128,-1,12
 411 40 411 40 353.5 13 c 128,-1,13
 296 -14 296 -14 223 -14 c 0,14,15
 201 -14 201 -14 176 -9 c 1,16,-1
 145 -68 l 1,17,-1
 85 -33 l 1,18,-1
 111 16 l 1,19,20
 69 41 69 41 44.5 85 c 128,-1,21
 20 129 20 129 20 188 c 0,22,23
 20 260 20 260 44.5 319.5 c 128,-1,24
 69 379 69 379 111.5 421 c 128,-1,25
 154 463 154 463 210 486.5 c 128,-1,26
 266 510 266 510 329 510 c 0,0,1
240 60 m 0,27,28
 286 60 286 60 325 80.5 c 128,-1,29
 364 101 364 101 392 134.5 c 128,-1,30
 420 168 420 168 435.5 211 c 128,-1,31
 451 254 451 254 451 300 c 0,32,33
 451 369 451 369 401 408 c 1,34,-1
 215 61 l 1,35,36
 221 60 221 60 227 60 c 128,-1,37
 233 60 233 60 240 60 c 0,27,28
102 196 m 0,38,39
 102 124 102 124 150 87 c 1,40,-1
 337 434 l 1,41,42
 331 435 331 435 325 435.5 c 128,-1,43
 319 436 319 436 312 436 c 0,44,45
 269 436 269 436 231 417 c 128,-1,46
 193 398 193 398 164.5 365 c 128,-1,47
 136 332 136 332 119 288.5 c 128,-1,48
 102 245 102 245 102 196 c 0,38,39
EndSplineSet
EndChar

StartChar: oe
Encoding: 339 339 403
Width: 612
Flags: W
LayerCount: 2
Fore
SplineSet
238 -14 m 0,0,1
 196 -14 196 -14 159 -0.5 c 128,-1,2
 122 13 122 13 94 38.5 c 128,-1,3
 66 64 66 64 50 101.5 c 128,-1,4
 34 139 34 139 34 188 c 0,5,6
 34 252 34 252 55.5 310 c 128,-1,7
 77 368 77 368 117 412.5 c 128,-1,8
 157 457 157 457 213 483.5 c 128,-1,9
 269 510 269 510 338 510 c 0,10,11
 389 510 389 510 426.5 494 c 128,-1,12
 464 478 464 478 489 451.5 c 128,-1,13
 514 425 514 425 526 392 c 128,-1,14
 538 359 538 359 538 325 c 0,15,16
 538 305 538 305 533 282 c 2,17,-1
 520 224 l 1,18,-1
 320 224 l 1,19,-1
 286 62 l 1,20,21
 340 71 340 71 371 99 c 128,-1,22
 402 127 402 127 422 163 c 1,23,-1
 489 128 l 1,24,25
 474 99 474 99 451 73.5 c 128,-1,26
 428 48 428 48 397.5 28.5 c 128,-1,27
 367 9 367 9 327 -2.5 c 128,-1,28
 287 -14 287 -14 238 -14 c 0,0,1
286 430 m 1,29,30
 247 420 247 420 215.5 397 c 128,-1,31
 184 374 184 374 161.5 342 c 128,-1,32
 139 310 139 310 127 271.5 c 128,-1,33
 115 233 115 233 115 192 c 0,34,35
 115 141 115 141 140.5 108 c 128,-1,36
 166 75 166 75 209 65 c 1,37,-1
 286 430 l 1,29,30
457 296 m 1,38,39
 460 311 460 311 460 325 c 0,40,41
 460 370 460 370 433.5 398.5 c 128,-1,42
 407 427 407 427 365 432 c 1,43,-1
 336 296 l 1,44,-1
 457 296 l 1,38,39
EndSplineSet
EndChar

StartChar: scedilla
Encoding: 351 351 414
Width: 612
Flags: W
LayerCount: 2
Fore
SplineSet
336 440 m 0,0,1
 316 440 316 440 294.5 435 c 128,-1,2
 273 430 273 430 255.5 420 c 128,-1,3
 238 410 238 410 227 394.5 c 128,-1,4
 216 379 216 379 216 358 c 0,5,6
 216 326 216 326 244.5 310 c 128,-1,7
 273 294 273 294 343 289 c 0,8,9
 415 284 415 284 454.5 253 c 128,-1,10
 494 222 494 222 494 162 c 0,11,12
 494 120 494 120 477 88 c 128,-1,13
 460 56 460 56 429.5 33.5 c 128,-1,14
 399 11 399 11 357 -1 c 128,-1,15
 315 -13 315 -13 265 -14 c 1,16,-1
 246 -68 l 1,17,-1
 252 -68 l 1,18,19
 269 -36 269 -36 306 -36 c 0,20,21
 339 -36 339 -36 356.5 -58 c 128,-1,22
 374 -80 374 -80 374 -110 c 0,23,24
 374 -155 374 -155 348.5 -183.5 c 128,-1,25
 323 -212 323 -212 270 -212 c 0,26,27
 229 -212 229 -212 205 -192.5 c 128,-1,28
 181 -173 181 -173 176 -142 c 1,29,-1
 226 -125 l 1,30,31
 228 -141 228 -141 238.5 -152.5 c 128,-1,32
 249 -164 249 -164 272 -164 c 256,33,34
 295 -164 295 -164 307.5 -151.5 c 128,-1,35
 320 -139 320 -139 320 -118 c 0,36,37
 320 -100 320 -100 310.5 -92 c 128,-1,38
 301 -84 301 -84 288 -84 c 0,39,40
 277 -84 277 -84 271 -88 c 128,-1,41
 265 -92 265 -92 261 -98 c 1,42,-1
 186 -98 l 1,43,-1
 186 -86 l 1,44,-1
 212 -10 l 1,45,46
 175 -4 175 -4 148.5 11.5 c 128,-1,47
 122 27 122 27 105 48 c 128,-1,48
 88 69 88 69 80 94 c 128,-1,49
 72 119 72 119 72 145 c 0,50,51
 72 150 72 150 72 155.5 c 128,-1,52
 72 161 72 161 73 166 c 1,53,-1
 151 176 l 1,54,55
 150 168 150 168 150 166 c 128,-1,56
 150 164 150 164 150 160 c 0,57,58
 150 138 150 138 156.5 119.5 c 128,-1,59
 163 101 163 101 178 87.5 c 128,-1,60
 193 74 193 74 217 66 c 128,-1,61
 241 58 241 58 276 58 c 0,62,63
 299 58 299 58 323.5 63.5 c 128,-1,64
 348 69 348 69 368 80.5 c 128,-1,65
 388 92 388 92 401 109.5 c 128,-1,66
 414 127 414 127 414 152 c 0,67,68
 414 191 414 191 382.5 204.5 c 128,-1,69
 351 218 351 218 289 223 c 0,70,71
 218 228 218 228 177.5 257 c 128,-1,72
 137 286 137 286 137 348 c 0,73,74
 137 383 137 383 152 413 c 128,-1,75
 167 443 167 443 194.5 464.5 c 128,-1,76
 222 486 222 486 260.5 498 c 128,-1,77
 299 510 299 510 346 510 c 0,78,79
 392 510 392 510 425.5 497.5 c 128,-1,80
 459 485 459 485 480.5 465 c 128,-1,81
 502 445 502 445 512.5 419.5 c 128,-1,82
 523 394 523 394 523 367 c 2,83,-1
 523 356 l 1,84,-1
 446 345 l 1,85,-1
 446 349 l 2,86,87
 446 351 446 351 446.5 352.5 c 128,-1,88
 447 354 447 354 447 356 c 0,89,90
 447 394 447 394 418.5 417 c 128,-1,91
 390 440 390 440 336 440 c 0,0,1
EndSplineSet
Substitution2: "'locl' Localized Forms in Latin lookup 12 subtable" uni0219
Substitution2: "'locl' Localized Forms in Latin lookup 11 subtable" uni0219
Substitution2: "'aalt' Access All Alternates in Latin lookup 0 subtable" uni0219
EndChar

StartChar: germandbls
Encoding: 223 223 417
Width: 612
Flags: W
LayerCount: 2
Fore
SplineSet
349 355 m 1,0,-1
 362 355 l 2,1,2
 398 355 398 355 429 344 c 128,-1,3
 460 333 460 333 483.5 312.5 c 128,-1,4
 507 292 507 292 520.5 261.5 c 128,-1,5
 534 231 534 231 534 192 c 0,6,7
 534 149 534 149 520.5 111.5 c 128,-1,8
 507 74 507 74 481.5 46 c 128,-1,9
 456 18 456 18 418.5 2 c 128,-1,10
 381 -14 381 -14 333 -14 c 0,11,12
 291 -14 291 -14 260 -2.5 c 128,-1,13
 229 9 229 9 209.5 28 c 128,-1,14
 190 47 190 47 180.5 71 c 128,-1,15
 171 95 171 95 171 120 c 0,16,17
 171 127 171 127 171 133.5 c 128,-1,18
 171 140 171 140 173 146 c 1,19,-1
 249 154 l 1,20,21
 248 149 248 149 248 145.5 c 128,-1,22
 248 142 248 142 248 138 c 0,23,24
 248 102 248 102 270.5 80 c 128,-1,25
 293 58 293 58 339 58 c 0,26,27
 361 58 361 58 382 65.5 c 128,-1,28
 403 73 403 73 419 88.5 c 128,-1,29
 435 104 435 104 444.5 127 c 128,-1,30
 454 150 454 150 454 182 c 0,31,32
 454 239 454 239 418.5 261 c 128,-1,33
 383 283 383 283 328 283 c 2,34,-1
 274 283 l 1,35,-1
 274 430 l 1,36,-1
 323 430 l 2,37,38
 383 430 383 430 422.5 463.5 c 128,-1,39
 462 497 462 497 462 556 c 0,40,41
 462 598 462 598 434.5 620 c 128,-1,42
 407 642 407 642 363 642 c 0,43,44
 307 642 307 642 268 609.5 c 128,-1,45
 229 577 229 577 213 502 c 2,46,-1
 106 0 l 1,47,-1
 28 0 l 1,48,-1
 118 424 l 1,49,-1
 58 424 l 1,50,-1
 58 496 l 1,51,-1
 134 496 l 1,52,-1
 137 510 l 2,53,54
 160 618 160 618 221 666 c 128,-1,55
 282 714 282 714 369 714 c 0,56,57
 406 714 406 714 437.5 703.5 c 128,-1,58
 469 693 469 693 492 673 c 128,-1,59
 515 653 515 653 528.5 623.5 c 128,-1,60
 542 594 542 594 542 556 c 0,61,62
 542 519 542 519 528.5 486.5 c 128,-1,63
 515 454 515 454 490.5 429 c 128,-1,64
 466 404 466 404 430 387.5 c 128,-1,65
 394 371 394 371 349 367 c 1,66,-1
 349 355 l 1,0,-1
EndSplineSet
EndChar

StartChar: longs
Encoding: 383 383 418
Width: 612
Flags: W
LayerCount: 2
Fore
SplineSet
220 -126 m 2,0,1
 212 -164 212 -164 188.5 -182 c 128,-1,2
 165 -200 165 -200 137 -200 c 0,3,4
 105 -200 105 -200 85.5 -187 c 128,-1,5
 66 -174 66 -174 52 -152 c 2,6,-1
 8 -81 l 1,7,-1
 69 -42 l 1,8,-1
 111 -109 l 2,9,10
 118 -121 118 -121 129 -121 c 0,11,12
 137 -121 137 -121 140.5 -116.5 c 128,-1,13
 144 -112 144 -112 146 -106 c 2,14,-1
 259 424 l 1,15,-1
 106 424 l 1,16,-1
 106 496 l 1,17,-1
 275 496 l 1,18,-1
 301 622 l 2,19,20
 309 656 309 656 335 678 c 128,-1,21
 361 700 361 700 395 700 c 2,22,-1
 574 700 l 1,23,-1
 574 628 l 1,24,-1
 408 628 l 2,25,26
 380 628 380 628 374 598 c 2,27,-1
 220 -126 l 2,0,1
EndSplineSet
EndChar

